<svg width="800" height="800" viewBox="0 0 800 800" fill="none" xmlns="http://www.w3.org/2000/svg">
<g filter="url(#filter0_d_1144_1103)">
<path d="M668.75 212.5H550V181.25C550 170.911 541.589 162.5 531.25 162.5H512.5V143.75C512.5 133.411 504.089 125 493.75 125C483.411 125 475 133.411 475 143.75V162.5H456.25C445.911 162.5 437.5 170.911 437.5 181.25V212.5H237.5V170.044C237.5 166.858 235.107 164.184 231.946 163.83C228.571 163.464 148.719 154.845 115.045 184.96C105.06 193.884 100 205.248 100 218.749V584.215C100 597.911 102.526 610.424 107.514 621.41C113.831 635.339 122.999 645.995 134.773 653.088C155.836 673.266 207.496 675.085 225.361 675.085C228.804 675.085 230.995 675.011 231.465 675H668.75C685.986 675 700 660.986 700 643.75V243.75C700 226.514 685.986 212.5 668.75 212.5ZM538.56 285.246L622.388 387.585L627.515 434.424L611.865 446.496L509.828 321.163L538.56 285.246ZM493.75 250C500.654 250 506.25 255.596 506.25 262.5C506.25 269.404 500.654 275 493.75 275C486.846 275 481.25 269.402 481.25 262.5C481.25 255.598 486.846 250 493.75 250ZM477.672 321.164L375.629 446.497L359.991 434.425L365.112 387.586L448.94 285.247L477.672 321.164ZM687.5 643.75C687.5 654.089 679.089 662.5 668.75 662.5H231.25V668.75L231.036 662.5C212.64 663.159 160.95 661.011 143.335 643.994C139.459 640.246 137.574 636.071 137.567 631.238C137.574 624.682 139.979 619.324 144.922 614.867C163.617 598.046 213.111 599.109 230.598 600.939C232.374 601.121 234.112 600.56 235.431 599.364C236.75 598.18 237.5 596.495 237.5 594.725V225H437.5V268.75C437.5 270.166 437.989 271.545 438.868 272.656L440.961 275.274L354.268 381.104C353.499 382.031 353.023 383.179 352.888 384.375L347.186 436.548C346.949 438.72 347.857 440.845 349.579 442.175L356.008 447.138L339.211 472.146C337.556 474.608 337.834 477.977 340.029 480.127C342.505 482.554 346.479 482.514 348.905 480.038L370.318 458.184L372.809 460.106C373.944 460.985 375.293 461.412 376.624 461.412C378.443 461.412 380.244 460.619 381.476 459.105L485.659 331.144L488.868 335.155C490.051 336.633 491.846 337.499 493.75 337.499C495.654 337.499 497.449 336.633 498.632 335.155L501.841 331.144L606.017 459.105C607.25 460.619 609.045 461.412 610.864 461.412C612.206 461.412 613.549 460.985 614.685 460.106L617.18 458.181C617.426 458.431 638.596 480.038 638.595 480.036C643.617 485.451 652.596 478.236 648.289 472.145L631.494 447.138L637.926 442.174C639.648 440.844 640.551 438.719 640.319 436.546L634.606 384.374C634.473 383.178 633.996 382.03 633.226 381.102L546.538 275.272L548.631 272.655C549.51 271.544 549.999 270.165 549.999 268.749V224.999H668.749C679.088 224.999 687.499 233.41 687.499 243.749L687.5 643.75Z" fill="#FFDAB9"/>
</g>
<g filter="url(#filter1_d_1144_1103)">
<path d="M324 473.816V305V275V257C324 245 314 235 302 235H266C254 235 244 245 244 257V275V305V475C244 476.591 244.567 477.897 245.543 478.776L280 528C281 529.001 282.5 530 284 530C285.5 530 287 529 288 527.5L321.739 479.301C323.152 478.47 324 476.948 324 475V474.999C324.057 474.602 324.059 474.203 324 473.816ZM254 470V310H279V470H254ZM314 300H284H254V280H314V300ZM289 310H314.001V470H289V310ZM254 257C254 250.5 259.5 245 266 245H302C308.5 245 314 250.5 314 257V270H254V257ZM284 516.5L258.5 480H284H309.5L284 516.5Z" fill="#FFDAB9"/>
</g>
<g filter="url(#filter2_d_1144_1103)">
<path d="M644 621V571C644 562.5 637.5 556 629 556H356C349.5 556 344 561.5 344 568V624.5C344 631 349.5 636 356 636H629C637.5 636 644 629.5 644 621ZM356 626.5C355 626.5 354 625.5 354 624.5V568C354 567 355 566 356 566H419V581C419 584 421 586 424 586C427 586 428.999 584 428.999 581V566H439V591C439 594 440.999 596 443.999 596C446.999 596 448.999 594 448.999 591V566H458.999V581C458.999 584 460.999 586 463.999 586C466.999 586 468.999 584 468.999 581V566H479V591C479 594 481 596 484 596C487 596 488.999 594 488.999 591V566H499V581C499 584 500.999 586 503.999 586C506.999 586 508.999 584 508.999 581V566H518.999V591C518.999 594 520.999 596 523.999 596C526.999 596 528.999 594 528.999 591V566H539V581C539 584 541 586 544 586C547 586 548.999 584 548.999 581V566H559V591C559 594 560.999 596 563.999 596C566.999 596 569 594 569 591V566H579V581C579 584 581 585.999 584 585.999C587 585.999 589 584 589 581V566H599V591C599 594 601 596 604 596C607 596 608.999 594 608.999 591V566H629C632 566 634 567.999 634 570.999V621.5C634 624.5 632 626.499 629 626.499H356V626.5Z" fill="#FFDAB9"/>
</g>
<g filter="url(#filter3_d_1144_1103)">
<path d="M384 576C373 576 364 585 364 596C364 607 373 616 384 616C394.999 616 403.999 607 403.999 596C403.999 585 394.999 576 384 576ZM384 606C378.499 606 373.999 601.5 373.999 596C373.999 590.5 378.499 586 384 586C389.5 586 394 590.5 394 596C394 601.5 389.499 606 384 606Z" fill="#FFDAB9"/>
</g>
<defs>
<filter id="filter0_d_1144_1103" x="85" y="114" width="630" height="580.085" filterUnits="userSpaceOnUse" color-interpolation-filters="sRGB">
<feFlood flood-opacity="0" result="BackgroundImageFix"/>
<feColorMatrix in="SourceAlpha" type="matrix" values="0 0 0 0 0 0 0 0 0 0 0 0 0 0 0 0 0 0 127 0" result="hardAlpha"/>
<feOffset dy="4"/>
<feGaussianBlur stdDeviation="7.5"/>
<feComposite in2="hardAlpha" operator="out"/>
<feColorMatrix type="matrix" values="0 0 0 0 0 0 0 0 0 0 0 0 0 0 0 0 0 0 1 0"/>
<feBlend mode="normal" in2="BackgroundImageFix" result="effect1_dropShadow_1144_1103"/>
<feBlend mode="normal" in="SourceGraphic" in2="effect1_dropShadow_1144_1103" result="shape"/>
</filter>
<filter id="filter1_d_1144_1103" x="229" y="224" width="110.044" height="325" filterUnits="userSpaceOnUse" color-interpolation-filters="sRGB">
<feFlood flood-opacity="0" result="BackgroundImageFix"/>
<feColorMatrix in="SourceAlpha" type="matrix" values="0 0 0 0 0 0 0 0 0 0 0 0 0 0 0 0 0 0 127 0" result="hardAlpha"/>
<feOffset dy="4"/>
<feGaussianBlur stdDeviation="7.5"/>
<feComposite in2="hardAlpha" operator="out"/>
<feColorMatrix type="matrix" values="0 0 0 0 0 0 0 0 0 0 0 0 0 0 0 0 0 0 1 0"/>
<feBlend mode="normal" in2="BackgroundImageFix" result="effect1_dropShadow_1144_1103"/>
<feBlend mode="normal" in="SourceGraphic" in2="effect1_dropShadow_1144_1103" result="shape"/>
</filter>
<filter id="filter2_d_1144_1103" x="329" y="545" width="330" height="110" filterUnits="userSpaceOnUse" color-interpolation-filters="sRGB">
<feFlood flood-opacity="0" result="BackgroundImageFix"/>
<feColorMatrix in="SourceAlpha" type="matrix" values="0 0 0 0 0 0 0 0 0 0 0 0 0 0 0 0 0 0 127 0" result="hardAlpha"/>
<feOffset dy="4"/>
<feGaussianBlur stdDeviation="7.5"/>
<feComposite in2="hardAlpha" operator="out"/>
<feColorMatrix type="matrix" values="0 0 0 0 0 0 0 0 0 0 0 0 0 0 0 0 0 0 1 0"/>
<feBlend mode="normal" in2="BackgroundImageFix" result="effect1_dropShadow_1144_1103"/>
<feBlend mode="normal" in="SourceGraphic" in2="effect1_dropShadow_1144_1103" result="shape"/>
</filter>
<filter id="filter3_d_1144_1103" x="349" y="565" width="69.9995" height="69.9995" filterUnits="userSpaceOnUse" color-interpolation-filters="sRGB">
<feFlood flood-opacity="0" result="BackgroundImageFix"/>
<feColorMatrix in="SourceAlpha" type="matrix" values="0 0 0 0 0 0 0 0 0 0 0 0 0 0 0 0 0 0 127 0" result="hardAlpha"/>
<feOffset dy="4"/>
<feGaussianBlur stdDeviation="7.5"/>
<feComposite in2="hardAlpha" operator="out"/>
<feColorMatrix type="matrix" values="0 0 0 0 0 0 0 0 0 0 0 0 0 0 0 0 0 0 1 0"/>
<feBlend mode="normal" in2="BackgroundImageFix" result="effect1_dropShadow_1144_1103"/>
<feBlend mode="normal" in="SourceGraphic" in2="effect1_dropShadow_1144_1103" result="shape"/>
</filter>
</defs>
</svg>
