<svg width="27" height="27" viewBox="0 0 27 27" fill="none" xmlns="http://www.w3.org/2000/svg">
<g filter="url(#filter0_d_223_71)">
<path d="M18.7122 10.2932C18.6194 10.2003 18.5092 10.1265 18.3879 10.0762C18.2666 10.0259 18.1366 10 18.0052 10C17.8739 10 17.7438 10.0259 17.6225 10.0762C17.5012 10.1265 17.391 10.2003 17.2982 10.2932L15.7042 11.8872C14.9652 11.6672 13.5862 11.1672 12.7122 10.2932C11.8382 9.4192 11.3382 8.0402 11.1182 7.3012L12.7122 5.7072C12.8052 5.61441 12.8789 5.50421 12.9292 5.38289C12.9795 5.26158 13.0054 5.13153 13.0054 5.0002C13.0054 4.86887 12.9795 4.73882 12.9292 4.61751C12.8789 4.49619 12.8052 4.38599 12.7122 4.2932L8.71222 0.293201C8.61943 0.200255 8.50922 0.126518 8.38791 0.0762068C8.26659 0.0258961 8.13655 0 8.00522 0C7.87388 0 7.74384 0.0258961 7.62252 0.0762068C7.50121 0.126518 7.391 0.200255 7.29822 0.293201L4.58622 3.0052C4.20622 3.3852 3.99222 3.9072 4.00022 4.4402C4.02322 5.8642 4.40022 10.8102 8.29822 14.7082C12.1962 18.6062 17.1422 18.9822 18.5672 19.0062H18.5952C19.1232 19.0062 19.6222 18.7982 20.0002 18.4202L22.7122 15.7082C22.8052 15.6154 22.8789 15.5052 22.9292 15.3839C22.9795 15.2626 23.0054 15.1325 23.0054 15.0012C23.0054 14.8699 22.9795 14.7398 22.9292 14.6185C22.8789 14.4972 22.8052 14.387 22.7122 14.2942L18.7122 10.2932ZM18.5852 17.0052C17.3372 16.9842 13.0672 16.6492 9.71222 13.2932C6.34622 9.9272 6.02022 5.6422 6.00022 4.4192L8.00522 2.4142L10.5912 5.0002L9.29822 6.2932C9.18068 6.41065 9.09426 6.55554 9.04677 6.71477C8.99928 6.874 8.99222 7.04256 9.02622 7.2052C9.05022 7.3202 9.63722 10.0472 11.2972 11.7072C12.9572 13.3672 15.6842 13.9542 15.7992 13.9782C15.9618 14.0132 16.1305 14.0067 16.2899 13.9593C16.4492 13.9119 16.5941 13.8253 16.7112 13.7072L18.0052 12.4142L20.5912 15.0002L18.5852 17.0052Z" fill="#FFDAB9"/>
</g>
<defs>
<filter id="filter0_d_223_71" x="0" y="0" width="27.0054" height="27.0062" filterUnits="userSpaceOnUse" color-interpolation-filters="sRGB">
<feFlood flood-opacity="0" result="BackgroundImageFix"/>
<feColorMatrix in="SourceAlpha" type="matrix" values="0 0 0 0 0 0 0 0 0 0 0 0 0 0 0 0 0 0 127 0" result="hardAlpha"/>
<feOffset dy="4"/>
<feGaussianBlur stdDeviation="2"/>
<feComposite in2="hardAlpha" operator="out"/>
<feColorMatrix type="matrix" values="0 0 0 0 0 0 0 0 0 0 0 0 0 0 0 0 0 0 0.25 0"/>
<feBlend mode="normal" in2="BackgroundImageFix" result="effect1_dropShadow_223_71"/>
<feBlend mode="normal" in="SourceGraphic" in2="effect1_dropShadow_223_71" result="shape"/>
</filter>
</defs>
</svg>
