<svg width="24" height="26" viewBox="0 0 24 26" fill="none" xmlns="http://www.w3.org/2000/svg">
<circle cx="12" cy="10" r="10" fill="#FFDAB9"/>
<g filter="url(#filter0_d_623_754)">
<path fill-rule="evenodd" clip-rule="evenodd" d="M15.1667 2.33325H8.50004C6.19886 2.33325 4.33337 4.19874 4.33337 6.49992V13.1666C4.33337 15.4678 6.19886 17.3333 8.50004 17.3333H15.1667C17.4679 17.3333 19.3334 15.4678 19.3334 13.1666V6.49992C19.3334 4.19874 17.4679 2.33325 15.1667 2.33325ZM17.875 13.1666C17.8705 14.6604 16.6605 15.8703 15.1667 15.8749H8.50004C7.00617 15.8703 5.79628 14.6604 5.79171 13.1666V6.49992C5.79628 5.00604 7.00617 3.79616 8.50004 3.79159H15.1667C16.6605 3.79616 17.8705 5.00604 17.875 6.49992V13.1666ZM15.7917 6.70825C16.252 6.70825 16.625 6.33515 16.625 5.87492C16.625 5.41469 16.252 5.04159 15.7917 5.04159C15.3315 5.04159 14.9584 5.41469 14.9584 5.87492C14.9584 6.33515 15.3315 6.70825 15.7917 6.70825ZM11.8334 6.08325C9.76231 6.08325 8.08337 7.76219 8.08337 9.83325C8.08337 11.9043 9.76231 13.5833 11.8334 13.5833C13.9045 13.5833 15.5834 11.9043 15.5834 9.83325C15.5856 8.838 15.1912 7.88289 14.4875 7.17915C13.7837 6.47541 12.8286 6.08104 11.8334 6.08325ZM9.54171 9.83325C9.54171 11.0989 10.5677 12.1249 11.8334 12.1249C13.099 12.1249 14.125 11.0989 14.125 9.83325C14.125 8.56758 13.099 7.54158 11.8334 7.54158C10.5677 7.54158 9.54171 8.56758 9.54171 9.83325Z" fill="black"/>
<path d="M18.375 13.1681V13.1666L18.375 6.49992L18.375 6.49838C18.3696 4.72956 16.937 3.297 15.1682 3.29159H15.1667L8.50004 3.29158L8.49851 3.29159C6.72969 3.297 5.29713 4.72957 5.29171 6.49839V6.49992L5.2917 13.1666L5.29171 13.1681C5.29713 14.9369 6.72969 16.3695 8.49851 16.3749H8.50004L15.1667 16.3749L15.1682 16.3749C16.937 16.3695 18.3696 14.9369 18.375 13.1681ZM11.8334 6.58325L11.8345 6.58325C12.6967 6.58133 13.5242 6.923 14.1339 7.53271C14.7436 8.14242 15.0853 8.96989 15.0834 9.83212V9.83325C15.0834 11.6282 13.6283 13.0833 11.8334 13.0833C10.0384 13.0833 8.58337 11.6282 8.58337 9.83325C8.58337 8.03833 10.0384 6.58325 11.8334 6.58325ZM8.50004 2.83325H15.1667C17.1917 2.83325 18.8334 4.47488 18.8334 6.49992V13.1666C18.8334 15.1916 17.1917 16.8333 15.1667 16.8333H8.50004C6.475 16.8333 4.83337 15.1916 4.83337 13.1666V6.49992C4.83337 4.47488 6.475 2.83325 8.50004 2.83325ZM16.125 5.87492C16.125 6.05902 15.9758 6.20825 15.7917 6.20825C15.6076 6.20825 15.4584 6.05902 15.4584 5.87492C15.4584 5.69082 15.6076 5.54159 15.7917 5.54159C15.9758 5.54159 16.125 5.69082 16.125 5.87492ZM9.04171 9.83325C9.04171 11.3751 10.2916 12.6249 11.8334 12.6249C13.3752 12.6249 14.625 11.3751 14.625 9.83325C14.625 8.29144 13.3752 7.04158 11.8334 7.04158C10.2916 7.04158 9.04171 8.29144 9.04171 9.83325Z" stroke="black"/>
</g>
<defs>
<filter id="filter0_d_623_754" x="0.333374" y="2.33325" width="23" height="23" filterUnits="userSpaceOnUse" color-interpolation-filters="sRGB">
<feFlood flood-opacity="0" result="BackgroundImageFix"/>
<feColorMatrix in="SourceAlpha" type="matrix" values="0 0 0 0 0 0 0 0 0 0 0 0 0 0 0 0 0 0 127 0" result="hardAlpha"/>
<feOffset dy="4"/>
<feGaussianBlur stdDeviation="2"/>
<feComposite in2="hardAlpha" operator="out"/>
<feColorMatrix type="matrix" values="0 0 0 0 0 0 0 0 0 0 0 0 0 0 0 0 0 0 0.25 0"/>
<feBlend mode="normal" in2="BackgroundImageFix" result="effect1_dropShadow_623_754"/>
<feBlend mode="normal" in="SourceGraphic" in2="effect1_dropShadow_623_754" result="shape"/>
</filter>
</defs>
</svg>
