<svg width="64" height="36" viewBox="0 0 64 36" fill="none" xmlns="http://www.w3.org/2000/svg">
<g filter="url(#filter0_d_335_5156)">
<mask id="path-1-outside-1_335_5156" maskUnits="userSpaceOnUse" x="16" y="3" width="32" height="25" fill="black">
<rect fill="white" x="16" y="3" width="32" height="25"/>
<path d="M23.0469 10.2188L21.2969 27H17.4688L21.2969 4.5H26.9688L32.2344 21.6719L37.5625 4.5H43.2344L46.4219 27H40.1094L38.25 10.6562L33.8594 27H28.1875L23.0469 10.2188Z"/>
</mask>
<path d="M23.0469 10.2188L21.2969 27H17.4688L21.2969 4.5H26.9688L32.2344 21.6719L37.5625 4.5H43.2344L46.4219 27H40.1094L38.25 10.6562L33.8594 27H28.1875L23.0469 10.2188Z" fill="white"/>
<path d="M23.0469 10.2188L24.003 9.92585L22.0523 10.115L23.0469 10.2188ZM21.2969 27V28H22.198L22.2915 27.1037L21.2969 27ZM17.4688 27L16.4829 26.8323L16.2842 28H17.4688V27ZM21.2969 4.5V3.5H20.4526L20.311 4.33227L21.2969 4.5ZM26.9688 4.5L27.9248 4.20683L27.7081 3.5H26.9688V4.5ZM32.2344 21.6719L31.2783 21.965L32.2287 25.0645L33.1895 21.9682L32.2344 21.6719ZM37.5625 4.5V3.5H36.8258L36.6074 4.20366L37.5625 4.5ZM43.2344 4.5L44.2245 4.35973L44.1027 3.5H43.2344V4.5ZM46.4219 27V28H47.5735L47.412 26.8597L46.4219 27ZM40.1094 27L39.1158 27.113L39.2167 28H40.1094V27ZM38.25 10.6562L39.2436 10.5432L37.2842 10.3968L38.25 10.6562ZM33.8594 27V28H34.6262L34.8251 27.2594L33.8594 27ZM28.1875 27L27.2314 27.2929L27.448 28H28.1875V27ZM22.0523 10.115L20.3023 26.8963L22.2915 27.1037L24.0415 10.3225L22.0523 10.115ZM21.2969 26H17.4688V28H21.2969V26ZM18.4546 27.1677L22.2827 4.66773L20.311 4.33227L16.4829 26.8323L18.4546 27.1677ZM21.2969 5.5H26.9688V3.5H21.2969V5.5ZM26.0127 4.79317L31.2783 21.965L33.1904 21.3787L27.9248 4.20683L26.0127 4.79317ZM33.1895 21.9682L38.5176 4.79634L36.6074 4.20366L31.2793 21.3755L33.1895 21.9682ZM37.5625 5.5H43.2344V3.5H37.5625V5.5ZM42.2443 4.64027L45.4318 27.1403L47.412 26.8597L44.2245 4.35973L42.2443 4.64027ZM46.4219 26H40.1094V28H46.4219V26ZM41.103 26.887L39.2436 10.5432L37.2564 10.7693L39.1158 27.113L41.103 26.887ZM37.2842 10.3968L32.8936 26.7406L34.8251 27.2594L39.2158 10.9157L37.2842 10.3968ZM33.8594 26H28.1875V28H33.8594V26ZM29.1436 26.7071L24.003 9.92585L22.0907 10.5116L27.2314 27.2929L29.1436 26.7071Z" fill="black" mask="url(#path-1-outside-1_335_5156)"/>
</g>
<defs>
<filter id="filter0_d_335_5156" x="13.4688" y="4.5" width="36.9531" height="30.5" filterUnits="userSpaceOnUse" color-interpolation-filters="sRGB">
<feFlood flood-opacity="0" result="BackgroundImageFix"/>
<feColorMatrix in="SourceAlpha" type="matrix" values="0 0 0 0 0 0 0 0 0 0 0 0 0 0 0 0 0 0 127 0" result="hardAlpha"/>
<feOffset dy="4"/>
<feGaussianBlur stdDeviation="2"/>
<feComposite in2="hardAlpha" operator="out"/>
<feColorMatrix type="matrix" values="0 0 0 0 0 0 0 0 0 0 0 0 0 0 0 0 0 0 1 0"/>
<feBlend mode="normal" in2="BackgroundImageFix" result="effect1_dropShadow_335_5156"/>
<feBlend mode="normal" in="SourceGraphic" in2="effect1_dropShadow_335_5156" result="shape"/>
</filter>
</defs>
</svg>
