<svg width="166" height="111" viewBox="0 0 166 111" fill="none" xmlns="http://www.w3.org/2000/svg">
<g clip-path="url(#clip0_1187_1103)">
<g filter="url(#filter0_d_1187_1103)">
<path d="M31.7109 35.0469L27.3359 77H17.7656L27.3359 20.75H41.5156L54.6797 63.6797L68 20.75H82.1797L90.1484 77H74.3672L69.7188 36.1406L58.7422 77H44.5625L31.7109 35.0469ZM115.93 77H100.422V20.75H115.93V47.5469C120.721 43.875 125.188 39.7995 129.328 35.3203C133.495 30.8411 137.076 25.9714 140.07 20.7109H150.656C147.896 25.4245 144.732 29.8255 141.164 33.9141C137.596 38.0026 133.716 41.7917 129.523 45.2812L151.984 77H135.812L118.898 53.0938C118.404 53.4323 117.909 53.7578 117.414 54.0703C116.945 54.3828 116.451 54.6953 115.93 55.0078V77Z" fill="url(#paint0_linear_1187_1103)"/>
</g>
<g filter="url(#filter1_d_1187_1103)">
<mask id="path-2-outside-1_1187_1103" maskUnits="userSpaceOnUse" x="10" y="43" width="146" height="51" fill="black">
<rect fill="white" x="10" y="43" width="146" height="51"/>
<path d="M54.3125 69.2031C54.3125 71.0625 54.0938 73 53.6562 75.0156C53.2188 77.0312 52.6016 79 51.8047 80.9219C51.0234 82.8281 50.0781 84.6328 48.9688 86.3359C47.8594 88.0391 46.625 89.5156 45.2656 90.7656L42.2891 89.1484C42.7422 88.3359 43.1562 87.4219 43.5312 86.4062C43.9062 85.3906 44.25 84.3203 44.5625 83.1953C44.875 82.0703 45.1484 80.9141 45.3828 79.7266C45.6172 78.5391 45.8125 77.3594 45.9688 76.1875C46.1406 75 46.2656 73.8516 46.3438 72.7422C46.4219 71.6328 46.4609 70.5938 46.4609 69.625C46.4609 69.0781 46.4453 68.4844 46.4141 67.8438C46.3828 67.2031 46.3125 66.5625 46.2031 65.9219C46.1094 65.2812 45.9609 64.6719 45.7578 64.0938C45.5547 63.5 45.2734 62.9766 44.9141 62.5234C44.5703 62.0547 44.1328 61.6875 43.6016 61.4219C43.0859 61.1406 42.4609 61 41.7266 61C41.0078 61 40.3906 61.1953 39.875 61.5859C39.375 61.9609 38.9453 62.4531 38.5859 63.0625C38.2266 63.6719 37.9375 64.3594 37.7188 65.125C37.5156 65.8906 37.3594 66.6641 37.25 67.4453C37.1406 68.2109 37.0625 68.9453 37.0156 69.6484C36.9844 70.3516 36.9688 70.9453 36.9688 71.4297V85H29.0703V72.3906C29.0703 71.8438 29.0781 71.1875 29.0938 70.4219C29.1094 69.6406 29.0859 68.8281 29.0234 67.9844C28.9766 67.1406 28.875 66.3047 28.7188 65.4766C28.5781 64.6328 28.3438 63.8828 28.0156 63.2266C27.7031 62.5703 27.2734 62.0391 26.7266 61.6328C26.1797 61.2109 25.4922 61 24.6641 61C23.9609 61 23.3672 61.1953 22.8828 61.5859C22.4141 61.9766 22.0156 62.4844 21.6875 63.1094C21.375 63.7188 21.125 64.4141 20.9375 65.1953C20.7656 65.9609 20.6328 66.7344 20.5391 67.5156C20.4609 68.2812 20.4141 69.0156 20.3984 69.7188C20.3828 70.4062 20.375 70.9766 20.375 71.4297V85H12.4297V57.9297H15.4766L18.3828 64.2344C19.0391 62.0469 20.0703 60.3438 21.4766 59.125C22.8984 57.8906 24.7812 57.2734 27.125 57.2734C29.2344 57.2734 30.9844 57.7109 32.375 58.5859C33.7656 59.4609 34.8594 60.8828 35.6562 62.8516C36.1094 61.9922 36.6094 61.2188 37.1562 60.5312C37.7188 59.8438 38.3359 59.2578 39.0078 58.7734C39.6953 58.2891 40.4531 57.9219 41.2812 57.6719C42.1094 57.4062 43.0234 57.2734 44.0234 57.2734C45.8672 57.2734 47.4375 57.5781 48.7344 58.1875C50.0469 58.7812 51.1172 59.6094 51.9453 60.6719C52.7734 61.7344 53.375 63 53.75 64.4688C54.125 65.9219 54.3125 67.5 54.3125 69.2031ZM66.1016 72.1562C67.0703 72.375 68.0391 72.5469 69.0078 72.6719C69.9766 72.7969 70.9531 72.8594 71.9375 72.8594C72.9688 72.8594 73.9219 72.7656 74.7969 72.5781C75.6875 72.375 76.4531 72.0469 77.0938 71.5938C77.75 71.125 78.2656 70.5078 78.6406 69.7422C79.0156 68.9766 79.2031 68.0234 79.2031 66.8828C79.2031 65.9609 79.0781 65.1172 78.8281 64.3516C78.5781 63.5859 78.2031 62.9297 77.7031 62.3828C77.2188 61.8359 76.6172 61.4141 75.8984 61.1172C75.1797 60.8047 74.3438 60.6484 73.3906 60.6484C72.5 60.6484 71.6953 60.8125 70.9766 61.1406C70.2734 61.4688 69.6484 61.9141 69.1016 62.4766C68.5703 63.0234 68.1094 63.6641 67.7188 64.3984C67.3438 65.1328 67.0312 65.8984 66.7812 66.6953C66.5312 67.4922 66.3516 68.2969 66.2422 69.1094C66.1328 69.9219 66.0781 70.6875 66.0781 71.4062C66.0781 71.5312 66.0781 71.6562 66.0781 71.7812C66.0781 71.9062 66.0859 72.0312 66.1016 72.1562ZM85.625 66.8125C85.625 67.9219 85.4453 68.9141 85.0859 69.7891C84.7266 70.6484 84.2344 71.4062 83.6094 72.0625C83 72.7188 82.2891 73.2734 81.4766 73.7266C80.6641 74.1797 79.7969 74.5547 78.875 74.8516C77.9531 75.1328 77 75.3359 76.0156 75.4609C75.0469 75.5859 74.1016 75.6484 73.1797 75.6484C72.0078 75.6484 70.8516 75.5703 69.7109 75.4141C68.5703 75.2422 67.4453 74.9766 66.3359 74.6172C66.5078 75.6484 66.7812 76.6328 67.1562 77.5703C67.5312 78.4922 68.0312 79.3047 68.6562 80.0078C69.2812 80.6953 70.0469 81.2422 70.9531 81.6484C71.875 82.0547 72.9609 82.2578 74.2109 82.2578C75.0391 82.2578 75.8281 82.1328 76.5781 81.8828C77.3281 81.6328 78.0156 81.2812 78.6406 80.8281C79.2656 80.375 79.8125 79.8359 80.2812 79.2109C80.7656 78.5859 81.1562 77.8906 81.4531 77.125L84.875 78.3906C84.3594 79.625 83.6484 80.6953 82.7422 81.6016C81.8516 82.4922 80.8359 83.2344 79.6953 83.8281C78.5703 84.4062 77.3672 84.8359 76.0859 85.1172C74.8203 85.3984 73.5625 85.5391 72.3125 85.5391C70.25 85.5391 68.3438 85.1953 66.5938 84.5078C64.8438 83.8047 63.3359 82.8281 62.0703 81.5781C60.8047 80.3281 59.8125 78.8359 59.0938 77.1016C58.375 75.3672 58.0156 73.4688 58.0156 71.4062C58.0156 69.3438 58.375 67.4453 59.0938 65.7109C59.8125 63.9766 60.8047 62.4844 62.0703 61.2344C63.3359 59.9844 64.8438 59.0156 66.5938 58.3281C68.3438 57.625 70.25 57.2734 72.3125 57.2734C73.3125 57.2734 74.3359 57.3438 75.3828 57.4844C76.4297 57.625 77.4453 57.8516 78.4297 58.1641C79.4141 58.4609 80.3438 58.8516 81.2188 59.3359C82.0938 59.8203 82.8516 60.4219 83.4922 61.1406C84.1484 61.8438 84.6641 62.6641 85.0391 63.6016C85.4297 64.5391 85.625 65.6094 85.625 66.8125ZM100.766 85H92.8203V61.0703H87.8984V57.9297H92.8203V47.9688H100.766V57.9297H108.969V61.0703H100.766V85ZM139.016 85H131.094V81.7656C130.156 83.0469 129.023 84 127.695 84.625C126.383 85.2344 124.938 85.5391 123.359 85.5391C121.297 85.5391 119.453 85.1719 117.828 84.4375C116.203 83.7031 114.828 82.7031 113.703 81.4375C112.578 80.1562 111.719 78.6562 111.125 76.9375C110.531 75.2188 110.234 73.375 110.234 71.4062C110.234 69.4375 110.531 67.5938 111.125 65.875C111.719 64.1562 112.578 62.6641 113.703 61.3984C114.828 60.1172 116.203 59.1094 117.828 58.375C119.453 57.6406 121.297 57.2734 123.359 57.2734C124.406 57.2734 125.398 57.4297 126.336 57.7422C127.289 58.0547 128.156 58.5 128.938 59.0781C129.734 59.6406 130.43 60.3281 131.023 61.1406C131.633 61.9375 132.109 62.8281 132.453 63.8125L135.969 57.9297H139.016V85ZM131.047 71.4062C131.047 70.7031 131.008 69.9609 130.93 69.1797C130.867 68.3984 130.75 67.625 130.578 66.8594C130.406 66.0938 130.164 65.3672 129.852 64.6797C129.555 63.9766 129.164 63.3594 128.68 62.8281C128.211 62.2812 127.641 61.8516 126.969 61.5391C126.297 61.2266 125.516 61.0703 124.625 61.0703C123.734 61.0703 122.961 61.2344 122.305 61.5625C121.648 61.875 121.086 62.3047 120.617 62.8516C120.148 63.3828 119.758 64 119.445 64.7031C119.148 65.4062 118.914 66.1406 118.742 66.9062C118.57 67.6719 118.445 68.4453 118.367 69.2266C118.305 69.9922 118.273 70.7188 118.273 71.4062C118.273 72.0938 118.305 72.8281 118.367 73.6094C118.445 74.3906 118.57 75.1641 118.742 75.9297C118.914 76.6953 119.148 77.4297 119.445 78.1328C119.758 78.8359 120.148 79.4609 120.617 80.0078C121.086 80.5391 121.648 80.9688 122.305 81.2969C122.961 81.6094 123.734 81.7656 124.625 81.7656C125.438 81.7656 126.156 81.6016 126.781 81.2734C127.422 80.9297 127.977 80.4766 128.445 79.9141C128.93 79.3516 129.336 78.7109 129.664 77.9922C129.992 77.2734 130.258 76.5312 130.461 75.7656C130.664 75 130.812 74.2422 130.906 73.4922C131 72.7266 131.047 72.0312 131.047 71.4062ZM153.57 85H145.648V45.4609H148.695L153.57 53.6875V85Z"/>
</mask>
<path d="M54.3125 69.2031C54.3125 71.0625 54.0938 73 53.6562 75.0156C53.2188 77.0312 52.6016 79 51.8047 80.9219C51.0234 82.8281 50.0781 84.6328 48.9688 86.3359C47.8594 88.0391 46.625 89.5156 45.2656 90.7656L42.2891 89.1484C42.7422 88.3359 43.1562 87.4219 43.5312 86.4062C43.9062 85.3906 44.25 84.3203 44.5625 83.1953C44.875 82.0703 45.1484 80.9141 45.3828 79.7266C45.6172 78.5391 45.8125 77.3594 45.9688 76.1875C46.1406 75 46.2656 73.8516 46.3438 72.7422C46.4219 71.6328 46.4609 70.5938 46.4609 69.625C46.4609 69.0781 46.4453 68.4844 46.4141 67.8438C46.3828 67.2031 46.3125 66.5625 46.2031 65.9219C46.1094 65.2812 45.9609 64.6719 45.7578 64.0938C45.5547 63.5 45.2734 62.9766 44.9141 62.5234C44.5703 62.0547 44.1328 61.6875 43.6016 61.4219C43.0859 61.1406 42.4609 61 41.7266 61C41.0078 61 40.3906 61.1953 39.875 61.5859C39.375 61.9609 38.9453 62.4531 38.5859 63.0625C38.2266 63.6719 37.9375 64.3594 37.7188 65.125C37.5156 65.8906 37.3594 66.6641 37.25 67.4453C37.1406 68.2109 37.0625 68.9453 37.0156 69.6484C36.9844 70.3516 36.9688 70.9453 36.9688 71.4297V85H29.0703V72.3906C29.0703 71.8438 29.0781 71.1875 29.0938 70.4219C29.1094 69.6406 29.0859 68.8281 29.0234 67.9844C28.9766 67.1406 28.875 66.3047 28.7188 65.4766C28.5781 64.6328 28.3438 63.8828 28.0156 63.2266C27.7031 62.5703 27.2734 62.0391 26.7266 61.6328C26.1797 61.2109 25.4922 61 24.6641 61C23.9609 61 23.3672 61.1953 22.8828 61.5859C22.4141 61.9766 22.0156 62.4844 21.6875 63.1094C21.375 63.7188 21.125 64.4141 20.9375 65.1953C20.7656 65.9609 20.6328 66.7344 20.5391 67.5156C20.4609 68.2812 20.4141 69.0156 20.3984 69.7188C20.3828 70.4062 20.375 70.9766 20.375 71.4297V85H12.4297V57.9297H15.4766L18.3828 64.2344C19.0391 62.0469 20.0703 60.3438 21.4766 59.125C22.8984 57.8906 24.7812 57.2734 27.125 57.2734C29.2344 57.2734 30.9844 57.7109 32.375 58.5859C33.7656 59.4609 34.8594 60.8828 35.6562 62.8516C36.1094 61.9922 36.6094 61.2188 37.1562 60.5312C37.7188 59.8438 38.3359 59.2578 39.0078 58.7734C39.6953 58.2891 40.4531 57.9219 41.2812 57.6719C42.1094 57.4062 43.0234 57.2734 44.0234 57.2734C45.8672 57.2734 47.4375 57.5781 48.7344 58.1875C50.0469 58.7812 51.1172 59.6094 51.9453 60.6719C52.7734 61.7344 53.375 63 53.75 64.4688C54.125 65.9219 54.3125 67.5 54.3125 69.2031ZM66.1016 72.1562C67.0703 72.375 68.0391 72.5469 69.0078 72.6719C69.9766 72.7969 70.9531 72.8594 71.9375 72.8594C72.9688 72.8594 73.9219 72.7656 74.7969 72.5781C75.6875 72.375 76.4531 72.0469 77.0938 71.5938C77.75 71.125 78.2656 70.5078 78.6406 69.7422C79.0156 68.9766 79.2031 68.0234 79.2031 66.8828C79.2031 65.9609 79.0781 65.1172 78.8281 64.3516C78.5781 63.5859 78.2031 62.9297 77.7031 62.3828C77.2188 61.8359 76.6172 61.4141 75.8984 61.1172C75.1797 60.8047 74.3438 60.6484 73.3906 60.6484C72.5 60.6484 71.6953 60.8125 70.9766 61.1406C70.2734 61.4688 69.6484 61.9141 69.1016 62.4766C68.5703 63.0234 68.1094 63.6641 67.7188 64.3984C67.3438 65.1328 67.0312 65.8984 66.7812 66.6953C66.5312 67.4922 66.3516 68.2969 66.2422 69.1094C66.1328 69.9219 66.0781 70.6875 66.0781 71.4062C66.0781 71.5312 66.0781 71.6562 66.0781 71.7812C66.0781 71.9062 66.0859 72.0312 66.1016 72.1562ZM85.625 66.8125C85.625 67.9219 85.4453 68.9141 85.0859 69.7891C84.7266 70.6484 84.2344 71.4062 83.6094 72.0625C83 72.7188 82.2891 73.2734 81.4766 73.7266C80.6641 74.1797 79.7969 74.5547 78.875 74.8516C77.9531 75.1328 77 75.3359 76.0156 75.4609C75.0469 75.5859 74.1016 75.6484 73.1797 75.6484C72.0078 75.6484 70.8516 75.5703 69.7109 75.4141C68.5703 75.2422 67.4453 74.9766 66.3359 74.6172C66.5078 75.6484 66.7812 76.6328 67.1562 77.5703C67.5312 78.4922 68.0312 79.3047 68.6562 80.0078C69.2812 80.6953 70.0469 81.2422 70.9531 81.6484C71.875 82.0547 72.9609 82.2578 74.2109 82.2578C75.0391 82.2578 75.8281 82.1328 76.5781 81.8828C77.3281 81.6328 78.0156 81.2812 78.6406 80.8281C79.2656 80.375 79.8125 79.8359 80.2812 79.2109C80.7656 78.5859 81.1562 77.8906 81.4531 77.125L84.875 78.3906C84.3594 79.625 83.6484 80.6953 82.7422 81.6016C81.8516 82.4922 80.8359 83.2344 79.6953 83.8281C78.5703 84.4062 77.3672 84.8359 76.0859 85.1172C74.8203 85.3984 73.5625 85.5391 72.3125 85.5391C70.25 85.5391 68.3438 85.1953 66.5938 84.5078C64.8438 83.8047 63.3359 82.8281 62.0703 81.5781C60.8047 80.3281 59.8125 78.8359 59.0938 77.1016C58.375 75.3672 58.0156 73.4688 58.0156 71.4062C58.0156 69.3438 58.375 67.4453 59.0938 65.7109C59.8125 63.9766 60.8047 62.4844 62.0703 61.2344C63.3359 59.9844 64.8438 59.0156 66.5938 58.3281C68.3438 57.625 70.25 57.2734 72.3125 57.2734C73.3125 57.2734 74.3359 57.3438 75.3828 57.4844C76.4297 57.625 77.4453 57.8516 78.4297 58.1641C79.4141 58.4609 80.3438 58.8516 81.2188 59.3359C82.0938 59.8203 82.8516 60.4219 83.4922 61.1406C84.1484 61.8438 84.6641 62.6641 85.0391 63.6016C85.4297 64.5391 85.625 65.6094 85.625 66.8125ZM100.766 85H92.8203V61.0703H87.8984V57.9297H92.8203V47.9688H100.766V57.9297H108.969V61.0703H100.766V85ZM139.016 85H131.094V81.7656C130.156 83.0469 129.023 84 127.695 84.625C126.383 85.2344 124.938 85.5391 123.359 85.5391C121.297 85.5391 119.453 85.1719 117.828 84.4375C116.203 83.7031 114.828 82.7031 113.703 81.4375C112.578 80.1562 111.719 78.6562 111.125 76.9375C110.531 75.2188 110.234 73.375 110.234 71.4062C110.234 69.4375 110.531 67.5938 111.125 65.875C111.719 64.1562 112.578 62.6641 113.703 61.3984C114.828 60.1172 116.203 59.1094 117.828 58.375C119.453 57.6406 121.297 57.2734 123.359 57.2734C124.406 57.2734 125.398 57.4297 126.336 57.7422C127.289 58.0547 128.156 58.5 128.938 59.0781C129.734 59.6406 130.43 60.3281 131.023 61.1406C131.633 61.9375 132.109 62.8281 132.453 63.8125L135.969 57.9297H139.016V85ZM131.047 71.4062C131.047 70.7031 131.008 69.9609 130.93 69.1797C130.867 68.3984 130.75 67.625 130.578 66.8594C130.406 66.0938 130.164 65.3672 129.852 64.6797C129.555 63.9766 129.164 63.3594 128.68 62.8281C128.211 62.2812 127.641 61.8516 126.969 61.5391C126.297 61.2266 125.516 61.0703 124.625 61.0703C123.734 61.0703 122.961 61.2344 122.305 61.5625C121.648 61.875 121.086 62.3047 120.617 62.8516C120.148 63.3828 119.758 64 119.445 64.7031C119.148 65.4062 118.914 66.1406 118.742 66.9062C118.57 67.6719 118.445 68.4453 118.367 69.2266C118.305 69.9922 118.273 70.7188 118.273 71.4062C118.273 72.0938 118.305 72.8281 118.367 73.6094C118.445 74.3906 118.57 75.1641 118.742 75.9297C118.914 76.6953 119.148 77.4297 119.445 78.1328C119.758 78.8359 120.148 79.4609 120.617 80.0078C121.086 80.5391 121.648 80.9688 122.305 81.2969C122.961 81.6094 123.734 81.7656 124.625 81.7656C125.438 81.7656 126.156 81.6016 126.781 81.2734C127.422 80.9297 127.977 80.4766 128.445 79.9141C128.93 79.3516 129.336 78.7109 129.664 77.9922C129.992 77.2734 130.258 76.5312 130.461 75.7656C130.664 75 130.812 74.2422 130.906 73.4922C131 72.7266 131.047 72.0312 131.047 71.4062ZM153.57 85H145.648V45.4609H148.695L153.57 53.6875V85Z" fill="#FFDAB9" fill-opacity="0.75" shape-rendering="crispEdges"/>
<path d="M51.8047 80.9219L49.9572 80.1558L49.9541 80.1634L51.8047 80.9219ZM45.2656 90.7656L44.3108 92.523L45.567 93.2055L46.6194 92.2378L45.2656 90.7656ZM42.2891 89.1484L40.5423 88.1743L39.5574 89.9404L41.3343 90.9058L42.2891 89.1484ZM45.9688 76.1875L43.9894 75.901L43.9878 75.9121L43.9863 75.9232L45.9688 76.1875ZM46.2031 65.9219L44.2242 66.2115L44.2276 66.235L44.2317 66.2585L46.2031 65.9219ZM45.7578 64.0938L43.8655 64.7411L43.8682 64.7489L43.8709 64.7567L45.7578 64.0938ZM44.9141 62.5234L43.3013 63.7062L43.3236 63.7366L43.3471 63.7662L44.9141 62.5234ZM43.6016 61.4219L42.6439 63.1777L42.6752 63.1948L42.7071 63.2107L43.6016 61.4219ZM39.875 61.5859L41.075 63.186L41.0827 63.1801L39.875 61.5859ZM37.7188 65.125L35.7957 64.5756L35.7905 64.5938L35.7856 64.6121L37.7188 65.125ZM37.25 67.4453L39.2299 67.7282L39.2307 67.7226L37.25 67.4453ZM37.0156 69.6484L35.0201 69.5154L35.0186 69.5375L35.0176 69.5596L37.0156 69.6484ZM36.9688 85V87H38.9688V85H36.9688ZM29.0703 85H27.0703V87H29.0703V85ZM29.0938 70.4219L31.0933 70.4627L31.0934 70.4619L29.0938 70.4219ZM29.0234 67.9844L27.0265 68.0953L27.0275 68.1137L27.0289 68.1321L29.0234 67.9844ZM28.7188 65.4766L26.746 65.8054L26.7495 65.8264L26.7534 65.8474L28.7188 65.4766ZM28.0156 63.2266L26.2099 64.0864L26.2182 64.1038L26.2268 64.121L28.0156 63.2266ZM26.7266 61.6328L25.505 63.2164L25.5193 63.2275L25.5339 63.2383L26.7266 61.6328ZM22.8828 61.5859L21.6273 60.0291L21.6148 60.0392L21.6024 60.0495L22.8828 61.5859ZM21.6875 63.1094L19.9167 62.1797L19.9122 62.1882L19.9079 62.1967L21.6875 63.1094ZM20.9375 65.1953L18.9927 64.7286L18.9893 64.7429L18.9861 64.7572L20.9375 65.1953ZM20.5391 67.5156L18.5533 67.2773L18.5512 67.2949L18.5494 67.3126L20.5391 67.5156ZM20.3984 69.7188L22.3979 69.7642L22.3979 69.7632L20.3984 69.7188ZM20.375 85V87H22.375V85H20.375ZM12.4297 85H10.4297V87H12.4297V85ZM12.4297 57.9297V55.9297H10.4297V57.9297H12.4297ZM15.4766 57.9297L17.2929 57.0924L16.7569 55.9297H15.4766V57.9297ZM18.3828 64.2344L16.5665 65.0716L18.7795 69.8724L20.2985 64.8091L18.3828 64.2344ZM21.4766 59.125L22.7864 60.6364L22.7877 60.6353L21.4766 59.125ZM35.6562 62.8516L33.8024 63.6019L35.4175 67.5924L37.4254 63.7844L35.6562 62.8516ZM37.1562 60.5312L35.6083 59.2648L35.5996 59.2754L35.591 59.2862L37.1562 60.5312ZM39.0078 58.7734L37.8559 57.1385L37.847 57.1447L37.8382 57.1511L39.0078 58.7734ZM41.2812 57.6719L41.8593 59.5865L41.8757 59.5816L41.8921 59.5763L41.2812 57.6719ZM48.7344 58.1875L47.8838 59.9976L47.8969 60.0038L47.91 60.0097L48.7344 58.1875ZM53.75 64.4688L51.8122 64.9635L51.8134 64.9685L53.75 64.4688ZM52.3125 69.2031C52.3125 70.9054 52.1123 72.7002 51.7018 74.5914L55.6107 75.4399C56.0752 73.2998 56.3125 71.2196 56.3125 69.2031H52.3125ZM51.7018 74.5914C51.2899 76.4891 50.7087 78.3435 49.9572 80.1558L53.6522 81.6879C54.4945 79.6565 55.1476 77.5734 55.6107 75.4399L51.7018 74.5914ZM49.9541 80.1634C49.2198 81.955 48.3328 83.6479 47.2929 85.2443L50.6446 87.4275C51.8235 85.6177 52.827 83.7013 53.6553 81.6803L49.9541 80.1634ZM47.2929 85.2443C46.2656 86.8215 45.1368 88.167 43.9119 89.2934L46.6194 92.2378C48.1132 90.8642 49.4532 89.2566 50.6446 87.4275L47.2929 85.2443ZM46.2204 89.0082L43.2439 87.3911L41.3343 90.9058L44.3108 92.523L46.2204 89.0082ZM44.0358 90.1226C44.5466 89.2066 45.0023 88.1963 45.4074 87.099L41.6551 85.7135C41.3102 86.6474 40.9377 87.4653 40.5423 88.1743L44.0358 90.1226ZM45.4074 87.099C45.803 86.0278 46.1634 84.9047 46.4895 83.7306L42.6355 82.66C42.3366 83.736 42.0095 84.7535 41.6551 85.7135L45.4074 87.099ZM46.4895 83.7306C46.8161 82.555 47.1011 81.3493 47.345 80.1138L43.4207 79.3393C43.1958 80.4788 42.9339 81.5856 42.6355 82.66L46.4895 83.7306ZM47.345 80.1138C47.5872 78.8865 47.7893 77.6658 47.9512 76.4518L43.9863 75.9232C43.8357 77.0529 43.6472 78.1916 43.4207 79.3393L47.345 80.1138ZM47.9481 76.474C48.1265 75.2418 48.257 74.0445 48.3388 72.8827L44.3487 72.6017C44.2743 73.6586 44.1548 74.7582 43.9894 75.901L47.9481 76.474ZM48.3388 72.8827C48.4198 71.7332 48.4609 70.6469 48.4609 69.625H44.4609C44.4609 70.5406 44.424 71.5324 44.3487 72.6017L48.3388 72.8827ZM48.4609 69.625C48.4609 69.0407 48.4443 68.414 48.4117 67.7463L44.4164 67.9412C44.4464 68.5547 44.4609 69.1156 44.4609 69.625H48.4609ZM48.4117 67.7463C48.3765 67.0245 48.2973 66.304 48.1746 65.5853L44.2317 66.2585C44.3277 66.821 44.3891 67.3818 44.4164 67.9412L48.4117 67.7463ZM48.182 65.6323C48.0707 64.8717 47.8928 64.1367 47.6447 63.4308L43.8709 64.7567C44.0291 65.207 44.148 65.6908 44.2242 66.2115L48.182 65.6323ZM47.6501 63.4464C47.3795 62.6554 46.9936 61.9269 46.4811 61.2806L43.3471 63.7662C43.5533 64.0263 43.7298 64.3446 43.8655 64.7411L47.6501 63.4464ZM46.5269 61.3407C45.991 60.61 45.305 60.0375 44.496 59.633L42.7071 63.2107C42.9606 63.3375 43.1496 63.4994 43.3013 63.7062L46.5269 61.3407ZM44.5593 59.6661C43.6852 59.1893 42.7132 59 41.7266 59V63C42.2087 63 42.4867 63.0919 42.6439 63.1777L44.5593 59.6661ZM41.7266 59C40.6228 59 39.5691 59.3086 38.6673 59.9918L41.0827 63.1801C41.2122 63.0821 41.3928 63 41.7266 63V59ZM38.675 59.9859C37.9379 60.5388 37.339 61.2398 36.8632 62.0465L40.3087 64.0785C40.5516 63.6665 40.8121 63.3831 41.075 63.1859L38.675 59.9859ZM36.8632 62.0465C36.4075 62.8193 36.0554 63.6667 35.7957 64.5756L39.6418 65.6744C39.8196 65.0521 40.0456 64.5245 40.3087 64.0785L36.8632 62.0465ZM35.7856 64.6121C35.562 65.4549 35.3899 66.307 35.2693 67.168L39.2307 67.7226C39.3289 67.0211 39.4692 66.3263 39.6519 65.6379L35.7856 64.6121ZM35.2701 67.1625C35.1543 67.9731 35.0706 68.7576 35.0201 69.5154L39.0112 69.7815C39.0544 69.133 39.127 68.4488 39.2299 67.7282L35.2701 67.1625ZM35.0176 69.5596C34.9856 70.2804 34.9688 70.9058 34.9688 71.4297H38.9688C38.9688 70.9849 38.9832 70.4227 39.0137 69.7372L35.0176 69.5596ZM34.9688 71.4297V85H38.9688V71.4297H34.9688ZM36.9688 83H29.0703V87H36.9688V83ZM31.0703 85V72.3906H27.0703V85H31.0703ZM31.0703 72.3906C31.0703 71.8615 31.0779 71.2196 31.0933 70.4627L27.0942 70.3811C27.0784 71.1554 27.0703 71.826 27.0703 72.3906H31.0703ZM31.0934 70.4619C31.1103 69.6131 31.0847 68.7378 31.018 67.8366L27.0289 68.1321C27.0872 68.9185 27.1084 69.6681 27.0941 70.3819L31.0934 70.4619ZM31.0204 67.8734C30.9687 66.9427 30.8566 66.02 30.6841 65.1057L26.7534 65.8474C26.8934 66.5894 26.9845 67.3385 27.0265 68.0953L31.0204 67.8734ZM30.6915 65.1478C30.5234 64.1392 30.2351 63.1934 29.8045 62.3321L26.2268 64.121C26.4524 64.5722 26.6328 65.1265 26.746 65.8054L30.6915 65.1478ZM29.8213 62.3667C29.3781 61.4359 28.7457 60.6413 27.9192 60.0273L25.5339 63.2383C25.8011 63.4368 26.0282 63.7047 26.2099 64.0864L29.8213 62.3667ZM27.9482 60.0492C26.9856 59.3067 25.8434 59 24.6641 59V63C25.1409 63 25.3737 63.1152 25.505 63.2164L27.9482 60.0492ZM24.6641 59C23.5669 59 22.5132 59.3147 21.6273 60.0291L24.1383 63.1428C24.2211 63.076 24.355 63 24.6641 63V59ZM21.6024 60.0495C20.9029 60.6325 20.3479 61.3583 19.9167 62.1797L23.4583 64.039C23.6833 63.6105 23.9253 63.3206 24.1632 63.1224L21.6024 60.0495ZM19.9079 62.1967C19.5116 62.9695 19.2111 63.8186 18.9927 64.7286L22.8823 65.6621C23.0389 65.0096 23.2384 64.468 23.4671 64.022L19.9079 62.1967ZM18.9861 64.7572C18.7993 65.589 18.6551 66.4291 18.5533 67.2773L22.5248 67.7539C22.6105 67.0396 22.7319 66.3329 22.8889 65.6334L18.9861 64.7572ZM18.5494 67.3126C18.4664 68.1261 18.4158 68.9136 18.3989 69.6743L22.3979 69.7632C22.4123 69.1177 22.4555 68.4364 22.5287 67.7187L18.5494 67.3126ZM18.399 69.6733C18.3831 70.3691 18.375 70.9558 18.375 71.4297H22.375C22.375 70.9973 22.3825 70.4434 22.3979 69.7642L18.399 69.6733ZM18.375 71.4297V85H22.375V71.4297H18.375ZM20.375 83H12.4297V87H20.375V83ZM14.4297 85V57.9297H10.4297V85H14.4297ZM12.4297 59.9297H15.4766V55.9297H12.4297V59.9297ZM13.6602 58.7669L16.5665 65.0716L20.1991 63.3971L17.2929 57.0924L13.6602 58.7669ZM20.2985 64.8091C20.8705 62.9021 21.7258 61.5556 22.7864 60.6364L20.1667 57.6136C18.4148 59.1319 17.2076 61.1916 16.4672 63.6597L20.2985 64.8091ZM22.7877 60.6353C23.7631 59.7885 25.1409 59.2734 27.125 59.2734V55.2734C24.4216 55.2734 22.0338 55.9927 20.1654 57.6147L22.7877 60.6353ZM27.125 59.2734C28.9631 59.2734 30.3172 59.6541 31.3099 60.2787L33.4401 56.8932C31.6516 55.7678 29.5057 55.2734 27.125 55.2734V59.2734ZM31.3099 60.2787C32.2538 60.8726 33.1169 61.9085 33.8024 63.6019L37.5101 62.1012C36.6018 59.8571 35.2775 58.0493 33.4401 56.8932L31.3099 60.2787ZM37.4254 63.7844C37.8264 63.0238 38.2598 62.3567 38.7215 61.7763L35.591 59.2862C34.959 60.0808 34.3923 60.9606 33.8871 61.9187L37.4254 63.7844ZM38.7042 61.7977C39.1645 61.2351 39.6564 60.7714 40.1774 60.3958L37.8382 57.1511C37.0155 57.7442 36.273 58.4524 35.6083 59.2648L38.7042 61.7977ZM40.1597 60.4084C40.6671 60.0509 41.2302 59.7764 41.8593 59.5865L40.7032 55.7572C39.676 56.0673 38.7235 56.5272 37.8559 57.1385L40.1597 60.4084ZM41.8921 59.5763C42.4957 59.3827 43.2003 59.2734 44.0234 59.2734V55.2734C42.8466 55.2734 41.723 55.4298 40.6704 55.7674L41.8921 59.5763ZM44.0234 59.2734C45.6544 59.2734 46.9179 59.5438 47.8838 59.9976L49.5849 56.3774C47.9571 55.6125 46.08 55.2734 44.0234 55.2734V59.2734ZM47.91 60.0097C48.9482 60.4794 49.7528 61.1122 50.3679 61.9014L53.5228 59.4424C52.4816 58.1066 51.1455 57.0831 49.5587 56.3653L47.91 60.0097ZM50.3679 61.9014C51.0065 62.7207 51.4968 63.7284 51.8122 64.9635L55.6878 63.974C55.2532 62.2716 54.5404 60.748 53.5228 59.4424L50.3679 61.9014ZM51.8134 64.9685C52.1411 66.2382 52.3125 67.6464 52.3125 69.2031H56.3125C56.3125 67.3536 56.1089 65.6056 55.6866 63.969L51.8134 64.9685ZM66.1016 72.1562L64.117 72.4043L64.2912 73.7978L65.661 74.1071L66.1016 72.1562ZM74.7969 72.5781L75.2159 74.5337L75.2288 74.531L75.2416 74.5281L74.7969 72.5781ZM77.0938 71.5938L78.2487 73.2266L78.2562 73.2212L77.0938 71.5938ZM77.7031 62.3828L76.2059 63.7089L76.2164 63.7207L76.2271 63.7324L77.7031 62.3828ZM75.8984 61.1172L75.101 62.9513L75.1179 62.9587L75.1349 62.9657L75.8984 61.1172ZM70.9766 61.1406L70.146 59.3212L70.1384 59.3247L70.1308 59.3283L70.9766 61.1406ZM69.1016 62.4766L67.6676 61.0824L67.667 61.083L69.1016 62.4766ZM67.7188 64.3984L65.953 63.4592L65.9451 63.474L65.9375 63.4889L67.7188 64.3984ZM85.0859 69.7891L86.9311 70.5607L86.936 70.5489L85.0859 69.7891ZM83.6094 72.0625L82.1611 70.6832L82.1524 70.6923L82.1438 70.7016L83.6094 72.0625ZM78.875 74.8516L79.4586 76.7645L79.4734 76.76L79.4881 76.7553L78.875 74.8516ZM76.0156 75.4609L75.7637 73.4769L75.7597 73.4774L76.0156 75.4609ZM69.7109 75.4141L69.4129 77.3917L69.4262 77.3937L69.4395 77.3956L69.7109 75.4141ZM66.3359 74.6172L66.9523 72.7145L63.8222 71.7006L64.3631 74.946L66.3359 74.6172ZM67.1562 77.5703L65.2993 78.3131L65.3037 78.3239L67.1562 77.5703ZM68.6562 80.0078L67.1614 81.3365L67.1689 81.3449L67.1764 81.3532L68.6562 80.0078ZM70.9531 81.6484L70.135 83.4735L70.1466 83.4786L70.9531 81.6484ZM80.2812 79.2109L78.7004 77.9858L78.6907 77.9983L78.6812 78.0109L80.2812 79.2109ZM81.4531 77.125L82.1469 75.2492L80.3002 74.5662L79.5884 76.4019L81.4531 77.125ZM84.875 78.3906L86.7205 79.1615L87.524 77.238L85.5688 76.5148L84.875 78.3906ZM79.6953 83.8281L80.6095 85.607L80.6188 85.6022L79.6953 83.8281ZM76.0859 85.1172L75.6571 83.1637L75.6521 83.1648L76.0859 85.1172ZM66.5938 84.5078L65.8481 86.3636L65.8553 86.3665L65.8624 86.3693L66.5938 84.5078ZM66.5938 58.3281L67.3251 60.1896L67.3322 60.1868L67.3394 60.1839L66.5938 58.3281ZM78.4297 58.1641L77.8245 60.0703L77.8383 60.0747L77.8522 60.0789L78.4297 58.1641ZM83.4922 61.1406L81.9992 62.4714L82.0144 62.4885L82.0301 62.5053L83.4922 61.1406ZM85.0391 63.6016L83.1821 64.3443L83.1874 64.3576L83.1929 64.3708L85.0391 63.6016ZM65.661 74.1071C66.6898 74.3394 67.7201 74.5223 68.7519 74.6554L69.2638 70.6883C68.358 70.5715 67.4509 70.4106 66.5421 70.2054L65.661 74.1071ZM68.7519 74.6554C69.8062 74.7915 70.8682 74.8594 71.9375 74.8594V70.8594C71.038 70.8594 70.147 70.8023 69.2638 70.6883L68.7519 74.6554ZM71.9375 74.8594C73.0888 74.8594 74.1842 74.7548 75.2159 74.5337L74.3778 70.6225C73.6595 70.7764 72.8487 70.8594 71.9375 70.8594V74.8594ZM75.2416 74.5281C76.3461 74.2762 77.3622 73.8536 78.2487 73.2266L75.9388 69.9609C75.544 70.2402 75.0289 70.4738 74.3522 70.6282L75.2416 74.5281ZM78.2562 73.2212C79.1979 72.5486 79.9244 71.6679 80.4368 70.6219L76.8445 68.8625C76.6068 69.3477 76.3021 69.7014 75.9313 69.9663L78.2562 73.2212ZM80.4368 70.6219C80.9833 69.5061 81.2031 68.2301 81.2031 66.8828H77.2031C77.2031 67.8167 77.048 68.447 76.8445 68.8625L80.4368 70.6219ZM81.2031 66.8828C81.2031 65.78 81.0535 64.7234 80.7293 63.7308L76.9269 64.9724C77.1028 65.5109 77.2031 66.1418 77.2031 66.8828H81.2031ZM80.7293 63.7308C80.3988 62.7185 79.8873 61.8078 79.1792 61.0333L76.2271 63.7324C76.5189 64.0516 76.7574 64.4533 76.9269 64.9724L80.7293 63.7308ZM79.2003 61.0567C78.5014 60.2676 77.6433 59.674 76.662 59.2687L75.1349 62.9657C75.5911 63.1541 75.9361 63.4042 76.2059 63.7089L79.2003 61.0567ZM76.6959 59.283C75.6773 58.8402 74.5602 58.6484 73.3906 58.6484V62.6484C74.1273 62.6484 74.682 62.7692 75.101 62.9513L76.6959 59.283ZM73.3906 58.6484C72.2499 58.6484 71.1568 58.8598 70.146 59.3212L71.8071 62.96C72.2339 62.7652 72.7501 62.6484 73.3906 62.6484V58.6484ZM70.1308 59.3283C69.2054 59.7601 68.3816 60.348 67.6676 61.0824L70.5356 63.8707C70.9153 63.4802 71.3415 63.1774 71.8223 62.953L70.1308 59.3283ZM67.667 61.083C66.9932 61.7766 66.4241 62.5736 65.953 63.4592L69.4845 65.3377C69.7947 64.7546 70.1475 64.2702 70.5361 63.8701L67.667 61.083ZM65.9375 63.4889C65.5109 64.3244 65.1561 65.1941 64.873 66.0966L68.6895 67.294C68.9064 66.6027 69.1766 65.9412 69.5 65.308L65.9375 63.4889ZM64.873 66.0966C64.5896 66.9998 64.3849 67.9154 64.2601 68.8426L68.2243 69.3762C68.3183 68.6783 68.4729 67.9846 68.6895 67.294L64.873 66.0966ZM64.2601 68.8426C64.1404 69.7315 64.0781 70.5869 64.0781 71.4062H68.0781C68.0781 70.7881 68.1252 70.1123 68.2243 69.3762L64.2601 68.8426ZM64.0781 71.4062C64.0781 71.4065 64.0781 71.4067 64.0781 71.407C64.0781 71.4072 64.0781 71.4075 64.0781 71.4077C64.0781 71.408 64.0781 71.4082 64.0781 71.4084C64.0781 71.4087 64.0781 71.4089 64.0781 71.4092C64.0781 71.4094 64.0781 71.4097 64.0781 71.4099C64.0781 71.4102 64.0781 71.4104 64.0781 71.4106C64.0781 71.4109 64.0781 71.4111 64.0781 71.4114C64.0781 71.4116 64.0781 71.4119 64.0781 71.4121C64.0781 71.4124 64.0781 71.4126 64.0781 71.4128C64.0781 71.4131 64.0781 71.4133 64.0781 71.4136C64.0781 71.4138 64.0781 71.4141 64.0781 71.4143C64.0781 71.4146 64.0781 71.4148 64.0781 71.415C64.0781 71.4153 64.0781 71.4155 64.0781 71.4158C64.0781 71.416 64.0781 71.4163 64.0781 71.4165C64.0781 71.4167 64.0781 71.417 64.0781 71.4172C64.0781 71.4175 64.0781 71.4177 64.0781 71.418C64.0781 71.4182 64.0781 71.4185 64.0781 71.4187C64.0781 71.4189 64.0781 71.4192 64.0781 71.4194C64.0781 71.4197 64.0781 71.4199 64.0781 71.4202C64.0781 71.4204 64.0781 71.4207 64.0781 71.4209C64.0781 71.4211 64.0781 71.4214 64.0781 71.4216C64.0781 71.4219 64.0781 71.4221 64.0781 71.4224C64.0781 71.4226 64.0781 71.4229 64.0781 71.4231C64.0781 71.4233 64.0781 71.4236 64.0781 71.4238C64.0781 71.4241 64.0781 71.4243 64.0781 71.4246C64.0781 71.4248 64.0781 71.425 64.0781 71.4253C64.0781 71.4255 64.0781 71.4258 64.0781 71.426C64.0781 71.4263 64.0781 71.4265 64.0781 71.4268C64.0781 71.427 64.0781 71.4272 64.0781 71.4275C64.0781 71.4277 64.0781 71.428 64.0781 71.4282C64.0781 71.4285 64.0781 71.4287 64.0781 71.429C64.0781 71.4292 64.0781 71.4294 64.0781 71.4297C64.0781 71.4299 64.0781 71.4302 64.0781 71.4304C64.0781 71.4307 64.0781 71.4309 64.0781 71.4312C64.0781 71.4314 64.0781 71.4316 64.0781 71.4319C64.0781 71.4321 64.0781 71.4324 64.0781 71.4326C64.0781 71.4329 64.0781 71.4331 64.0781 71.4333C64.0781 71.4336 64.0781 71.4338 64.0781 71.4341C64.0781 71.4343 64.0781 71.4346 64.0781 71.4348C64.0781 71.4351 64.0781 71.4353 64.0781 71.4355C64.0781 71.4358 64.0781 71.436 64.0781 71.4363C64.0781 71.4365 64.0781 71.4368 64.0781 71.437C64.0781 71.4373 64.0781 71.4375 64.0781 71.4377C64.0781 71.438 64.0781 71.4382 64.0781 71.4385C64.0781 71.4387 64.0781 71.439 64.0781 71.4392C64.0781 71.4395 64.0781 71.4397 64.0781 71.4399C64.0781 71.4402 64.0781 71.4404 64.0781 71.4407C64.0781 71.4409 64.0781 71.4412 64.0781 71.4414C64.0781 71.4417 64.0781 71.4419 64.0781 71.4421C64.0781 71.4424 64.0781 71.4426 64.0781 71.4429C64.0781 71.4431 64.0781 71.4434 64.0781 71.4436C64.0781 71.4438 64.0781 71.4441 64.0781 71.4443C64.0781 71.4446 64.0781 71.4448 64.0781 71.4451C64.0781 71.4453 64.0781 71.4456 64.0781 71.4458C64.0781 71.446 64.0781 71.4463 64.0781 71.4465C64.0781 71.4468 64.0781 71.447 64.0781 71.4473C64.0781 71.4475 64.0781 71.4478 64.0781 71.448C64.0781 71.4482 64.0781 71.4485 64.0781 71.4487C64.0781 71.449 64.0781 71.4492 64.0781 71.4495C64.0781 71.4497 64.0781 71.45 64.0781 71.4502C64.0781 71.4504 64.0781 71.4507 64.0781 71.4509C64.0781 71.4512 64.0781 71.4514 64.0781 71.4517C64.0781 71.4519 64.0781 71.4521 64.0781 71.4524C64.0781 71.4526 64.0781 71.4529 64.0781 71.4531C64.0781 71.4534 64.0781 71.4536 64.0781 71.4539C64.0781 71.4541 64.0781 71.4543 64.0781 71.4546C64.0781 71.4548 64.0781 71.4551 64.0781 71.4553C64.0781 71.4556 64.0781 71.4558 64.0781 71.4561C64.0781 71.4563 64.0781 71.4565 64.0781 71.4568C64.0781 71.457 64.0781 71.4573 64.0781 71.4575C64.0781 71.4578 64.0781 71.458 64.0781 71.4583C64.0781 71.4585 64.0781 71.4587 64.0781 71.459C64.0781 71.4592 64.0781 71.4595 64.0781 71.4597C64.0781 71.46 64.0781 71.4602 64.0781 71.4604C64.0781 71.4607 64.0781 71.4609 64.0781 71.4612C64.0781 71.4614 64.0781 71.4617 64.0781 71.4619C64.0781 71.4622 64.0781 71.4624 64.0781 71.4626C64.0781 71.4629 64.0781 71.4631 64.0781 71.4634C64.0781 71.4636 64.0781 71.4639 64.0781 71.4641C64.0781 71.4644 64.0781 71.4646 64.0781 71.4648C64.0781 71.4651 64.0781 71.4653 64.0781 71.4656C64.0781 71.4658 64.0781 71.4661 64.0781 71.4663C64.0781 71.4666 64.0781 71.4668 64.0781 71.467C64.0781 71.4673 64.0781 71.4675 64.0781 71.4678C64.0781 71.468 64.0781 71.4683 64.0781 71.4685C64.0781 71.4688 64.0781 71.469 64.0781 71.4692C64.0781 71.4695 64.0781 71.4697 64.0781 71.47C64.0781 71.4702 64.0781 71.4705 64.0781 71.4707C64.0781 71.4709 64.0781 71.4712 64.0781 71.4714C64.0781 71.4717 64.0781 71.4719 64.0781 71.4722C64.0781 71.4724 64.0781 71.4727 64.0781 71.4729C64.0781 71.4731 64.0781 71.4734 64.0781 71.4736C64.0781 71.4739 64.0781 71.4741 64.0781 71.4744C64.0781 71.4746 64.0781 71.4749 64.0781 71.4751C64.0781 71.4753 64.0781 71.4756 64.0781 71.4758C64.0781 71.4761 64.0781 71.4763 64.0781 71.4766C64.0781 71.4768 64.0781 71.4771 64.0781 71.4773C64.0781 71.4775 64.0781 71.4778 64.0781 71.478C64.0781 71.4783 64.0781 71.4785 64.0781 71.4788C64.0781 71.479 64.0781 71.4792 64.0781 71.4795C64.0781 71.4797 64.0781 71.48 64.0781 71.4802C64.0781 71.4805 64.0781 71.4807 64.0781 71.481C64.0781 71.4812 64.0781 71.4814 64.0781 71.4817C64.0781 71.4819 64.0781 71.4822 64.0781 71.4824C64.0781 71.4827 64.0781 71.4829 64.0781 71.4832C64.0781 71.4834 64.0781 71.4836 64.0781 71.4839C64.0781 71.4841 64.0781 71.4844 64.0781 71.4846C64.0781 71.4849 64.0781 71.4851 64.0781 71.4854C64.0781 71.4856 64.0781 71.4858 64.0781 71.4861C64.0781 71.4863 64.0781 71.4866 64.0781 71.4868C64.0781 71.4871 64.0781 71.4873 64.0781 71.4875C64.0781 71.4878 64.0781 71.488 64.0781 71.4883C64.0781 71.4885 64.0781 71.4888 64.0781 71.489C64.0781 71.4893 64.0781 71.4895 64.0781 71.4897C64.0781 71.49 64.0781 71.4902 64.0781 71.4905C64.0781 71.4907 64.0781 71.491 64.0781 71.4912C64.0781 71.4915 64.0781 71.4917 64.0781 71.4919C64.0781 71.4922 64.0781 71.4924 64.0781 71.4927C64.0781 71.4929 64.0781 71.4932 64.0781 71.4934C64.0781 71.4937 64.0781 71.4939 64.0781 71.4941C64.0781 71.4944 64.0781 71.4946 64.0781 71.4949C64.0781 71.4951 64.0781 71.4954 64.0781 71.4956C64.0781 71.4958 64.0781 71.4961 64.0781 71.4963C64.0781 71.4966 64.0781 71.4968 64.0781 71.4971C64.0781 71.4973 64.0781 71.4976 64.0781 71.4978C64.0781 71.498 64.0781 71.4983 64.0781 71.4985C64.0781 71.4988 64.0781 71.499 64.0781 71.4993C64.0781 71.4995 64.0781 71.4998 64.0781 71.5C64.0781 71.5002 64.0781 71.5005 64.0781 71.5007C64.0781 71.501 64.0781 71.5012 64.0781 71.5015C64.0781 71.5017 64.0781 71.502 64.0781 71.5022C64.0781 71.5024 64.0781 71.5027 64.0781 71.5029C64.0781 71.5032 64.0781 71.5034 64.0781 71.5037C64.0781 71.5039 64.0781 71.5042 64.0781 71.5044C64.0781 71.5046 64.0781 71.5049 64.0781 71.5051C64.0781 71.5054 64.0781 71.5056 64.0781 71.5059C64.0781 71.5061 64.0781 71.5063 64.0781 71.5066C64.0781 71.5068 64.0781 71.5071 64.0781 71.5073C64.0781 71.5076 64.0781 71.5078 64.0781 71.5081C64.0781 71.5083 64.0781 71.5085 64.0781 71.5088C64.0781 71.509 64.0781 71.5093 64.0781 71.5095C64.0781 71.5098 64.0781 71.51 64.0781 71.5103C64.0781 71.5105 64.0781 71.5107 64.0781 71.511C64.0781 71.5112 64.0781 71.5115 64.0781 71.5117C64.0781 71.512 64.0781 71.5122 64.0781 71.5125C64.0781 71.5127 64.0781 71.5129 64.0781 71.5132C64.0781 71.5134 64.0781 71.5137 64.0781 71.5139C64.0781 71.5142 64.0781 71.5144 64.0781 71.5146C64.0781 71.5149 64.0781 71.5151 64.0781 71.5154C64.0781 71.5156 64.0781 71.5159 64.0781 71.5161C64.0781 71.5164 64.0781 71.5166 64.0781 71.5168C64.0781 71.5171 64.0781 71.5173 64.0781 71.5176C64.0781 71.5178 64.0781 71.5181 64.0781 71.5183C64.0781 71.5186 64.0781 71.5188 64.0781 71.519C64.0781 71.5193 64.0781 71.5195 64.0781 71.5198C64.0781 71.52 64.0781 71.5203 64.0781 71.5205C64.0781 71.5208 64.0781 71.521 64.0781 71.5212C64.0781 71.5215 64.0781 71.5217 64.0781 71.522C64.0781 71.5222 64.0781 71.5225 64.0781 71.5227C64.0781 71.5229 64.0781 71.5232 64.0781 71.5234C64.0781 71.5237 64.0781 71.5239 64.0781 71.5242C64.0781 71.5244 64.0781 71.5247 64.0781 71.5249C64.0781 71.5251 64.0781 71.5254 64.0781 71.5256C64.0781 71.5259 64.0781 71.5261 64.0781 71.5264C64.0781 71.5266 64.0781 71.5269 64.0781 71.5271C64.0781 71.5273 64.0781 71.5276 64.0781 71.5278C64.0781 71.5281 64.0781 71.5283 64.0781 71.5286C64.0781 71.5288 64.0781 71.5291 64.0781 71.5293C64.0781 71.5295 64.0781 71.5298 64.0781 71.53C64.0781 71.5303 64.0781 71.5305 64.0781 71.5308C64.0781 71.531 64.0781 71.5312 64.0781 71.5315C64.0781 71.5317 64.0781 71.532 64.0781 71.5322C64.0781 71.5325 64.0781 71.5327 64.0781 71.533C64.0781 71.5332 64.0781 71.5334 64.0781 71.5337C64.0781 71.5339 64.0781 71.5342 64.0781 71.5344C64.0781 71.5347 64.0781 71.5349 64.0781 71.5352C64.0781 71.5354 64.0781 71.5356 64.0781 71.5359C64.0781 71.5361 64.0781 71.5364 64.0781 71.5366C64.0781 71.5369 64.0781 71.5371 64.0781 71.5374C64.0781 71.5376 64.0781 71.5378 64.0781 71.5381C64.0781 71.5383 64.0781 71.5386 64.0781 71.5388C64.0781 71.5391 64.0781 71.5393 64.0781 71.5396C64.0781 71.5398 64.0781 71.54 64.0781 71.5403C64.0781 71.5405 64.0781 71.5408 64.0781 71.541C64.0781 71.5413 64.0781 71.5415 64.0781 71.5417C64.0781 71.542 64.0781 71.5422 64.0781 71.5425C64.0781 71.5427 64.0781 71.543 64.0781 71.5432C64.0781 71.5435 64.0781 71.5437 64.0781 71.5439C64.0781 71.5442 64.0781 71.5444 64.0781 71.5447C64.0781 71.5449 64.0781 71.5452 64.0781 71.5454C64.0781 71.5457 64.0781 71.5459 64.0781 71.5461C64.0781 71.5464 64.0781 71.5466 64.0781 71.5469C64.0781 71.5471 64.0781 71.5474 64.0781 71.5476C64.0781 71.5479 64.0781 71.5481 64.0781 71.5483C64.0781 71.5486 64.0781 71.5488 64.0781 71.5491C64.0781 71.5493 64.0781 71.5496 64.0781 71.5498C64.0781 71.55 64.0781 71.5503 64.0781 71.5505C64.0781 71.5508 64.0781 71.551 64.0781 71.5513C64.0781 71.5515 64.0781 71.5518 64.0781 71.552C64.0781 71.5522 64.0781 71.5525 64.0781 71.5527C64.0781 71.553 64.0781 71.5532 64.0781 71.5535C64.0781 71.5537 64.0781 71.554 64.0781 71.5542C64.0781 71.5544 64.0781 71.5547 64.0781 71.5549C64.0781 71.5552 64.0781 71.5554 64.0781 71.5557C64.0781 71.5559 64.0781 71.5562 64.0781 71.5564C64.0781 71.5566 64.0781 71.5569 64.0781 71.5571C64.0781 71.5574 64.0781 71.5576 64.0781 71.5579C64.0781 71.5581 64.0781 71.5583 64.0781 71.5586C64.0781 71.5588 64.0781 71.5591 64.0781 71.5593C64.0781 71.5596 64.0781 71.5598 64.0781 71.5601C64.0781 71.5603 64.0781 71.5605 64.0781 71.5608C64.0781 71.561 64.0781 71.5613 64.0781 71.5615C64.0781 71.5618 64.0781 71.562 64.0781 71.5623C64.0781 71.5625 64.0781 71.5627 64.0781 71.563C64.0781 71.5632 64.0781 71.5635 64.0781 71.5637C64.0781 71.564 64.0781 71.5642 64.0781 71.5645C64.0781 71.5647 64.0781 71.5649 64.0781 71.5652C64.0781 71.5654 64.0781 71.5657 64.0781 71.5659C64.0781 71.5662 64.0781 71.5664 64.0781 71.5667C64.0781 71.5669 64.0781 71.5671 64.0781 71.5674C64.0781 71.5676 64.0781 71.5679 64.0781 71.5681C64.0781 71.5684 64.0781 71.5686 64.0781 71.5688C64.0781 71.5691 64.0781 71.5693 64.0781 71.5696C64.0781 71.5698 64.0781 71.5701 64.0781 71.5703C64.0781 71.5706 64.0781 71.5708 64.0781 71.571C64.0781 71.5713 64.0781 71.5715 64.0781 71.5718C64.0781 71.572 64.0781 71.5723 64.0781 71.5725C64.0781 71.5728 64.0781 71.573 64.0781 71.5732C64.0781 71.5735 64.0781 71.5737 64.0781 71.574C64.0781 71.5742 64.0781 71.5745 64.0781 71.5747C64.0781 71.575 64.0781 71.5752 64.0781 71.5754C64.0781 71.5757 64.0781 71.5759 64.0781 71.5762C64.0781 71.5764 64.0781 71.5767 64.0781 71.5769C64.0781 71.5771 64.0781 71.5774 64.0781 71.5776C64.0781 71.5779 64.0781 71.5781 64.0781 71.5784C64.0781 71.5786 64.0781 71.5789 64.0781 71.5791C64.0781 71.5793 64.0781 71.5796 64.0781 71.5798C64.0781 71.5801 64.0781 71.5803 64.0781 71.5806C64.0781 71.5808 64.0781 71.5811 64.0781 71.5813C64.0781 71.5815 64.0781 71.5818 64.0781 71.582C64.0781 71.5823 64.0781 71.5825 64.0781 71.5828C64.0781 71.583 64.0781 71.5833 64.0781 71.5835C64.0781 71.5837 64.0781 71.584 64.0781 71.5842C64.0781 71.5845 64.0781 71.5847 64.0781 71.585C64.0781 71.5852 64.0781 71.5854 64.0781 71.5857C64.0781 71.5859 64.0781 71.5862 64.0781 71.5864C64.0781 71.5867 64.0781 71.5869 64.0781 71.5872C64.0781 71.5874 64.0781 71.5876 64.0781 71.5879C64.0781 71.5881 64.0781 71.5884 64.0781 71.5886C64.0781 71.5889 64.0781 71.5891 64.0781 71.5894C64.0781 71.5896 64.0781 71.5898 64.0781 71.5901C64.0781 71.5903 64.0781 71.5906 64.0781 71.5908C64.0781 71.5911 64.0781 71.5913 64.0781 71.5916C64.0781 71.5918 64.0781 71.592 64.0781 71.5923C64.0781 71.5925 64.0781 71.5928 64.0781 71.593C64.0781 71.5933 64.0781 71.5935 64.0781 71.5938C64.0781 71.594 64.0781 71.5942 64.0781 71.5945C64.0781 71.5947 64.0781 71.595 64.0781 71.5952C64.0781 71.5955 64.0781 71.5957 64.0781 71.5959C64.0781 71.5962 64.0781 71.5964 64.0781 71.5967C64.0781 71.5969 64.0781 71.5972 64.0781 71.5974C64.0781 71.5977 64.0781 71.5979 64.0781 71.5981C64.0781 71.5984 64.0781 71.5986 64.0781 71.5989C64.0781 71.5991 64.0781 71.5994 64.0781 71.5996C64.0781 71.5999 64.0781 71.6001 64.0781 71.6003C64.0781 71.6006 64.0781 71.6008 64.0781 71.6011C64.0781 71.6013 64.0781 71.6016 64.0781 71.6018C64.0781 71.6021 64.0781 71.6023 64.0781 71.6025C64.0781 71.6028 64.0781 71.603 64.0781 71.6033C64.0781 71.6035 64.0781 71.6038 64.0781 71.604C64.0781 71.6042 64.0781 71.6045 64.0781 71.6047C64.0781 71.605 64.0781 71.6052 64.0781 71.6055C64.0781 71.6057 64.0781 71.606 64.0781 71.6062C64.0781 71.6064 64.0781 71.6067 64.0781 71.6069C64.0781 71.6072 64.0781 71.6074 64.0781 71.6077C64.0781 71.6079 64.0781 71.6082 64.0781 71.6084C64.0781 71.6086 64.0781 71.6089 64.0781 71.6091C64.0781 71.6094 64.0781 71.6096 64.0781 71.6099C64.0781 71.6101 64.0781 71.6104 64.0781 71.6106C64.0781 71.6108 64.0781 71.6111 64.0781 71.6113C64.0781 71.6116 64.0781 71.6118 64.0781 71.6121C64.0781 71.6123 64.0781 71.6125 64.0781 71.6128C64.0781 71.613 64.0781 71.6133 64.0781 71.6135C64.0781 71.6138 64.0781 71.614 64.0781 71.6143C64.0781 71.6145 64.0781 71.6147 64.0781 71.615C64.0781 71.6152 64.0781 71.6155 64.0781 71.6157C64.0781 71.616 64.0781 71.6162 64.0781 71.6165C64.0781 71.6167 64.0781 71.6169 64.0781 71.6172C64.0781 71.6174 64.0781 71.6177 64.0781 71.6179C64.0781 71.6182 64.0781 71.6184 64.0781 71.6187C64.0781 71.6189 64.0781 71.6191 64.0781 71.6194C64.0781 71.6196 64.0781 71.6199 64.0781 71.6201C64.0781 71.6204 64.0781 71.6206 64.0781 71.6208C64.0781 71.6211 64.0781 71.6213 64.0781 71.6216C64.0781 71.6218 64.0781 71.6221 64.0781 71.6223C64.0781 71.6226 64.0781 71.6228 64.0781 71.623C64.0781 71.6233 64.0781 71.6235 64.0781 71.6238C64.0781 71.624 64.0781 71.6243 64.0781 71.6245C64.0781 71.6248 64.0781 71.625 64.0781 71.6252C64.0781 71.6255 64.0781 71.6257 64.0781 71.626C64.0781 71.6262 64.0781 71.6265 64.0781 71.6267C64.0781 71.627 64.0781 71.6272 64.0781 71.6274C64.0781 71.6277 64.0781 71.6279 64.0781 71.6282C64.0781 71.6284 64.0781 71.6287 64.0781 71.6289C64.0781 71.6292 64.0781 71.6294 64.0781 71.6296C64.0781 71.6299 64.0781 71.6301 64.0781 71.6304C64.0781 71.6306 64.0781 71.6309 64.0781 71.6311C64.0781 71.6313 64.0781 71.6316 64.0781 71.6318C64.0781 71.6321 64.0781 71.6323 64.0781 71.6326C64.0781 71.6328 64.0781 71.6331 64.0781 71.6333C64.0781 71.6335 64.0781 71.6338 64.0781 71.634C64.0781 71.6343 64.0781 71.6345 64.0781 71.6348C64.0781 71.635 64.0781 71.6353 64.0781 71.6355C64.0781 71.6357 64.0781 71.636 64.0781 71.6362C64.0781 71.6365 64.0781 71.6367 64.0781 71.637C64.0781 71.6372 64.0781 71.6375 64.0781 71.6377C64.0781 71.6379 64.0781 71.6382 64.0781 71.6384C64.0781 71.6387 64.0781 71.6389 64.0781 71.6392C64.0781 71.6394 64.0781 71.6396 64.0781 71.6399C64.0781 71.6401 64.0781 71.6404 64.0781 71.6406C64.0781 71.6409 64.0781 71.6411 64.0781 71.6414C64.0781 71.6416 64.0781 71.6418 64.0781 71.6421C64.0781 71.6423 64.0781 71.6426 64.0781 71.6428C64.0781 71.6431 64.0781 71.6433 64.0781 71.6436C64.0781 71.6438 64.0781 71.644 64.0781 71.6443C64.0781 71.6445 64.0781 71.6448 64.0781 71.645C64.0781 71.6453 64.0781 71.6455 64.0781 71.6458C64.0781 71.646 64.0781 71.6462 64.0781 71.6465C64.0781 71.6467 64.0781 71.647 64.0781 71.6472C64.0781 71.6475 64.0781 71.6477 64.0781 71.6479C64.0781 71.6482 64.0781 71.6484 64.0781 71.6487C64.0781 71.6489 64.0781 71.6492 64.0781 71.6494C64.0781 71.6497 64.0781 71.6499 64.0781 71.6501C64.0781 71.6504 64.0781 71.6506 64.0781 71.6509C64.0781 71.6511 64.0781 71.6514 64.0781 71.6516C64.0781 71.6519 64.0781 71.6521 64.0781 71.6523C64.0781 71.6526 64.0781 71.6528 64.0781 71.6531C64.0781 71.6533 64.0781 71.6536 64.0781 71.6538C64.0781 71.6541 64.0781 71.6543 64.0781 71.6545C64.0781 71.6548 64.0781 71.655 64.0781 71.6553C64.0781 71.6555 64.0781 71.6558 64.0781 71.656C64.0781 71.6562 64.0781 71.6565 64.0781 71.6567C64.0781 71.657 64.0781 71.6572 64.0781 71.6575C64.0781 71.6577 64.0781 71.658 64.0781 71.6582C64.0781 71.6584 64.0781 71.6587 64.0781 71.6589C64.0781 71.6592 64.0781 71.6594 64.0781 71.6597C64.0781 71.6599 64.0781 71.6602 64.0781 71.6604C64.0781 71.6606 64.0781 71.6609 64.0781 71.6611C64.0781 71.6614 64.0781 71.6616 64.0781 71.6619C64.0781 71.6621 64.0781 71.6624 64.0781 71.6626C64.0781 71.6628 64.0781 71.6631 64.0781 71.6633C64.0781 71.6636 64.0781 71.6638 64.0781 71.6641C64.0781 71.6643 64.0781 71.6646 64.0781 71.6648C64.0781 71.665 64.0781 71.6653 64.0781 71.6655C64.0781 71.6658 64.0781 71.666 64.0781 71.6663C64.0781 71.6665 64.0781 71.6667 64.0781 71.667C64.0781 71.6672 64.0781 71.6675 64.0781 71.6677C64.0781 71.668 64.0781 71.6682 64.0781 71.6685C64.0781 71.6687 64.0781 71.6689 64.0781 71.6692C64.0781 71.6694 64.0781 71.6697 64.0781 71.6699C64.0781 71.6702 64.0781 71.6704 64.0781 71.6707C64.0781 71.6709 64.0781 71.6711 64.0781 71.6714C64.0781 71.6716 64.0781 71.6719 64.0781 71.6721C64.0781 71.6724 64.0781 71.6726 64.0781 71.6729C64.0781 71.6731 64.0781 71.6733 64.0781 71.6736C64.0781 71.6738 64.0781 71.6741 64.0781 71.6743C64.0781 71.6746 64.0781 71.6748 64.0781 71.675C64.0781 71.6753 64.0781 71.6755 64.0781 71.6758C64.0781 71.676 64.0781 71.6763 64.0781 71.6765C64.0781 71.6768 64.0781 71.677 64.0781 71.6772C64.0781 71.6775 64.0781 71.6777 64.0781 71.678C64.0781 71.6782 64.0781 71.6785 64.0781 71.6787C64.0781 71.679 64.0781 71.6792 64.0781 71.6794C64.0781 71.6797 64.0781 71.6799 64.0781 71.6802C64.0781 71.6804 64.0781 71.6807 64.0781 71.6809C64.0781 71.6812 64.0781 71.6814 64.0781 71.6816C64.0781 71.6819 64.0781 71.6821 64.0781 71.6824C64.0781 71.6826 64.0781 71.6829 64.0781 71.6831C64.0781 71.6833 64.0781 71.6836 64.0781 71.6838C64.0781 71.6841 64.0781 71.6843 64.0781 71.6846C64.0781 71.6848 64.0781 71.6851 64.0781 71.6853C64.0781 71.6855 64.0781 71.6858 64.0781 71.686C64.0781 71.6863 64.0781 71.6865 64.0781 71.6868C64.0781 71.687 64.0781 71.6873 64.0781 71.6875C64.0781 71.6877 64.0781 71.688 64.0781 71.6882C64.0781 71.6885 64.0781 71.6887 64.0781 71.689C64.0781 71.6892 64.0781 71.6895 64.0781 71.6897C64.0781 71.6899 64.0781 71.6902 64.0781 71.6904C64.0781 71.6907 64.0781 71.6909 64.0781 71.6912C64.0781 71.6914 64.0781 71.6917 64.0781 71.6919C64.0781 71.6921 64.0781 71.6924 64.0781 71.6926C64.0781 71.6929 64.0781 71.6931 64.0781 71.6934C64.0781 71.6936 64.0781 71.6938 64.0781 71.6941C64.0781 71.6943 64.0781 71.6946 64.0781 71.6948C64.0781 71.6951 64.0781 71.6953 64.0781 71.6956C64.0781 71.6958 64.0781 71.696 64.0781 71.6963C64.0781 71.6965 64.0781 71.6968 64.0781 71.697C64.0781 71.6973 64.0781 71.6975 64.0781 71.6978C64.0781 71.698 64.0781 71.6982 64.0781 71.6985C64.0781 71.6987 64.0781 71.699 64.0781 71.6992C64.0781 71.6995 64.0781 71.6997 64.0781 71.7C64.0781 71.7002 64.0781 71.7004 64.0781 71.7007C64.0781 71.7009 64.0781 71.7012 64.0781 71.7014C64.0781 71.7017 64.0781 71.7019 64.0781 71.7021C64.0781 71.7024 64.0781 71.7026 64.0781 71.7029C64.0781 71.7031 64.0781 71.7034 64.0781 71.7036C64.0781 71.7039 64.0781 71.7041 64.0781 71.7043C64.0781 71.7046 64.0781 71.7048 64.0781 71.7051C64.0781 71.7053 64.0781 71.7056 64.0781 71.7058C64.0781 71.7061 64.0781 71.7063 64.0781 71.7065C64.0781 71.7068 64.0781 71.707 64.0781 71.7073C64.0781 71.7075 64.0781 71.7078 64.0781 71.708C64.0781 71.7083 64.0781 71.7085 64.0781 71.7087C64.0781 71.709 64.0781 71.7092 64.0781 71.7095C64.0781 71.7097 64.0781 71.71 64.0781 71.7102C64.0781 71.7104 64.0781 71.7107 64.0781 71.7109C64.0781 71.7112 64.0781 71.7114 64.0781 71.7117C64.0781 71.7119 64.0781 71.7122 64.0781 71.7124C64.0781 71.7126 64.0781 71.7129 64.0781 71.7131C64.0781 71.7134 64.0781 71.7136 64.0781 71.7139C64.0781 71.7141 64.0781 71.7144 64.0781 71.7146C64.0781 71.7148 64.0781 71.7151 64.0781 71.7153C64.0781 71.7156 64.0781 71.7158 64.0781 71.7161C64.0781 71.7163 64.0781 71.7166 64.0781 71.7168C64.0781 71.717 64.0781 71.7173 64.0781 71.7175C64.0781 71.7178 64.0781 71.718 64.0781 71.7183C64.0781 71.7185 64.0781 71.7188 64.0781 71.719C64.0781 71.7192 64.0781 71.7195 64.0781 71.7197C64.0781 71.72 64.0781 71.7202 64.0781 71.7205C64.0781 71.7207 64.0781 71.7209 64.0781 71.7212C64.0781 71.7214 64.0781 71.7217 64.0781 71.7219C64.0781 71.7222 64.0781 71.7224 64.0781 71.7227C64.0781 71.7229 64.0781 71.7231 64.0781 71.7234C64.0781 71.7236 64.0781 71.7239 64.0781 71.7241C64.0781 71.7244 64.0781 71.7246 64.0781 71.7249C64.0781 71.7251 64.0781 71.7253 64.0781 71.7256C64.0781 71.7258 64.0781 71.7261 64.0781 71.7263C64.0781 71.7266 64.0781 71.7268 64.0781 71.7271C64.0781 71.7273 64.0781 71.7275 64.0781 71.7278C64.0781 71.728 64.0781 71.7283 64.0781 71.7285C64.0781 71.7288 64.0781 71.729 64.0781 71.7292C64.0781 71.7295 64.0781 71.7297 64.0781 71.73C64.0781 71.7302 64.0781 71.7305 64.0781 71.7307C64.0781 71.731 64.0781 71.7312 64.0781 71.7314C64.0781 71.7317 64.0781 71.7319 64.0781 71.7322C64.0781 71.7324 64.0781 71.7327 64.0781 71.7329C64.0781 71.7332 64.0781 71.7334 64.0781 71.7336C64.0781 71.7339 64.0781 71.7341 64.0781 71.7344C64.0781 71.7346 64.0781 71.7349 64.0781 71.7351C64.0781 71.7354 64.0781 71.7356 64.0781 71.7358C64.0781 71.7361 64.0781 71.7363 64.0781 71.7366C64.0781 71.7368 64.0781 71.7371 64.0781 71.7373C64.0781 71.7375 64.0781 71.7378 64.0781 71.738C64.0781 71.7383 64.0781 71.7385 64.0781 71.7388C64.0781 71.739 64.0781 71.7393 64.0781 71.7395C64.0781 71.7397 64.0781 71.74 64.0781 71.7402C64.0781 71.7405 64.0781 71.7407 64.0781 71.741C64.0781 71.7412 64.0781 71.7415 64.0781 71.7417C64.0781 71.7419 64.0781 71.7422 64.0781 71.7424C64.0781 71.7427 64.0781 71.7429 64.0781 71.7432C64.0781 71.7434 64.0781 71.7437 64.0781 71.7439C64.0781 71.7441 64.0781 71.7444 64.0781 71.7446C64.0781 71.7449 64.0781 71.7451 64.0781 71.7454C64.0781 71.7456 64.0781 71.7458 64.0781 71.7461C64.0781 71.7463 64.0781 71.7466 64.0781 71.7468C64.0781 71.7471 64.0781 71.7473 64.0781 71.7476C64.0781 71.7478 64.0781 71.748 64.0781 71.7483C64.0781 71.7485 64.0781 71.7488 64.0781 71.749C64.0781 71.7493 64.0781 71.7495 64.0781 71.7498C64.0781 71.75 64.0781 71.7502 64.0781 71.7505C64.0781 71.7507 64.0781 71.751 64.0781 71.7512C64.0781 71.7515 64.0781 71.7517 64.0781 71.752C64.0781 71.7522 64.0781 71.7524 64.0781 71.7527C64.0781 71.7529 64.0781 71.7532 64.0781 71.7534C64.0781 71.7537 64.0781 71.7539 64.0781 71.7542C64.0781 71.7544 64.0781 71.7546 64.0781 71.7549C64.0781 71.7551 64.0781 71.7554 64.0781 71.7556C64.0781 71.7559 64.0781 71.7561 64.0781 71.7563C64.0781 71.7566 64.0781 71.7568 64.0781 71.7571C64.0781 71.7573 64.0781 71.7576 64.0781 71.7578C64.0781 71.7581 64.0781 71.7583 64.0781 71.7585C64.0781 71.7588 64.0781 71.759 64.0781 71.7593C64.0781 71.7595 64.0781 71.7598 64.0781 71.76C64.0781 71.7603 64.0781 71.7605 64.0781 71.7607C64.0781 71.761 64.0781 71.7612 64.0781 71.7615C64.0781 71.7617 64.0781 71.762 64.0781 71.7622C64.0781 71.7625 64.0781 71.7627 64.0781 71.7629C64.0781 71.7632 64.0781 71.7634 64.0781 71.7637C64.0781 71.7639 64.0781 71.7642 64.0781 71.7644C64.0781 71.7646 64.0781 71.7649 64.0781 71.7651C64.0781 71.7654 64.0781 71.7656 64.0781 71.7659C64.0781 71.7661 64.0781 71.7664 64.0781 71.7666C64.0781 71.7668 64.0781 71.7671 64.0781 71.7673C64.0781 71.7676 64.0781 71.7678 64.0781 71.7681C64.0781 71.7683 64.0781 71.7686 64.0781 71.7688C64.0781 71.769 64.0781 71.7693 64.0781 71.7695C64.0781 71.7698 64.0781 71.77 64.0781 71.7703C64.0781 71.7705 64.0781 71.7708 64.0781 71.771C64.0781 71.7712 64.0781 71.7715 64.0781 71.7717C64.0781 71.772 64.0781 71.7722 64.0781 71.7725C64.0781 71.7727 64.0781 71.7729 64.0781 71.7732C64.0781 71.7734 64.0781 71.7737 64.0781 71.7739C64.0781 71.7742 64.0781 71.7744 64.0781 71.7747C64.0781 71.7749 64.0781 71.7751 64.0781 71.7754C64.0781 71.7756 64.0781 71.7759 64.0781 71.7761C64.0781 71.7764 64.0781 71.7766 64.0781 71.7769C64.0781 71.7771 64.0781 71.7773 64.0781 71.7776C64.0781 71.7778 64.0781 71.7781 64.0781 71.7783C64.0781 71.7786 64.0781 71.7788 64.0781 71.7791C64.0781 71.7793 64.0781 71.7795 64.0781 71.7798C64.0781 71.78 64.0781 71.7803 64.0781 71.7805C64.0781 71.7808 64.0781 71.781 64.0781 71.7812H68.0781C68.0781 71.781 68.0781 71.7808 68.0781 71.7805C68.0781 71.7803 68.0781 71.78 68.0781 71.7798C68.0781 71.7795 68.0781 71.7793 68.0781 71.7791C68.0781 71.7788 68.0781 71.7786 68.0781 71.7783C68.0781 71.7781 68.0781 71.7778 68.0781 71.7776C68.0781 71.7773 68.0781 71.7771 68.0781 71.7769C68.0781 71.7766 68.0781 71.7764 68.0781 71.7761C68.0781 71.7759 68.0781 71.7756 68.0781 71.7754C68.0781 71.7751 68.0781 71.7749 68.0781 71.7747C68.0781 71.7744 68.0781 71.7742 68.0781 71.7739C68.0781 71.7737 68.0781 71.7734 68.0781 71.7732C68.0781 71.7729 68.0781 71.7727 68.0781 71.7725C68.0781 71.7722 68.0781 71.772 68.0781 71.7717C68.0781 71.7715 68.0781 71.7712 68.0781 71.771C68.0781 71.7708 68.0781 71.7705 68.0781 71.7703C68.0781 71.77 68.0781 71.7698 68.0781 71.7695C68.0781 71.7693 68.0781 71.769 68.0781 71.7688C68.0781 71.7686 68.0781 71.7683 68.0781 71.7681C68.0781 71.7678 68.0781 71.7676 68.0781 71.7673C68.0781 71.7671 68.0781 71.7668 68.0781 71.7666C68.0781 71.7664 68.0781 71.7661 68.0781 71.7659C68.0781 71.7656 68.0781 71.7654 68.0781 71.7651C68.0781 71.7649 68.0781 71.7646 68.0781 71.7644C68.0781 71.7642 68.0781 71.7639 68.0781 71.7637C68.0781 71.7634 68.0781 71.7632 68.0781 71.7629C68.0781 71.7627 68.0781 71.7625 68.0781 71.7622C68.0781 71.762 68.0781 71.7617 68.0781 71.7615C68.0781 71.7612 68.0781 71.761 68.0781 71.7607C68.0781 71.7605 68.0781 71.7603 68.0781 71.76C68.0781 71.7598 68.0781 71.7595 68.0781 71.7593C68.0781 71.759 68.0781 71.7588 68.0781 71.7585C68.0781 71.7583 68.0781 71.7581 68.0781 71.7578C68.0781 71.7576 68.0781 71.7573 68.0781 71.7571C68.0781 71.7568 68.0781 71.7566 68.0781 71.7563C68.0781 71.7561 68.0781 71.7559 68.0781 71.7556C68.0781 71.7554 68.0781 71.7551 68.0781 71.7549C68.0781 71.7546 68.0781 71.7544 68.0781 71.7542C68.0781 71.7539 68.0781 71.7537 68.0781 71.7534C68.0781 71.7532 68.0781 71.7529 68.0781 71.7527C68.0781 71.7524 68.0781 71.7522 68.0781 71.752C68.0781 71.7517 68.0781 71.7515 68.0781 71.7512C68.0781 71.751 68.0781 71.7507 68.0781 71.7505C68.0781 71.7502 68.0781 71.75 68.0781 71.7498C68.0781 71.7495 68.0781 71.7493 68.0781 71.749C68.0781 71.7488 68.0781 71.7485 68.0781 71.7483C68.0781 71.748 68.0781 71.7478 68.0781 71.7476C68.0781 71.7473 68.0781 71.7471 68.0781 71.7468C68.0781 71.7466 68.0781 71.7463 68.0781 71.7461C68.0781 71.7458 68.0781 71.7456 68.0781 71.7454C68.0781 71.7451 68.0781 71.7449 68.0781 71.7446C68.0781 71.7444 68.0781 71.7441 68.0781 71.7439C68.0781 71.7437 68.0781 71.7434 68.0781 71.7432C68.0781 71.7429 68.0781 71.7427 68.0781 71.7424C68.0781 71.7422 68.0781 71.7419 68.0781 71.7417C68.0781 71.7415 68.0781 71.7412 68.0781 71.741C68.0781 71.7407 68.0781 71.7405 68.0781 71.7402C68.0781 71.74 68.0781 71.7397 68.0781 71.7395C68.0781 71.7393 68.0781 71.739 68.0781 71.7388C68.0781 71.7385 68.0781 71.7383 68.0781 71.738C68.0781 71.7378 68.0781 71.7375 68.0781 71.7373C68.0781 71.7371 68.0781 71.7368 68.0781 71.7366C68.0781 71.7363 68.0781 71.7361 68.0781 71.7358C68.0781 71.7356 68.0781 71.7354 68.0781 71.7351C68.0781 71.7349 68.0781 71.7346 68.0781 71.7344C68.0781 71.7341 68.0781 71.7339 68.0781 71.7336C68.0781 71.7334 68.0781 71.7332 68.0781 71.7329C68.0781 71.7327 68.0781 71.7324 68.0781 71.7322C68.0781 71.7319 68.0781 71.7317 68.0781 71.7314C68.0781 71.7312 68.0781 71.731 68.0781 71.7307C68.0781 71.7305 68.0781 71.7302 68.0781 71.73C68.0781 71.7297 68.0781 71.7295 68.0781 71.7292C68.0781 71.729 68.0781 71.7288 68.0781 71.7285C68.0781 71.7283 68.0781 71.728 68.0781 71.7278C68.0781 71.7275 68.0781 71.7273 68.0781 71.7271C68.0781 71.7268 68.0781 71.7266 68.0781 71.7263C68.0781 71.7261 68.0781 71.7258 68.0781 71.7256C68.0781 71.7253 68.0781 71.7251 68.0781 71.7249C68.0781 71.7246 68.0781 71.7244 68.0781 71.7241C68.0781 71.7239 68.0781 71.7236 68.0781 71.7234C68.0781 71.7231 68.0781 71.7229 68.0781 71.7227C68.0781 71.7224 68.0781 71.7222 68.0781 71.7219C68.0781 71.7217 68.0781 71.7214 68.0781 71.7212C68.0781 71.7209 68.0781 71.7207 68.0781 71.7205C68.0781 71.7202 68.0781 71.72 68.0781 71.7197C68.0781 71.7195 68.0781 71.7192 68.0781 71.719C68.0781 71.7188 68.0781 71.7185 68.0781 71.7183C68.0781 71.718 68.0781 71.7178 68.0781 71.7175C68.0781 71.7173 68.0781 71.717 68.0781 71.7168C68.0781 71.7166 68.0781 71.7163 68.0781 71.7161C68.0781 71.7158 68.0781 71.7156 68.0781 71.7153C68.0781 71.7151 68.0781 71.7148 68.0781 71.7146C68.0781 71.7144 68.0781 71.7141 68.0781 71.7139C68.0781 71.7136 68.0781 71.7134 68.0781 71.7131C68.0781 71.7129 68.0781 71.7126 68.0781 71.7124C68.0781 71.7122 68.0781 71.7119 68.0781 71.7117C68.0781 71.7114 68.0781 71.7112 68.0781 71.7109C68.0781 71.7107 68.0781 71.7104 68.0781 71.7102C68.0781 71.71 68.0781 71.7097 68.0781 71.7095C68.0781 71.7092 68.0781 71.709 68.0781 71.7087C68.0781 71.7085 68.0781 71.7083 68.0781 71.708C68.0781 71.7078 68.0781 71.7075 68.0781 71.7073C68.0781 71.707 68.0781 71.7068 68.0781 71.7065C68.0781 71.7063 68.0781 71.7061 68.0781 71.7058C68.0781 71.7056 68.0781 71.7053 68.0781 71.7051C68.0781 71.7048 68.0781 71.7046 68.0781 71.7043C68.0781 71.7041 68.0781 71.7039 68.0781 71.7036C68.0781 71.7034 68.0781 71.7031 68.0781 71.7029C68.0781 71.7026 68.0781 71.7024 68.0781 71.7021C68.0781 71.7019 68.0781 71.7017 68.0781 71.7014C68.0781 71.7012 68.0781 71.7009 68.0781 71.7007C68.0781 71.7004 68.0781 71.7002 68.0781 71.7C68.0781 71.6997 68.0781 71.6995 68.0781 71.6992C68.0781 71.699 68.0781 71.6987 68.0781 71.6985C68.0781 71.6982 68.0781 71.698 68.0781 71.6978C68.0781 71.6975 68.0781 71.6973 68.0781 71.697C68.0781 71.6968 68.0781 71.6965 68.0781 71.6963C68.0781 71.696 68.0781 71.6958 68.0781 71.6956C68.0781 71.6953 68.0781 71.6951 68.0781 71.6948C68.0781 71.6946 68.0781 71.6943 68.0781 71.6941C68.0781 71.6938 68.0781 71.6936 68.0781 71.6934C68.0781 71.6931 68.0781 71.6929 68.0781 71.6926C68.0781 71.6924 68.0781 71.6921 68.0781 71.6919C68.0781 71.6917 68.0781 71.6914 68.0781 71.6912C68.0781 71.6909 68.0781 71.6907 68.0781 71.6904C68.0781 71.6902 68.0781 71.6899 68.0781 71.6897C68.0781 71.6895 68.0781 71.6892 68.0781 71.689C68.0781 71.6887 68.0781 71.6885 68.0781 71.6882C68.0781 71.688 68.0781 71.6877 68.0781 71.6875C68.0781 71.6873 68.0781 71.687 68.0781 71.6868C68.0781 71.6865 68.0781 71.6863 68.0781 71.686C68.0781 71.6858 68.0781 71.6855 68.0781 71.6853C68.0781 71.6851 68.0781 71.6848 68.0781 71.6846C68.0781 71.6843 68.0781 71.6841 68.0781 71.6838C68.0781 71.6836 68.0781 71.6833 68.0781 71.6831C68.0781 71.6829 68.0781 71.6826 68.0781 71.6824C68.0781 71.6821 68.0781 71.6819 68.0781 71.6816C68.0781 71.6814 68.0781 71.6812 68.0781 71.6809C68.0781 71.6807 68.0781 71.6804 68.0781 71.6802C68.0781 71.6799 68.0781 71.6797 68.0781 71.6794C68.0781 71.6792 68.0781 71.679 68.0781 71.6787C68.0781 71.6785 68.0781 71.6782 68.0781 71.678C68.0781 71.6777 68.0781 71.6775 68.0781 71.6772C68.0781 71.677 68.0781 71.6768 68.0781 71.6765C68.0781 71.6763 68.0781 71.676 68.0781 71.6758C68.0781 71.6755 68.0781 71.6753 68.0781 71.675C68.0781 71.6748 68.0781 71.6746 68.0781 71.6743C68.0781 71.6741 68.0781 71.6738 68.0781 71.6736C68.0781 71.6733 68.0781 71.6731 68.0781 71.6729C68.0781 71.6726 68.0781 71.6724 68.0781 71.6721C68.0781 71.6719 68.0781 71.6716 68.0781 71.6714C68.0781 71.6711 68.0781 71.6709 68.0781 71.6707C68.0781 71.6704 68.0781 71.6702 68.0781 71.6699C68.0781 71.6697 68.0781 71.6694 68.0781 71.6692C68.0781 71.6689 68.0781 71.6687 68.0781 71.6685C68.0781 71.6682 68.0781 71.668 68.0781 71.6677C68.0781 71.6675 68.0781 71.6672 68.0781 71.667C68.0781 71.6667 68.0781 71.6665 68.0781 71.6663C68.0781 71.666 68.0781 71.6658 68.0781 71.6655C68.0781 71.6653 68.0781 71.665 68.0781 71.6648C68.0781 71.6646 68.0781 71.6643 68.0781 71.6641C68.0781 71.6638 68.0781 71.6636 68.0781 71.6633C68.0781 71.6631 68.0781 71.6628 68.0781 71.6626C68.0781 71.6624 68.0781 71.6621 68.0781 71.6619C68.0781 71.6616 68.0781 71.6614 68.0781 71.6611C68.0781 71.6609 68.0781 71.6606 68.0781 71.6604C68.0781 71.6602 68.0781 71.6599 68.0781 71.6597C68.0781 71.6594 68.0781 71.6592 68.0781 71.6589C68.0781 71.6587 68.0781 71.6584 68.0781 71.6582C68.0781 71.658 68.0781 71.6577 68.0781 71.6575C68.0781 71.6572 68.0781 71.657 68.0781 71.6567C68.0781 71.6565 68.0781 71.6562 68.0781 71.656C68.0781 71.6558 68.0781 71.6555 68.0781 71.6553C68.0781 71.655 68.0781 71.6548 68.0781 71.6545C68.0781 71.6543 68.0781 71.6541 68.0781 71.6538C68.0781 71.6536 68.0781 71.6533 68.0781 71.6531C68.0781 71.6528 68.0781 71.6526 68.0781 71.6523C68.0781 71.6521 68.0781 71.6519 68.0781 71.6516C68.0781 71.6514 68.0781 71.6511 68.0781 71.6509C68.0781 71.6506 68.0781 71.6504 68.0781 71.6501C68.0781 71.6499 68.0781 71.6497 68.0781 71.6494C68.0781 71.6492 68.0781 71.6489 68.0781 71.6487C68.0781 71.6484 68.0781 71.6482 68.0781 71.6479C68.0781 71.6477 68.0781 71.6475 68.0781 71.6472C68.0781 71.647 68.0781 71.6467 68.0781 71.6465C68.0781 71.6462 68.0781 71.646 68.0781 71.6458C68.0781 71.6455 68.0781 71.6453 68.0781 71.645C68.0781 71.6448 68.0781 71.6445 68.0781 71.6443C68.0781 71.644 68.0781 71.6438 68.0781 71.6436C68.0781 71.6433 68.0781 71.6431 68.0781 71.6428C68.0781 71.6426 68.0781 71.6423 68.0781 71.6421C68.0781 71.6418 68.0781 71.6416 68.0781 71.6414C68.0781 71.6411 68.0781 71.6409 68.0781 71.6406C68.0781 71.6404 68.0781 71.6401 68.0781 71.6399C68.0781 71.6396 68.0781 71.6394 68.0781 71.6392C68.0781 71.6389 68.0781 71.6387 68.0781 71.6384C68.0781 71.6382 68.0781 71.6379 68.0781 71.6377C68.0781 71.6375 68.0781 71.6372 68.0781 71.637C68.0781 71.6367 68.0781 71.6365 68.0781 71.6362C68.0781 71.636 68.0781 71.6357 68.0781 71.6355C68.0781 71.6353 68.0781 71.635 68.0781 71.6348C68.0781 71.6345 68.0781 71.6343 68.0781 71.634C68.0781 71.6338 68.0781 71.6335 68.0781 71.6333C68.0781 71.6331 68.0781 71.6328 68.0781 71.6326C68.0781 71.6323 68.0781 71.6321 68.0781 71.6318C68.0781 71.6316 68.0781 71.6313 68.0781 71.6311C68.0781 71.6309 68.0781 71.6306 68.0781 71.6304C68.0781 71.6301 68.0781 71.6299 68.0781 71.6296C68.0781 71.6294 68.0781 71.6292 68.0781 71.6289C68.0781 71.6287 68.0781 71.6284 68.0781 71.6282C68.0781 71.6279 68.0781 71.6277 68.0781 71.6274C68.0781 71.6272 68.0781 71.627 68.0781 71.6267C68.0781 71.6265 68.0781 71.6262 68.0781 71.626C68.0781 71.6257 68.0781 71.6255 68.0781 71.6252C68.0781 71.625 68.0781 71.6248 68.0781 71.6245C68.0781 71.6243 68.0781 71.624 68.0781 71.6238C68.0781 71.6235 68.0781 71.6233 68.0781 71.623C68.0781 71.6228 68.0781 71.6226 68.0781 71.6223C68.0781 71.6221 68.0781 71.6218 68.0781 71.6216C68.0781 71.6213 68.0781 71.6211 68.0781 71.6208C68.0781 71.6206 68.0781 71.6204 68.0781 71.6201C68.0781 71.6199 68.0781 71.6196 68.0781 71.6194C68.0781 71.6191 68.0781 71.6189 68.0781 71.6187C68.0781 71.6184 68.0781 71.6182 68.0781 71.6179C68.0781 71.6177 68.0781 71.6174 68.0781 71.6172C68.0781 71.6169 68.0781 71.6167 68.0781 71.6165C68.0781 71.6162 68.0781 71.616 68.0781 71.6157C68.0781 71.6155 68.0781 71.6152 68.0781 71.615C68.0781 71.6147 68.0781 71.6145 68.0781 71.6143C68.0781 71.614 68.0781 71.6138 68.0781 71.6135C68.0781 71.6133 68.0781 71.613 68.0781 71.6128C68.0781 71.6125 68.0781 71.6123 68.0781 71.6121C68.0781 71.6118 68.0781 71.6116 68.0781 71.6113C68.0781 71.6111 68.0781 71.6108 68.0781 71.6106C68.0781 71.6104 68.0781 71.6101 68.0781 71.6099C68.0781 71.6096 68.0781 71.6094 68.0781 71.6091C68.0781 71.6089 68.0781 71.6086 68.0781 71.6084C68.0781 71.6082 68.0781 71.6079 68.0781 71.6077C68.0781 71.6074 68.0781 71.6072 68.0781 71.6069C68.0781 71.6067 68.0781 71.6064 68.0781 71.6062C68.0781 71.606 68.0781 71.6057 68.0781 71.6055C68.0781 71.6052 68.0781 71.605 68.0781 71.6047C68.0781 71.6045 68.0781 71.6042 68.0781 71.604C68.0781 71.6038 68.0781 71.6035 68.0781 71.6033C68.0781 71.603 68.0781 71.6028 68.0781 71.6025C68.0781 71.6023 68.0781 71.6021 68.0781 71.6018C68.0781 71.6016 68.0781 71.6013 68.0781 71.6011C68.0781 71.6008 68.0781 71.6006 68.0781 71.6003C68.0781 71.6001 68.0781 71.5999 68.0781 71.5996C68.0781 71.5994 68.0781 71.5991 68.0781 71.5989C68.0781 71.5986 68.0781 71.5984 68.0781 71.5981C68.0781 71.5979 68.0781 71.5977 68.0781 71.5974C68.0781 71.5972 68.0781 71.5969 68.0781 71.5967C68.0781 71.5964 68.0781 71.5962 68.0781 71.5959C68.0781 71.5957 68.0781 71.5955 68.0781 71.5952C68.0781 71.595 68.0781 71.5947 68.0781 71.5945C68.0781 71.5942 68.0781 71.594 68.0781 71.5938C68.0781 71.5935 68.0781 71.5933 68.0781 71.593C68.0781 71.5928 68.0781 71.5925 68.0781 71.5923C68.0781 71.592 68.0781 71.5918 68.0781 71.5916C68.0781 71.5913 68.0781 71.5911 68.0781 71.5908C68.0781 71.5906 68.0781 71.5903 68.0781 71.5901C68.0781 71.5898 68.0781 71.5896 68.0781 71.5894C68.0781 71.5891 68.0781 71.5889 68.0781 71.5886C68.0781 71.5884 68.0781 71.5881 68.0781 71.5879C68.0781 71.5876 68.0781 71.5874 68.0781 71.5872C68.0781 71.5869 68.0781 71.5867 68.0781 71.5864C68.0781 71.5862 68.0781 71.5859 68.0781 71.5857C68.0781 71.5854 68.0781 71.5852 68.0781 71.585C68.0781 71.5847 68.0781 71.5845 68.0781 71.5842C68.0781 71.584 68.0781 71.5837 68.0781 71.5835C68.0781 71.5833 68.0781 71.583 68.0781 71.5828C68.0781 71.5825 68.0781 71.5823 68.0781 71.582C68.0781 71.5818 68.0781 71.5815 68.0781 71.5813C68.0781 71.5811 68.0781 71.5808 68.0781 71.5806C68.0781 71.5803 68.0781 71.5801 68.0781 71.5798C68.0781 71.5796 68.0781 71.5793 68.0781 71.5791C68.0781 71.5789 68.0781 71.5786 68.0781 71.5784C68.0781 71.5781 68.0781 71.5779 68.0781 71.5776C68.0781 71.5774 68.0781 71.5771 68.0781 71.5769C68.0781 71.5767 68.0781 71.5764 68.0781 71.5762C68.0781 71.5759 68.0781 71.5757 68.0781 71.5754C68.0781 71.5752 68.0781 71.575 68.0781 71.5747C68.0781 71.5745 68.0781 71.5742 68.0781 71.574C68.0781 71.5737 68.0781 71.5735 68.0781 71.5732C68.0781 71.573 68.0781 71.5728 68.0781 71.5725C68.0781 71.5723 68.0781 71.572 68.0781 71.5718C68.0781 71.5715 68.0781 71.5713 68.0781 71.571C68.0781 71.5708 68.0781 71.5706 68.0781 71.5703C68.0781 71.5701 68.0781 71.5698 68.0781 71.5696C68.0781 71.5693 68.0781 71.5691 68.0781 71.5688C68.0781 71.5686 68.0781 71.5684 68.0781 71.5681C68.0781 71.5679 68.0781 71.5676 68.0781 71.5674C68.0781 71.5671 68.0781 71.5669 68.0781 71.5667C68.0781 71.5664 68.0781 71.5662 68.0781 71.5659C68.0781 71.5657 68.0781 71.5654 68.0781 71.5652C68.0781 71.5649 68.0781 71.5647 68.0781 71.5645C68.0781 71.5642 68.0781 71.564 68.0781 71.5637C68.0781 71.5635 68.0781 71.5632 68.0781 71.563C68.0781 71.5627 68.0781 71.5625 68.0781 71.5623C68.0781 71.562 68.0781 71.5618 68.0781 71.5615C68.0781 71.5613 68.0781 71.561 68.0781 71.5608C68.0781 71.5605 68.0781 71.5603 68.0781 71.5601C68.0781 71.5598 68.0781 71.5596 68.0781 71.5593C68.0781 71.5591 68.0781 71.5588 68.0781 71.5586C68.0781 71.5583 68.0781 71.5581 68.0781 71.5579C68.0781 71.5576 68.0781 71.5574 68.0781 71.5571C68.0781 71.5569 68.0781 71.5566 68.0781 71.5564C68.0781 71.5562 68.0781 71.5559 68.0781 71.5557C68.0781 71.5554 68.0781 71.5552 68.0781 71.5549C68.0781 71.5547 68.0781 71.5544 68.0781 71.5542C68.0781 71.554 68.0781 71.5537 68.0781 71.5535C68.0781 71.5532 68.0781 71.553 68.0781 71.5527C68.0781 71.5525 68.0781 71.5522 68.0781 71.552C68.0781 71.5518 68.0781 71.5515 68.0781 71.5513C68.0781 71.551 68.0781 71.5508 68.0781 71.5505C68.0781 71.5503 68.0781 71.55 68.0781 71.5498C68.0781 71.5496 68.0781 71.5493 68.0781 71.5491C68.0781 71.5488 68.0781 71.5486 68.0781 71.5483C68.0781 71.5481 68.0781 71.5479 68.0781 71.5476C68.0781 71.5474 68.0781 71.5471 68.0781 71.5469C68.0781 71.5466 68.0781 71.5464 68.0781 71.5461C68.0781 71.5459 68.0781 71.5457 68.0781 71.5454C68.0781 71.5452 68.0781 71.5449 68.0781 71.5447C68.0781 71.5444 68.0781 71.5442 68.0781 71.5439C68.0781 71.5437 68.0781 71.5435 68.0781 71.5432C68.0781 71.543 68.0781 71.5427 68.0781 71.5425C68.0781 71.5422 68.0781 71.542 68.0781 71.5417C68.0781 71.5415 68.0781 71.5413 68.0781 71.541C68.0781 71.5408 68.0781 71.5405 68.0781 71.5403C68.0781 71.54 68.0781 71.5398 68.0781 71.5396C68.0781 71.5393 68.0781 71.5391 68.0781 71.5388C68.0781 71.5386 68.0781 71.5383 68.0781 71.5381C68.0781 71.5378 68.0781 71.5376 68.0781 71.5374C68.0781 71.5371 68.0781 71.5369 68.0781 71.5366C68.0781 71.5364 68.0781 71.5361 68.0781 71.5359C68.0781 71.5356 68.0781 71.5354 68.0781 71.5352C68.0781 71.5349 68.0781 71.5347 68.0781 71.5344C68.0781 71.5342 68.0781 71.5339 68.0781 71.5337C68.0781 71.5334 68.0781 71.5332 68.0781 71.533C68.0781 71.5327 68.0781 71.5325 68.0781 71.5322C68.0781 71.532 68.0781 71.5317 68.0781 71.5315C68.0781 71.5312 68.0781 71.531 68.0781 71.5308C68.0781 71.5305 68.0781 71.5303 68.0781 71.53C68.0781 71.5298 68.0781 71.5295 68.0781 71.5293C68.0781 71.5291 68.0781 71.5288 68.0781 71.5286C68.0781 71.5283 68.0781 71.5281 68.0781 71.5278C68.0781 71.5276 68.0781 71.5273 68.0781 71.5271C68.0781 71.5269 68.0781 71.5266 68.0781 71.5264C68.0781 71.5261 68.0781 71.5259 68.0781 71.5256C68.0781 71.5254 68.0781 71.5251 68.0781 71.5249C68.0781 71.5247 68.0781 71.5244 68.0781 71.5242C68.0781 71.5239 68.0781 71.5237 68.0781 71.5234C68.0781 71.5232 68.0781 71.5229 68.0781 71.5227C68.0781 71.5225 68.0781 71.5222 68.0781 71.522C68.0781 71.5217 68.0781 71.5215 68.0781 71.5212C68.0781 71.521 68.0781 71.5208 68.0781 71.5205C68.0781 71.5203 68.0781 71.52 68.0781 71.5198C68.0781 71.5195 68.0781 71.5193 68.0781 71.519C68.0781 71.5188 68.0781 71.5186 68.0781 71.5183C68.0781 71.5181 68.0781 71.5178 68.0781 71.5176C68.0781 71.5173 68.0781 71.5171 68.0781 71.5168C68.0781 71.5166 68.0781 71.5164 68.0781 71.5161C68.0781 71.5159 68.0781 71.5156 68.0781 71.5154C68.0781 71.5151 68.0781 71.5149 68.0781 71.5146C68.0781 71.5144 68.0781 71.5142 68.0781 71.5139C68.0781 71.5137 68.0781 71.5134 68.0781 71.5132C68.0781 71.5129 68.0781 71.5127 68.0781 71.5125C68.0781 71.5122 68.0781 71.512 68.0781 71.5117C68.0781 71.5115 68.0781 71.5112 68.0781 71.511C68.0781 71.5107 68.0781 71.5105 68.0781 71.5103C68.0781 71.51 68.0781 71.5098 68.0781 71.5095C68.0781 71.5093 68.0781 71.509 68.0781 71.5088C68.0781 71.5085 68.0781 71.5083 68.0781 71.5081C68.0781 71.5078 68.0781 71.5076 68.0781 71.5073C68.0781 71.5071 68.0781 71.5068 68.0781 71.5066C68.0781 71.5063 68.0781 71.5061 68.0781 71.5059C68.0781 71.5056 68.0781 71.5054 68.0781 71.5051C68.0781 71.5049 68.0781 71.5046 68.0781 71.5044C68.0781 71.5042 68.0781 71.5039 68.0781 71.5037C68.0781 71.5034 68.0781 71.5032 68.0781 71.5029C68.0781 71.5027 68.0781 71.5024 68.0781 71.5022C68.0781 71.502 68.0781 71.5017 68.0781 71.5015C68.0781 71.5012 68.0781 71.501 68.0781 71.5007C68.0781 71.5005 68.0781 71.5002 68.0781 71.5C68.0781 71.4998 68.0781 71.4995 68.0781 71.4993C68.0781 71.499 68.0781 71.4988 68.0781 71.4985C68.0781 71.4983 68.0781 71.498 68.0781 71.4978C68.0781 71.4976 68.0781 71.4973 68.0781 71.4971C68.0781 71.4968 68.0781 71.4966 68.0781 71.4963C68.0781 71.4961 68.0781 71.4958 68.0781 71.4956C68.0781 71.4954 68.0781 71.4951 68.0781 71.4949C68.0781 71.4946 68.0781 71.4944 68.0781 71.4941C68.0781 71.4939 68.0781 71.4937 68.0781 71.4934C68.0781 71.4932 68.0781 71.4929 68.0781 71.4927C68.0781 71.4924 68.0781 71.4922 68.0781 71.4919C68.0781 71.4917 68.0781 71.4915 68.0781 71.4912C68.0781 71.491 68.0781 71.4907 68.0781 71.4905C68.0781 71.4902 68.0781 71.49 68.0781 71.4897C68.0781 71.4895 68.0781 71.4893 68.0781 71.489C68.0781 71.4888 68.0781 71.4885 68.0781 71.4883C68.0781 71.488 68.0781 71.4878 68.0781 71.4875C68.0781 71.4873 68.0781 71.4871 68.0781 71.4868C68.0781 71.4866 68.0781 71.4863 68.0781 71.4861C68.0781 71.4858 68.0781 71.4856 68.0781 71.4854C68.0781 71.4851 68.0781 71.4849 68.0781 71.4846C68.0781 71.4844 68.0781 71.4841 68.0781 71.4839C68.0781 71.4836 68.0781 71.4834 68.0781 71.4832C68.0781 71.4829 68.0781 71.4827 68.0781 71.4824C68.0781 71.4822 68.0781 71.4819 68.0781 71.4817C68.0781 71.4814 68.0781 71.4812 68.0781 71.481C68.0781 71.4807 68.0781 71.4805 68.0781 71.4802C68.0781 71.48 68.0781 71.4797 68.0781 71.4795C68.0781 71.4792 68.0781 71.479 68.0781 71.4788C68.0781 71.4785 68.0781 71.4783 68.0781 71.478C68.0781 71.4778 68.0781 71.4775 68.0781 71.4773C68.0781 71.4771 68.0781 71.4768 68.0781 71.4766C68.0781 71.4763 68.0781 71.4761 68.0781 71.4758C68.0781 71.4756 68.0781 71.4753 68.0781 71.4751C68.0781 71.4749 68.0781 71.4746 68.0781 71.4744C68.0781 71.4741 68.0781 71.4739 68.0781 71.4736C68.0781 71.4734 68.0781 71.4731 68.0781 71.4729C68.0781 71.4727 68.0781 71.4724 68.0781 71.4722C68.0781 71.4719 68.0781 71.4717 68.0781 71.4714C68.0781 71.4712 68.0781 71.4709 68.0781 71.4707C68.0781 71.4705 68.0781 71.4702 68.0781 71.47C68.0781 71.4697 68.0781 71.4695 68.0781 71.4692C68.0781 71.469 68.0781 71.4688 68.0781 71.4685C68.0781 71.4683 68.0781 71.468 68.0781 71.4678C68.0781 71.4675 68.0781 71.4673 68.0781 71.467C68.0781 71.4668 68.0781 71.4666 68.0781 71.4663C68.0781 71.4661 68.0781 71.4658 68.0781 71.4656C68.0781 71.4653 68.0781 71.4651 68.0781 71.4648C68.0781 71.4646 68.0781 71.4644 68.0781 71.4641C68.0781 71.4639 68.0781 71.4636 68.0781 71.4634C68.0781 71.4631 68.0781 71.4629 68.0781 71.4626C68.0781 71.4624 68.0781 71.4622 68.0781 71.4619C68.0781 71.4617 68.0781 71.4614 68.0781 71.4612C68.0781 71.4609 68.0781 71.4607 68.0781 71.4604C68.0781 71.4602 68.0781 71.46 68.0781 71.4597C68.0781 71.4595 68.0781 71.4592 68.0781 71.459C68.0781 71.4587 68.0781 71.4585 68.0781 71.4583C68.0781 71.458 68.0781 71.4578 68.0781 71.4575C68.0781 71.4573 68.0781 71.457 68.0781 71.4568C68.0781 71.4565 68.0781 71.4563 68.0781 71.4561C68.0781 71.4558 68.0781 71.4556 68.0781 71.4553C68.0781 71.4551 68.0781 71.4548 68.0781 71.4546C68.0781 71.4543 68.0781 71.4541 68.0781 71.4539C68.0781 71.4536 68.0781 71.4534 68.0781 71.4531C68.0781 71.4529 68.0781 71.4526 68.0781 71.4524C68.0781 71.4521 68.0781 71.4519 68.0781 71.4517C68.0781 71.4514 68.0781 71.4512 68.0781 71.4509C68.0781 71.4507 68.0781 71.4504 68.0781 71.4502C68.0781 71.45 68.0781 71.4497 68.0781 71.4495C68.0781 71.4492 68.0781 71.449 68.0781 71.4487C68.0781 71.4485 68.0781 71.4482 68.0781 71.448C68.0781 71.4478 68.0781 71.4475 68.0781 71.4473C68.0781 71.447 68.0781 71.4468 68.0781 71.4465C68.0781 71.4463 68.0781 71.446 68.0781 71.4458C68.0781 71.4456 68.0781 71.4453 68.0781 71.4451C68.0781 71.4448 68.0781 71.4446 68.0781 71.4443C68.0781 71.4441 68.0781 71.4438 68.0781 71.4436C68.0781 71.4434 68.0781 71.4431 68.0781 71.4429C68.0781 71.4426 68.0781 71.4424 68.0781 71.4421C68.0781 71.4419 68.0781 71.4417 68.0781 71.4414C68.0781 71.4412 68.0781 71.4409 68.0781 71.4407C68.0781 71.4404 68.0781 71.4402 68.0781 71.4399C68.0781 71.4397 68.0781 71.4395 68.0781 71.4392C68.0781 71.439 68.0781 71.4387 68.0781 71.4385C68.0781 71.4382 68.0781 71.438 68.0781 71.4377C68.0781 71.4375 68.0781 71.4373 68.0781 71.437C68.0781 71.4368 68.0781 71.4365 68.0781 71.4363C68.0781 71.436 68.0781 71.4358 68.0781 71.4355C68.0781 71.4353 68.0781 71.4351 68.0781 71.4348C68.0781 71.4346 68.0781 71.4343 68.0781 71.4341C68.0781 71.4338 68.0781 71.4336 68.0781 71.4333C68.0781 71.4331 68.0781 71.4329 68.0781 71.4326C68.0781 71.4324 68.0781 71.4321 68.0781 71.4319C68.0781 71.4316 68.0781 71.4314 68.0781 71.4312C68.0781 71.4309 68.0781 71.4307 68.0781 71.4304C68.0781 71.4302 68.0781 71.4299 68.0781 71.4297C68.0781 71.4294 68.0781 71.4292 68.0781 71.429C68.0781 71.4287 68.0781 71.4285 68.0781 71.4282C68.0781 71.428 68.0781 71.4277 68.0781 71.4275C68.0781 71.4272 68.0781 71.427 68.0781 71.4268C68.0781 71.4265 68.0781 71.4263 68.0781 71.426C68.0781 71.4258 68.0781 71.4255 68.0781 71.4253C68.0781 71.425 68.0781 71.4248 68.0781 71.4246C68.0781 71.4243 68.0781 71.4241 68.0781 71.4238C68.0781 71.4236 68.0781 71.4233 68.0781 71.4231C68.0781 71.4229 68.0781 71.4226 68.0781 71.4224C68.0781 71.4221 68.0781 71.4219 68.0781 71.4216C68.0781 71.4214 68.0781 71.4211 68.0781 71.4209C68.0781 71.4207 68.0781 71.4204 68.0781 71.4202C68.0781 71.4199 68.0781 71.4197 68.0781 71.4194C68.0781 71.4192 68.0781 71.4189 68.0781 71.4187C68.0781 71.4185 68.0781 71.4182 68.0781 71.418C68.0781 71.4177 68.0781 71.4175 68.0781 71.4172C68.0781 71.417 68.0781 71.4167 68.0781 71.4165C68.0781 71.4163 68.0781 71.416 68.0781 71.4158C68.0781 71.4155 68.0781 71.4153 68.0781 71.415C68.0781 71.4148 68.0781 71.4146 68.0781 71.4143C68.0781 71.4141 68.0781 71.4138 68.0781 71.4136C68.0781 71.4133 68.0781 71.4131 68.0781 71.4128C68.0781 71.4126 68.0781 71.4124 68.0781 71.4121C68.0781 71.4119 68.0781 71.4116 68.0781 71.4114C68.0781 71.4111 68.0781 71.4109 68.0781 71.4106C68.0781 71.4104 68.0781 71.4102 68.0781 71.4099C68.0781 71.4097 68.0781 71.4094 68.0781 71.4092C68.0781 71.4089 68.0781 71.4087 68.0781 71.4084C68.0781 71.4082 68.0781 71.408 68.0781 71.4077C68.0781 71.4075 68.0781 71.4072 68.0781 71.407C68.0781 71.4067 68.0781 71.4065 68.0781 71.4062H64.0781ZM64.0781 71.7812C64.0781 71.9898 64.0912 72.1977 64.117 72.4043L68.0861 71.9082C68.0807 71.8648 68.0781 71.8227 68.0781 71.7812H64.0781ZM83.625 66.8125C83.625 67.7056 83.4807 68.4332 83.2359 69.0292L86.936 70.5489C87.4099 69.3949 87.625 68.1382 87.625 66.8125H83.625ZM83.2408 69.0175C82.9729 69.6581 82.6131 70.2085 82.1611 70.6832L85.0577 73.4418C85.8556 72.604 86.4803 71.6387 86.9311 70.5607L83.2408 69.0175ZM82.1438 70.7016C81.6825 71.1984 81.1391 71.6248 80.5024 71.9798L82.4507 75.4733C83.439 74.9221 84.3175 74.2391 85.075 73.4234L82.1438 70.7016ZM80.5024 71.9798C79.8094 72.3663 79.0637 72.6896 78.2619 72.9478L79.4881 76.7553C80.53 76.4197 81.5187 75.9931 82.4507 75.4733L80.5024 71.9798ZM78.2914 72.9386C77.481 73.1858 76.639 73.3657 75.7637 73.4769L76.2676 77.445C77.361 77.3062 78.4252 77.0798 79.4586 76.7645L78.2914 72.9386ZM75.7597 73.4774C74.8708 73.5921 74.0111 73.6484 73.1797 73.6484V77.6484C74.192 77.6484 75.2229 77.5798 76.2716 77.4445L75.7597 73.4774ZM73.1797 73.6484C72.097 73.6484 71.0315 73.5763 69.9824 73.4326L69.4395 77.3956C70.6717 77.5643 71.9186 77.6484 73.1797 77.6484V73.6484ZM70.0089 73.4364C68.9775 73.281 67.9589 73.0406 66.9523 72.7145L65.7196 76.5198C66.9317 76.9125 68.1631 77.2034 69.4129 77.3917L70.0089 73.4364ZM64.3631 74.946C64.5578 76.114 64.8691 77.2375 65.2993 78.3131L69.0132 76.8275C68.6934 76.0281 68.4578 75.1829 68.3087 74.2884L64.3631 74.946ZM65.3037 78.3239C65.7594 79.4442 66.3768 80.4538 67.1614 81.3365L70.1511 78.6791C69.6857 78.1556 69.3031 77.5402 69.0088 76.8167L65.3037 78.3239ZM67.1764 81.3532C67.9991 82.2582 68.9951 82.9624 70.135 83.4735L71.7712 79.8234C71.0987 79.5219 70.5634 79.1324 70.1361 78.6625L67.1764 81.3532ZM70.1466 83.4786C71.376 84.0204 72.7482 84.2578 74.2109 84.2578V80.2578C73.1737 80.2578 72.374 80.089 71.7596 79.8183L70.1466 83.4786ZM74.2109 84.2578C75.2437 84.2578 76.2471 84.1013 77.2106 83.7802L75.9457 79.9854C75.4091 80.1643 74.8344 80.2578 74.2109 80.2578V84.2578ZM77.2106 83.7802C78.1495 83.4672 79.0203 83.0232 79.8146 82.4473L77.4667 79.2089C77.0109 79.5393 76.5068 79.7984 75.9457 79.9854L77.2106 83.7802ZM79.8146 82.4473C80.6037 81.8752 81.2937 81.1943 81.8813 80.4109L78.6812 78.0109C78.3313 78.4776 77.9275 78.8748 77.4667 79.2089L79.8146 82.4473ZM81.8621 80.4361C82.4693 79.6525 82.9538 78.7869 83.3178 77.8481L79.5884 76.4019C79.3587 76.9943 79.0619 77.5194 78.7004 77.9858L81.8621 80.4361ZM80.7593 79.0008L84.1812 80.2664L85.5688 76.5148L82.1469 75.2492L80.7593 79.0008ZM83.0295 77.6197C82.6099 78.6243 82.0419 79.4734 81.328 80.1873L84.1564 83.0158C85.255 81.9172 86.1089 80.6257 86.7205 79.1615L83.0295 77.6197ZM81.328 80.1873C80.5846 80.9307 79.7353 81.5525 78.7718 82.0541L80.6188 85.6022C81.9365 84.9162 83.1185 84.0537 84.1564 83.0158L81.328 80.1873ZM78.7812 82.0493C77.8153 82.5456 76.776 82.9181 75.6571 83.1637L76.5148 87.0707C77.9584 86.7538 79.3253 86.2669 80.6095 85.607L78.7812 82.0493ZM75.6521 83.1648C74.5236 83.4156 73.4112 83.5391 72.3125 83.5391V87.5391C73.7138 87.5391 75.117 87.3813 76.5198 87.0696L75.6521 83.1648ZM72.3125 83.5391C70.476 83.5391 68.8205 83.2338 67.3251 82.6463L65.8624 86.3693C67.867 87.1568 70.024 87.5391 72.3125 87.5391V83.5391ZM67.3394 82.652C65.8208 82.0419 64.5411 81.2074 63.4757 80.1552L60.6649 83.0011C62.1307 84.4488 63.8667 85.5675 65.8481 86.3636L67.3394 82.652ZM63.4757 80.1552C62.4103 79.1028 61.5638 77.8377 60.9414 76.3359L57.2461 77.8672C58.0612 79.8341 59.1991 81.5534 60.6649 83.0011L63.4757 80.1552ZM60.9414 76.3359C60.3327 74.8672 60.0156 73.232 60.0156 71.4062H56.0156C56.0156 73.7055 56.4173 75.8672 57.2461 77.8672L60.9414 76.3359ZM60.0156 71.4062C60.0156 69.5805 60.3327 67.9453 60.9414 66.4766L57.2461 64.9453C56.4173 66.9453 56.0156 69.107 56.0156 71.4062H60.0156ZM60.9414 66.4766C61.5638 64.9748 62.4103 63.7097 63.4757 62.6573L60.6649 59.8114C59.1991 61.2591 58.0612 62.9784 57.2461 64.9453L60.9414 66.4766ZM63.4757 62.6573C64.5378 61.6084 65.8125 60.7838 67.3251 60.1896L65.8624 56.4666C63.875 57.2474 62.1341 58.3604 60.6649 59.8114L63.4757 62.6573ZM67.3394 60.1839C68.831 59.5846 70.4815 59.2734 72.3125 59.2734V55.2734C70.0185 55.2734 67.8565 55.6654 65.8481 56.4723L67.3394 60.1839ZM72.3125 59.2734C73.2186 59.2734 74.153 59.3371 75.1165 59.4666L75.6491 55.5022C74.5189 55.3504 73.4064 55.2734 72.3125 55.2734V59.2734ZM75.1165 59.4666C76.0511 59.5921 76.9532 59.7937 77.8245 60.0703L79.0348 56.2578C77.9374 55.9094 76.8083 55.6579 75.6491 55.5022L75.1165 59.4666ZM77.8522 60.0789C78.7045 60.3359 79.5027 60.672 80.2501 61.0857L82.1874 57.5862C81.1848 57.0311 80.1236 56.5859 79.0072 56.2492L77.8522 60.0789ZM80.2501 61.0857C80.9357 61.4652 81.5142 61.9273 81.9992 62.4714L84.9852 59.8099C84.1889 58.9164 83.2518 58.1754 82.1874 57.5862L80.2501 61.0857ZM82.0301 62.5053C82.509 63.0184 82.8944 63.6252 83.1821 64.3443L86.896 62.8588C86.4337 61.7029 85.7879 60.6691 84.9543 59.776L82.0301 62.5053ZM83.1929 64.3708C83.465 65.0239 83.625 65.8255 83.625 66.8125H87.625C87.625 65.3932 87.3943 64.0542 86.8852 62.8323L83.1929 64.3708ZM100.766 85V87H102.766V85H100.766ZM92.8203 85H90.8203V87H92.8203V85ZM92.8203 61.0703H94.8203V59.0703H92.8203V61.0703ZM87.8984 61.0703H85.8984V63.0703H87.8984V61.0703ZM87.8984 57.9297V55.9297H85.8984V57.9297H87.8984ZM92.8203 57.9297V59.9297H94.8203V57.9297H92.8203ZM92.8203 47.9688V45.9688H90.8203V47.9688H92.8203ZM100.766 47.9688H102.766V45.9688H100.766V47.9688ZM100.766 57.9297H98.7656V59.9297H100.766V57.9297ZM108.969 57.9297H110.969V55.9297H108.969V57.9297ZM108.969 61.0703V63.0703H110.969V61.0703H108.969ZM100.766 61.0703V59.0703H98.7656V61.0703H100.766ZM100.766 83H92.8203V87H100.766V83ZM94.8203 85V61.0703H90.8203V85H94.8203ZM92.8203 59.0703H87.8984V63.0703H92.8203V59.0703ZM89.8984 61.0703V57.9297H85.8984V61.0703H89.8984ZM87.8984 59.9297H92.8203V55.9297H87.8984V59.9297ZM94.8203 57.9297V47.9688H90.8203V57.9297H94.8203ZM92.8203 49.9688H100.766V45.9688H92.8203V49.9688ZM98.7656 47.9688V57.9297H102.766V47.9688H98.7656ZM100.766 59.9297H108.969V55.9297H100.766V59.9297ZM106.969 57.9297V61.0703H110.969V57.9297H106.969ZM108.969 59.0703H100.766V63.0703H108.969V59.0703ZM98.7656 61.0703V85H102.766V61.0703H98.7656ZM139.016 85V87H141.016V85H139.016ZM131.094 85H129.094V87H131.094V85ZM131.094 81.7656H133.094V75.6454L129.48 80.5846L131.094 81.7656ZM127.695 84.625L128.538 86.439L128.547 86.4346L127.695 84.625ZM113.703 81.4375L112.2 82.7571L112.208 82.7662L113.703 81.4375ZM113.703 61.3984L115.198 62.7272L115.206 62.718L113.703 61.3984ZM126.336 57.7422L125.703 59.6396L125.713 59.6426L126.336 57.7422ZM128.938 59.0781L127.748 60.6858L127.766 60.6991L127.784 60.7121L128.938 59.0781ZM131.023 61.1406L129.409 62.3207L129.421 62.3382L129.435 62.3555L131.023 61.1406ZM132.453 63.8125L130.565 64.4719L131.975 68.5107L134.17 64.8385L132.453 63.8125ZM135.969 57.9297V55.9297H134.834L134.252 56.9037L135.969 57.9297ZM139.016 57.9297H141.016V55.9297H139.016V57.9297ZM130.93 69.1797L128.936 69.3392L128.938 69.359L128.94 69.3787L130.93 69.1797ZM129.852 64.6797L128.009 65.4576L128.02 65.4826L128.031 65.5073L129.852 64.6797ZM128.68 62.8281L127.161 64.1297L127.181 64.153L127.202 64.1756L128.68 62.8281ZM122.305 61.5625L123.165 63.3682L123.182 63.36L123.199 63.3514L122.305 61.5625ZM120.617 62.8516L122.117 64.1748L122.126 64.164L122.136 64.1531L120.617 62.8516ZM119.445 64.7031L117.618 63.8908L117.61 63.9079L117.603 63.9252L119.445 64.7031ZM118.367 69.2266L116.377 69.0276L116.375 69.0457L116.374 69.0638L118.367 69.2266ZM118.367 73.6094L116.374 73.7689L116.375 73.7886L116.377 73.8084L118.367 73.6094ZM119.445 78.1328L117.603 78.9108L117.61 78.928L117.618 78.9451L119.445 78.1328ZM120.617 80.0078L119.099 81.3094L119.108 81.3203L119.118 81.3311L120.617 80.0078ZM122.305 81.2969L121.41 83.0857L121.427 83.0943L121.445 83.1026L122.305 81.2969ZM126.781 81.2734L127.711 83.0442L127.719 83.04L127.727 83.0358L126.781 81.2734ZM128.445 79.9141L126.93 78.609L126.919 78.6213L126.909 78.6337L128.445 79.9141ZM130.906 73.4922L132.891 73.7403L132.891 73.7353L130.906 73.4922ZM139.016 83H131.094V87H139.016V83ZM133.094 85V81.7656H129.094V85H133.094ZM129.48 80.5846C128.723 81.6185 127.845 82.3443 126.844 82.8154L128.547 86.4346C130.202 85.6557 131.589 84.4753 132.708 82.9466L129.48 80.5846ZM126.853 82.811C125.828 83.2871 124.673 83.5391 123.359 83.5391V87.5391C125.202 87.5391 126.938 87.1817 128.538 86.439L126.853 82.811ZM123.359 83.5391C121.537 83.5391 119.98 83.2154 118.652 82.615L117.004 86.26C118.926 87.1283 121.057 87.5391 123.359 87.5391V83.5391ZM118.652 82.615C117.269 81.99 116.127 81.1534 115.198 80.1088L112.208 82.7662C113.53 84.2528 115.137 85.4163 117.004 86.26L118.652 82.615ZM115.206 80.1179C114.263 79.0443 113.53 77.7745 113.015 76.2845L109.235 77.5905C109.907 79.538 110.893 81.2682 112.2 82.7571L115.206 80.1179ZM113.015 76.2845C112.5 74.7925 112.234 73.1711 112.234 71.4062H108.234C108.234 73.5789 108.563 75.645 109.235 77.5905L113.015 76.2845ZM112.234 71.4062C112.234 69.6414 112.5 68.02 113.015 66.528L109.235 65.222C108.563 67.1675 108.234 69.2336 108.234 71.4062H112.234ZM113.015 66.528C113.53 65.0398 114.261 63.7816 115.198 62.7272L112.208 60.0697C110.896 61.5465 109.908 63.2727 109.235 65.222L113.015 66.528ZM115.206 62.718C116.134 61.6607 117.274 60.8201 118.652 60.1975L117.004 56.5525C115.132 57.3987 113.522 58.5737 112.2 60.0788L115.206 62.718ZM118.652 60.1975C119.98 59.5971 121.537 59.2734 123.359 59.2734V55.2734C121.057 55.2734 118.926 55.6842 117.004 56.5525L118.652 60.1975ZM123.359 59.2734C124.204 59.2734 124.982 59.399 125.703 59.6396L126.968 55.8448C125.815 55.4604 124.608 55.2734 123.359 55.2734V59.2734ZM125.713 59.6426C126.469 59.8906 127.144 60.239 127.748 60.6858L130.127 57.4704C129.168 56.761 128.109 56.2187 126.959 55.8417L125.713 59.6426ZM127.784 60.7121C128.398 61.1454 128.939 61.6779 129.409 62.3207L132.638 59.9606C131.92 58.9784 131.071 58.1359 130.091 57.4442L127.784 60.7121ZM129.435 62.3555C129.91 62.9777 130.288 63.6794 130.565 64.4719L134.341 63.1531C133.931 61.9768 133.355 60.8973 132.612 59.9257L129.435 62.3555ZM134.17 64.8385L137.686 58.9557L134.252 56.9037L130.736 62.7865L134.17 64.8385ZM135.969 59.9297H139.016V55.9297H135.969V59.9297ZM137.016 57.9297V85H141.016V57.9297H137.016ZM133.047 71.4062C133.047 70.6295 133.004 69.8206 132.92 68.9807L128.94 69.3787C129.012 70.1013 129.047 70.7767 129.047 71.4062H133.047ZM132.923 69.0202C132.853 68.1451 132.722 67.2786 132.53 66.4213L128.627 67.2975C128.778 67.9714 128.881 68.6518 128.936 69.3392L132.923 69.0202ZM132.53 66.4213C132.329 65.5269 132.044 64.6694 131.672 63.8521L128.031 65.5073C128.284 66.065 128.484 66.6606 128.627 67.2975L132.53 66.4213ZM131.694 63.9017C131.314 63.0024 130.804 62.1897 130.158 61.4806L127.202 64.1756C127.524 64.529 127.795 64.9507 128.009 65.4576L131.694 63.9017ZM130.198 61.5265C129.538 60.7565 128.735 60.155 127.812 59.7256L126.125 63.3525C126.546 63.5481 126.884 63.806 127.161 64.1297L130.198 61.5265ZM127.812 59.7256C126.828 59.2679 125.749 59.0703 124.625 59.0703V63.0703C125.282 63.0703 125.766 63.1852 126.125 63.3525L127.812 59.7256ZM124.625 59.0703C123.489 59.0703 122.397 59.2801 121.41 59.7736L123.199 63.3514C123.524 63.1887 123.979 63.0703 124.625 63.0703V59.0703ZM121.445 59.7568C120.539 60.1883 119.751 60.7889 119.099 61.55L122.136 64.1531C122.421 63.8205 122.758 63.5617 123.165 63.3682L121.445 59.7568ZM119.118 61.5283C118.503 62.2248 118.006 63.0176 117.618 63.8908L121.273 65.5154C121.51 64.9824 121.794 64.5409 122.117 64.1748L119.118 61.5283ZM117.603 63.9252C117.258 64.7412 116.988 65.5895 116.791 66.4682L120.694 67.3443C120.84 66.6917 121.039 66.0713 121.288 65.4811L117.603 63.9252ZM116.791 66.4682C116.601 67.3127 116.463 68.166 116.377 69.0276L120.357 69.4256C120.427 68.7247 120.539 68.0311 120.694 67.3443L116.791 66.4682ZM116.374 69.0638C116.307 69.8774 116.273 70.6586 116.273 71.4062H120.273C120.273 70.7789 120.302 70.107 120.361 69.3893L116.374 69.0638ZM116.273 71.4062C116.273 72.1537 116.307 72.9417 116.374 73.7689L120.361 73.4499C120.302 72.7145 120.273 72.0338 120.273 71.4062H116.273ZM116.377 73.8084C116.463 74.67 116.601 75.5233 116.791 76.3678L120.694 75.4916C120.539 74.8049 120.427 74.1113 120.357 73.4104L116.377 73.8084ZM116.791 76.3678C116.988 77.2464 117.258 78.0948 117.603 78.9108L121.288 77.3549C121.039 76.7646 120.84 76.1442 120.694 75.4916L116.791 76.3678ZM117.618 78.9451C118.004 79.8134 118.495 80.6056 119.099 81.3094L122.136 78.7062C121.801 78.3163 121.512 77.8585 121.273 77.3205L117.618 78.9451ZM119.118 81.3311C119.762 82.0618 120.533 82.6469 121.41 83.0857L123.199 79.508C122.764 79.2906 122.41 79.0163 122.117 78.6846L119.118 81.3311ZM121.445 83.1026C122.423 83.5685 123.503 83.7656 124.625 83.7656V79.7656C123.966 79.7656 123.499 79.6502 123.165 79.4912L121.445 83.1026ZM124.625 83.7656C125.712 83.7656 126.759 83.5442 127.711 83.0442L125.852 79.5026C125.554 79.6589 125.163 79.7656 124.625 79.7656V83.7656ZM127.727 83.0358C128.595 82.5698 129.35 81.9525 129.982 81.1944L126.909 78.6337C126.603 79.0006 126.249 79.2895 125.836 79.5111L127.727 83.0358ZM129.961 81.2191C130.576 80.5047 131.082 79.7022 131.483 78.8228L127.845 77.1616C127.59 77.7197 127.283 78.1985 126.93 78.609L129.961 81.2191ZM131.483 78.8228C131.858 78.0012 132.162 77.1528 132.394 76.2785L128.528 75.2528C128.354 75.9097 128.126 76.5456 127.845 77.1616L131.483 78.8228ZM132.394 76.2785C132.619 75.43 132.785 74.5837 132.891 73.7403L128.922 73.2441C128.84 73.9006 128.709 74.57 128.528 75.2528L132.394 76.2785ZM132.891 73.7353C132.993 72.9068 133.047 72.1287 133.047 71.4062H129.047C129.047 71.9338 129.007 72.5463 128.921 73.2491L132.891 73.7353ZM153.57 85V87H155.57V85H153.57ZM145.648 85H143.648V87H145.648V85ZM145.648 45.4609V43.4609H143.648V45.4609H145.648ZM148.695 45.4609L150.416 44.4413L149.835 43.4609H148.695V45.4609ZM153.57 53.6875H155.57V53.1394L155.291 52.6679L153.57 53.6875ZM153.57 83H145.648V87H153.57V83ZM147.648 85V45.4609H143.648V85H147.648ZM145.648 47.4609H148.695V43.4609H145.648V47.4609ZM146.975 46.4805L151.85 54.7071L155.291 52.6679L150.416 44.4413L146.975 46.4805ZM151.57 53.6875V85H155.57V53.6875H151.57Z" fill="black" mask="url(#path-2-outside-1_1187_1103)"/>
</g>
</g>
<defs>
<filter id="filter0_d_1187_1103" x="17.7656" y="20.7109" width="138.219" height="60.2891" filterUnits="userSpaceOnUse" color-interpolation-filters="sRGB">
<feFlood flood-opacity="0" result="BackgroundImageFix"/>
<feColorMatrix in="SourceAlpha" type="matrix" values="0 0 0 0 0 0 0 0 0 0 0 0 0 0 0 0 0 0 127 0" result="hardAlpha"/>
<feOffset dx="3" dy="3"/>
<feGaussianBlur stdDeviation="0.5"/>
<feComposite in2="hardAlpha" operator="out"/>
<feColorMatrix type="matrix" values="0 0 0 0 0 0 0 0 0 0 0 0 0 0 0 0 0 0 0.25 0"/>
<feBlend mode="normal" in2="BackgroundImageFix" result="effect1_dropShadow_1187_1103"/>
<feBlend mode="normal" in="SourceGraphic" in2="effect1_dropShadow_1187_1103" result="shape"/>
</filter>
<filter id="filter1_d_1187_1103" x="6.42969" y="43.4609" width="153.141" height="57.7446" filterUnits="userSpaceOnUse" color-interpolation-filters="sRGB">
<feFlood flood-opacity="0" result="BackgroundImageFix"/>
<feColorMatrix in="SourceAlpha" type="matrix" values="0 0 0 0 0 0 0 0 0 0 0 0 0 0 0 0 0 0 127 0" result="hardAlpha"/>
<feOffset dy="4"/>
<feGaussianBlur stdDeviation="2"/>
<feComposite in2="hardAlpha" operator="out"/>
<feColorMatrix type="matrix" values="0 0 0 0 0 0 0 0 0 0 0 0 0 0 0 0 0 0 0.25 0"/>
<feBlend mode="normal" in2="BackgroundImageFix" result="effect1_dropShadow_1187_1103"/>
<feBlend mode="normal" in="SourceGraphic" in2="effect1_dropShadow_1187_1103" result="shape"/>
</filter>
<linearGradient id="paint0_linear_1187_1103" x1="-9.5" y1="-3" x2="27.7749" y2="157.524" gradientUnits="userSpaceOnUse">
<stop offset="0.174607" stop-color="#656464"/>
<stop offset="0.335621" stop-color="white"/>
<stop offset="0.687359"/>
</linearGradient>
<clipPath id="clip0_1187_1103">
<rect width="166" height="111" fill="white"/>
</clipPath>
</defs>
</svg>
