<svg width="24" height="26" viewBox="0 0 24 26" fill="none" xmlns="http://www.w3.org/2000/svg">
<circle cx="12" cy="10" r="10" fill="#FFDAB9"/>
<g filter="url(#filter0_d_623_755)">
<path d="M19.3334 9.87908C19.3334 5.71163 15.9755 2.33325 11.8334 2.33325C7.69124 2.33325 4.33337 5.71163 4.33337 9.87908C4.33337 13.6454 7.076 16.7672 10.6615 17.3333V12.0603H8.7572V9.87908H10.6615V8.21664C10.6615 6.32547 11.7812 5.28084 13.4943 5.28084C14.315 5.28084 15.1732 5.42822 15.1732 5.42822V7.28521H14.2275C13.2959 7.28521 13.0052 7.86692 13.0052 8.46368V9.87908H15.0853L14.7528 12.0603H13.0052V17.3333C16.5908 16.7672 19.3334 13.6455 19.3334 9.87908Z" fill="black"/>
</g>
<defs>
<filter id="filter0_d_623_755" x="0.333374" y="2.33325" width="23" height="23" filterUnits="userSpaceOnUse" color-interpolation-filters="sRGB">
<feFlood flood-opacity="0" result="BackgroundImageFix"/>
<feColorMatrix in="SourceAlpha" type="matrix" values="0 0 0 0 0 0 0 0 0 0 0 0 0 0 0 0 0 0 127 0" result="hardAlpha"/>
<feOffset dy="4"/>
<feGaussianBlur stdDeviation="2"/>
<feComposite in2="hardAlpha" operator="out"/>
<feColorMatrix type="matrix" values="0 0 0 0 0 0 0 0 0 0 0 0 0 0 0 0 0 0 0.25 0"/>
<feBlend mode="normal" in2="BackgroundImageFix" result="effect1_dropShadow_623_755"/>
<feBlend mode="normal" in="SourceGraphic" in2="effect1_dropShadow_623_755" result="shape"/>
</filter>
</defs>
</svg>
