<svg width="800" height="800" viewBox="0 0 800 800" fill="none" xmlns="http://www.w3.org/2000/svg">
<g clip-path="url(#clip0_1151_1103)">
<g filter="url(#filter0_d_1151_1103)">
<path d="M354.479 560.572H356.073C361.575 560.572 366.038 556.11 366.038 550.607C366.038 545.105 361.576 540.643 356.073 540.643H354.479C348.977 540.643 344.514 545.105 344.514 550.607C344.514 556.11 348.977 560.572 354.479 560.572Z" fill="#FFDAB9"/>
</g>
<g filter="url(#filter1_d_1151_1103)">
<path d="M381.926 540.496C383.583 541.548 385.43 542.049 387.257 542.049C390.555 542.049 393.782 540.414 395.68 537.423C401.842 527.712 405.099 516.206 405.099 504.148V371.248C405.099 365.746 400.637 361.284 395.134 361.284C389.632 361.284 385.17 365.745 385.17 371.248V504.148C385.17 512.418 382.986 520.232 378.852 526.743C375.903 531.39 377.28 537.547 381.926 540.496Z" fill="#FFDAB9"/>
</g>
<g filter="url(#filter2_d_1151_1103)">
<path d="M138.551 552.6C144.053 552.6 148.516 548.138 148.516 542.636V472.635C148.516 467.133 144.054 462.67 138.551 462.67C133.048 462.67 128.586 467.132 128.586 472.635V542.636C128.587 548.138 133.049 552.6 138.551 552.6Z" fill="#FFDAB9"/>
</g>
<g filter="url(#filter3_d_1151_1103)">
<path d="M138.551 447.973C144.053 447.973 148.516 443.511 148.516 438.007C148.516 432.503 144.054 428.042 138.551 428.042C133.048 428.042 128.586 432.504 128.586 438.007V438.01C128.587 443.512 133.049 447.973 138.551 447.973Z" fill="#FFDAB9"/>
</g>
<g filter="url(#filter4_d_1151_1103)">
<path d="M447.945 226.765H418.053C418.053 221.263 413.591 216.8 408.088 216.8H303.461C297.959 216.8 293.496 221.262 293.496 226.765H252.144V218.793C252.144 213.291 247.682 208.828 242.179 208.828H211.29V198.366C211.29 188.751 219.113 180.928 228.728 180.928H242.18C247.682 180.928 252.145 176.467 252.145 170.964C252.145 165.462 247.683 161 242.18 161H228.728C208.124 161 191.362 177.762 191.362 198.366V208.828H59.9569C34.0654 208.828 13 229.894 13 255.785V256.533C13 282.424 34.0654 303.49 59.9569 303.49H82.8305L70.0418 358.887C67.4535 370.096 69.4387 376.912 71.0335 382.387C72.3132 386.781 73.1576 389.683 71.7409 395.819C70.3233 401.962 68.2904 404.201 65.2119 407.591C61.3783 411.814 56.6071 417.07 54.0216 428.275C53.5649 430.251 53.2284 432.214 53.0206 434.119C52.1696 441.989 53.7467 447.409 55.0161 451.764C56.2949 456.157 57.1403 459.059 55.7226 465.199C54.3087 471.325 52.2805 473.565 49.2131 476.956L48.3762 477.883C44.6395 482.025 40.4611 487.283 38.0797 497.328L24.5053 542.893C24.4121 543.207 24.3338 543.526 24.2723 543.846C21.9496 555.862 25.0832 568.166 32.8723 577.604C40.6606 587.042 52.1454 592.456 64.3823 592.456H66.3089V608.607C66.3089 624.931 79.5888 638.21 95.9119 638.21H116.421C132.745 638.21 146.024 624.931 146.024 608.607V592.458H147.519C170.046 592.458 188.373 574.13 188.373 551.604V348.33H201.575C219.02 348.33 233.212 334.138 233.212 316.693V303.491H242.18C247.682 303.491 252.145 299.029 252.145 293.526V286.551H293.497C293.497 292.054 297.959 296.515 303.462 296.515H307.56L296.489 321.426H275.561C270.059 321.426 265.596 325.888 265.596 331.391V504.148C265.596 557.237 305.469 600.43 354.479 600.43H356.074C405.085 600.43 444.956 557.238 444.956 504.148V331.391C444.956 325.889 440.495 321.426 434.992 321.426H397.626V296.515H408.088C413.59 296.515 418.053 292.054 418.053 286.551H447.945C453.447 286.551 457.91 282.089 457.91 276.586V236.729C457.909 231.227 453.447 226.765 447.945 226.765ZM126.096 608.609C126.096 613.944 121.756 618.284 116.421 618.284H95.9119C90.5768 618.284 86.2372 613.944 86.2372 608.609V593.373H126.095V608.609H126.096ZM168.444 551.604C168.444 563.142 159.057 572.529 147.519 572.529H64.3833C58.1161 572.529 52.233 569.758 48.2429 564.923C44.3487 560.203 42.727 554.084 43.7588 548.07L57.2633 502.736C57.3229 502.538 57.3751 502.336 57.4227 502.134C58.7294 496.477 60.5469 494.145 63.1977 491.209L63.9871 490.332C67.8067 486.114 72.5602 480.86 75.1401 469.685C77.7266 458.48 75.7422 451.669 74.1484 446.195C73.1362 442.721 72.4055 440.211 72.8324 436.275C72.9535 435.158 73.1576 433.977 73.4382 432.763C74.8558 426.62 76.8887 424.381 79.9672 420.991C83.8008 416.768 88.571 411.512 91.1584 400.305C93.7439 389.105 91.7605 382.291 90.1658 376.818C88.8851 372.423 88.0398 369.519 89.4583 363.374L103.282 303.493H168.444L168.444 551.604ZM213.284 316.693C213.284 323.15 208.032 328.402 201.575 328.402H188.373V303.491H213.284V316.693ZM232.216 283.562H59.9569C45.0534 283.562 32.9283 271.437 32.9283 256.533V255.785C32.9283 240.882 45.0524 228.757 59.9569 228.757H232.217V283.562H232.216ZM293.497 266.622H252.145V246.694H293.497V266.622ZM425.027 341.356V504.148C425.027 546.249 394.095 580.5 356.074 580.5H354.479C316.458 580.5 285.525 546.249 285.525 504.148V341.356H425.027ZM318.297 321.426L329.367 296.515H377.695V321.426H318.297ZM398.123 276.587H313.427V236.729H398.123V276.587ZM437.981 266.622H418.052V246.694H437.981V266.622Z" fill="#FFDAB9"/>
</g>
<g filter="url(#filter5_d_1151_1103)">
<path d="M653.389 323.451L653.135 323.382C648.868 322.124 643.929 324.082 642.507 327.642C642.172 328.409 642 329.18 642 330.016C642 332.948 644.265 335.534 647.609 336.512L647.862 336.581C648.786 336.86 649.702 337 650.625 337C654.141 337 657.321 335.114 658.499 332.321C659.251 330.575 659.17 328.689 658.164 327.014C657.24 325.337 655.564 324.082 653.389 323.451Z" fill="#FFDAB9"/>
</g>
<g filter="url(#filter6_d_1151_1103)">
<path d="M647.862 174.41L647.609 174.483C644.265 175.532 642 178.298 642 181.444C642 182.339 642.172 183.165 642.507 183.987C643.676 186.98 646.856 189 650.372 189C651.296 189 652.301 188.85 653.135 188.551L653.389 188.478C655.564 187.802 657.24 186.457 658.164 184.659C659.17 182.865 659.251 180.845 658.499 178.974C656.986 175.155 652.13 173.062 647.862 174.41Z" fill="#FFDAB9"/>
</g>
<g filter="url(#filter7_d_1151_1103)">
<path d="M697.555 250.32C695.95 248.801 693.843 248 691.571 248H671.429C666.704 248 663 251.523 663 255.922C663 260.402 666.704 264 671.429 264H691.571C696.205 264 700 260.402 700 256C700 253.839 699.16 251.839 697.555 250.32Z" fill="#FFDAB9"/>
</g>
<g filter="url(#filter8_d_1151_1103)">
<path d="M594.215 208C595.194 208 596.101 207.849 597.007 207.548L615.491 201.61C617.625 200.934 619.27 199.58 620.257 197.701C621.155 195.899 621.243 193.87 620.497 191.99C619.102 188.232 614.255 186.052 610.068 187.402L591.503 193.418C588.295 194.468 586.08 197.25 586 200.406C586 201.309 586.16 202.135 586.489 202.964C587.637 205.97 590.766 208 594.215 208Z" fill="#FFDAB9"/>
</g>
<g filter="url(#filter9_d_1151_1103)">
<path d="M630.887 248H611.201C606.692 248 603 251.377 603 255.5C603 259.623 606.692 263 611.201 263H630.887C635.396 263 639 259.623 639 255.5C639 251.377 635.396 248 630.887 248Z" fill="#FFDAB9"/>
</g>
<g filter="url(#filter10_d_1151_1103)">
<path d="M537.692 226C538.651 226 539.601 225.923 540.56 225.622L560.202 219.611C562.375 218.932 564.2 217.581 565.159 215.775C566.118 213.973 566.288 211.944 565.507 209.988C563.945 206.23 558.903 204.05 554.379 205.404L534.823 211.416C531.351 212.469 529 215.324 529 218.406C529 219.31 529.178 220.213 529.526 221.038C530.74 224.044 534.041 226 537.692 226Z" fill="#FFDAB9"/>
</g>
<g filter="url(#filter11_d_1151_1103)">
<path d="M615.491 309.671L597.007 303.461C592.819 301.968 587.965 304.248 586.489 308.178C586.16 309.122 586 309.986 586 310.93C586.08 314.231 588.295 317.14 591.503 318.238L610.068 324.528C610.974 324.843 611.873 325 612.779 325C616.309 325 619.35 322.878 620.497 319.73C621.243 317.765 621.155 315.643 620.257 313.758C619.27 311.793 617.625 310.378 615.491 309.671Z" fill="#FFDAB9"/>
</g>
<g filter="url(#filter12_d_1151_1103)">
<path d="M571.343 248H550.657C545.805 248 542 251.377 542 255.5C542 257.526 542.862 259.401 544.511 260.829C546.151 262.253 548.315 263 550.573 263H571.343C576.103 263 580 259.701 580 255.5C580 251.377 576.103 248 571.343 248Z" fill="#FFDAB9"/>
</g>
<g filter="url(#filter13_d_1151_1103)">
<path d="M496.753 223.391L477.626 229.676C473.231 231.168 470.951 235.65 472.47 239.736C473.652 242.878 476.866 245 480.419 245C481.435 245 482.369 244.843 483.302 244.528L502.338 238.239C504.536 237.533 506.23 236.121 507.155 234.234C508.172 232.346 508.254 230.228 507.494 228.263C506.057 224.254 501.066 222.056 496.753 223.391Z" fill="#FFDAB9"/>
</g>
<g filter="url(#filter14_d_1151_1103)">
<path d="M502.338 272.721L483.302 266.423C478.981 265.005 473.991 267.288 472.47 271.225C470.951 275.32 473.231 279.888 477.626 281.306L496.753 287.604C497.678 287.843 498.612 288 499.545 288C503.099 288 506.312 285.874 507.494 282.802C508.254 280.753 508.172 278.626 507.155 276.739C506.23 274.847 504.536 273.432 502.338 272.721Z" fill="#FFDAB9"/>
</g>
<g filter="url(#filter15_d_1151_1103)">
<path d="M560.202 291.396L540.56 285.375C536.13 284.096 531.003 286.202 529.526 289.966C529.178 290.871 529 291.697 529 292.601C529 295.763 531.351 298.549 534.823 299.604L554.379 305.625C555.338 305.927 556.289 306 557.333 306C560.983 306 564.293 304.045 565.507 301.034C566.288 299.152 566.118 297.042 565.159 295.237C564.115 293.429 562.375 292.076 560.202 291.396Z" fill="#FFDAB9"/>
</g>
</g>
<defs>
<filter id="filter0_d_1151_1103" x="329.514" y="529.643" width="51.5239" height="49.9292" filterUnits="userSpaceOnUse" color-interpolation-filters="sRGB">
<feFlood flood-opacity="0" result="BackgroundImageFix"/>
<feColorMatrix in="SourceAlpha" type="matrix" values="0 0 0 0 0 0 0 0 0 0 0 0 0 0 0 0 0 0 127 0" result="hardAlpha"/>
<feOffset dy="4"/>
<feGaussianBlur stdDeviation="7.5"/>
<feComposite in2="hardAlpha" operator="out"/>
<feColorMatrix type="matrix" values="0 0 0 0 0 0 0 0 0 0 0 0 0 0 0 0 0 0 1 0"/>
<feBlend mode="normal" in2="BackgroundImageFix" result="effect1_dropShadow_1151_1103"/>
<feBlend mode="normal" in="SourceGraphic" in2="effect1_dropShadow_1151_1103" result="shape"/>
</filter>
<filter id="filter1_d_1151_1103" x="362.3" y="350.284" width="57.7993" height="210.766" filterUnits="userSpaceOnUse" color-interpolation-filters="sRGB">
<feFlood flood-opacity="0" result="BackgroundImageFix"/>
<feColorMatrix in="SourceAlpha" type="matrix" values="0 0 0 0 0 0 0 0 0 0 0 0 0 0 0 0 0 0 127 0" result="hardAlpha"/>
<feOffset dy="4"/>
<feGaussianBlur stdDeviation="7.5"/>
<feComposite in2="hardAlpha" operator="out"/>
<feColorMatrix type="matrix" values="0 0 0 0 0 0 0 0 0 0 0 0 0 0 0 0 0 0 1 0"/>
<feBlend mode="normal" in2="BackgroundImageFix" result="effect1_dropShadow_1151_1103"/>
<feBlend mode="normal" in="SourceGraphic" in2="effect1_dropShadow_1151_1103" result="shape"/>
</filter>
<filter id="filter2_d_1151_1103" x="113.586" y="451.67" width="49.9292" height="119.93" filterUnits="userSpaceOnUse" color-interpolation-filters="sRGB">
<feFlood flood-opacity="0" result="BackgroundImageFix"/>
<feColorMatrix in="SourceAlpha" type="matrix" values="0 0 0 0 0 0 0 0 0 0 0 0 0 0 0 0 0 0 127 0" result="hardAlpha"/>
<feOffset dy="4"/>
<feGaussianBlur stdDeviation="7.5"/>
<feComposite in2="hardAlpha" operator="out"/>
<feColorMatrix type="matrix" values="0 0 0 0 0 0 0 0 0 0 0 0 0 0 0 0 0 0 1 0"/>
<feBlend mode="normal" in2="BackgroundImageFix" result="effect1_dropShadow_1151_1103"/>
<feBlend mode="normal" in="SourceGraphic" in2="effect1_dropShadow_1151_1103" result="shape"/>
</filter>
<filter id="filter3_d_1151_1103" x="113.586" y="417.042" width="49.9292" height="49.9312" filterUnits="userSpaceOnUse" color-interpolation-filters="sRGB">
<feFlood flood-opacity="0" result="BackgroundImageFix"/>
<feColorMatrix in="SourceAlpha" type="matrix" values="0 0 0 0 0 0 0 0 0 0 0 0 0 0 0 0 0 0 127 0" result="hardAlpha"/>
<feOffset dy="4"/>
<feGaussianBlur stdDeviation="7.5"/>
<feComposite in2="hardAlpha" operator="out"/>
<feColorMatrix type="matrix" values="0 0 0 0 0 0 0 0 0 0 0 0 0 0 0 0 0 0 1 0"/>
<feBlend mode="normal" in2="BackgroundImageFix" result="effect1_dropShadow_1151_1103"/>
<feBlend mode="normal" in="SourceGraphic" in2="effect1_dropShadow_1151_1103" result="shape"/>
</filter>
<filter id="filter4_d_1151_1103" x="-2" y="150" width="474.91" height="507.21" filterUnits="userSpaceOnUse" color-interpolation-filters="sRGB">
<feFlood flood-opacity="0" result="BackgroundImageFix"/>
<feColorMatrix in="SourceAlpha" type="matrix" values="0 0 0 0 0 0 0 0 0 0 0 0 0 0 0 0 0 0 127 0" result="hardAlpha"/>
<feOffset dy="4"/>
<feGaussianBlur stdDeviation="7.5"/>
<feComposite in2="hardAlpha" operator="out"/>
<feColorMatrix type="matrix" values="0 0 0 0 0 0 0 0 0 0 0 0 0 0 0 0 0 0 1 0"/>
<feBlend mode="normal" in2="BackgroundImageFix" result="effect1_dropShadow_1151_1103"/>
<feBlend mode="normal" in="SourceGraphic" in2="effect1_dropShadow_1151_1103" result="shape"/>
</filter>
<filter id="filter5_d_1151_1103" x="627" y="312" width="47" height="44" filterUnits="userSpaceOnUse" color-interpolation-filters="sRGB">
<feFlood flood-opacity="0" result="BackgroundImageFix"/>
<feColorMatrix in="SourceAlpha" type="matrix" values="0 0 0 0 0 0 0 0 0 0 0 0 0 0 0 0 0 0 127 0" result="hardAlpha"/>
<feOffset dy="4"/>
<feGaussianBlur stdDeviation="7.5"/>
<feComposite in2="hardAlpha" operator="out"/>
<feColorMatrix type="matrix" values="0 0 0 0 0 0 0 0 0 0 0 0 0 0 0 0 0 0 1 0"/>
<feBlend mode="normal" in2="BackgroundImageFix" result="effect1_dropShadow_1151_1103"/>
<feBlend mode="normal" in="SourceGraphic" in2="effect1_dropShadow_1151_1103" result="shape"/>
</filter>
<filter id="filter6_d_1151_1103" x="627" y="163" width="47" height="45" filterUnits="userSpaceOnUse" color-interpolation-filters="sRGB">
<feFlood flood-opacity="0" result="BackgroundImageFix"/>
<feColorMatrix in="SourceAlpha" type="matrix" values="0 0 0 0 0 0 0 0 0 0 0 0 0 0 0 0 0 0 127 0" result="hardAlpha"/>
<feOffset dy="4"/>
<feGaussianBlur stdDeviation="7.5"/>
<feComposite in2="hardAlpha" operator="out"/>
<feColorMatrix type="matrix" values="0 0 0 0 0 0 0 0 0 0 0 0 0 0 0 0 0 0 1 0"/>
<feBlend mode="normal" in2="BackgroundImageFix" result="effect1_dropShadow_1151_1103"/>
<feBlend mode="normal" in="SourceGraphic" in2="effect1_dropShadow_1151_1103" result="shape"/>
</filter>
<filter id="filter7_d_1151_1103" x="648" y="237" width="67" height="46" filterUnits="userSpaceOnUse" color-interpolation-filters="sRGB">
<feFlood flood-opacity="0" result="BackgroundImageFix"/>
<feColorMatrix in="SourceAlpha" type="matrix" values="0 0 0 0 0 0 0 0 0 0 0 0 0 0 0 0 0 0 127 0" result="hardAlpha"/>
<feOffset dy="4"/>
<feGaussianBlur stdDeviation="7.5"/>
<feComposite in2="hardAlpha" operator="out"/>
<feColorMatrix type="matrix" values="0 0 0 0 0 0 0 0 0 0 0 0 0 0 0 0 0 0 1 0"/>
<feBlend mode="normal" in2="BackgroundImageFix" result="effect1_dropShadow_1151_1103"/>
<feBlend mode="normal" in="SourceGraphic" in2="effect1_dropShadow_1151_1103" result="shape"/>
</filter>
<filter id="filter8_d_1151_1103" x="571" y="176" width="65" height="51" filterUnits="userSpaceOnUse" color-interpolation-filters="sRGB">
<feFlood flood-opacity="0" result="BackgroundImageFix"/>
<feColorMatrix in="SourceAlpha" type="matrix" values="0 0 0 0 0 0 0 0 0 0 0 0 0 0 0 0 0 0 127 0" result="hardAlpha"/>
<feOffset dy="4"/>
<feGaussianBlur stdDeviation="7.5"/>
<feComposite in2="hardAlpha" operator="out"/>
<feColorMatrix type="matrix" values="0 0 0 0 0 0 0 0 0 0 0 0 0 0 0 0 0 0 1 0"/>
<feBlend mode="normal" in2="BackgroundImageFix" result="effect1_dropShadow_1151_1103"/>
<feBlend mode="normal" in="SourceGraphic" in2="effect1_dropShadow_1151_1103" result="shape"/>
</filter>
<filter id="filter9_d_1151_1103" x="588" y="237" width="66" height="45" filterUnits="userSpaceOnUse" color-interpolation-filters="sRGB">
<feFlood flood-opacity="0" result="BackgroundImageFix"/>
<feColorMatrix in="SourceAlpha" type="matrix" values="0 0 0 0 0 0 0 0 0 0 0 0 0 0 0 0 0 0 127 0" result="hardAlpha"/>
<feOffset dy="4"/>
<feGaussianBlur stdDeviation="7.5"/>
<feComposite in2="hardAlpha" operator="out"/>
<feColorMatrix type="matrix" values="0 0 0 0 0 0 0 0 0 0 0 0 0 0 0 0 0 0 1 0"/>
<feBlend mode="normal" in2="BackgroundImageFix" result="effect1_dropShadow_1151_1103"/>
<feBlend mode="normal" in="SourceGraphic" in2="effect1_dropShadow_1151_1103" result="shape"/>
</filter>
<filter id="filter10_d_1151_1103" x="514" y="194" width="67" height="51" filterUnits="userSpaceOnUse" color-interpolation-filters="sRGB">
<feFlood flood-opacity="0" result="BackgroundImageFix"/>
<feColorMatrix in="SourceAlpha" type="matrix" values="0 0 0 0 0 0 0 0 0 0 0 0 0 0 0 0 0 0 127 0" result="hardAlpha"/>
<feOffset dy="4"/>
<feGaussianBlur stdDeviation="7.5"/>
<feComposite in2="hardAlpha" operator="out"/>
<feColorMatrix type="matrix" values="0 0 0 0 0 0 0 0 0 0 0 0 0 0 0 0 0 0 1 0"/>
<feBlend mode="normal" in2="BackgroundImageFix" result="effect1_dropShadow_1151_1103"/>
<feBlend mode="normal" in="SourceGraphic" in2="effect1_dropShadow_1151_1103" result="shape"/>
</filter>
<filter id="filter11_d_1151_1103" x="571" y="292" width="65" height="52" filterUnits="userSpaceOnUse" color-interpolation-filters="sRGB">
<feFlood flood-opacity="0" result="BackgroundImageFix"/>
<feColorMatrix in="SourceAlpha" type="matrix" values="0 0 0 0 0 0 0 0 0 0 0 0 0 0 0 0 0 0 127 0" result="hardAlpha"/>
<feOffset dy="4"/>
<feGaussianBlur stdDeviation="7.5"/>
<feComposite in2="hardAlpha" operator="out"/>
<feColorMatrix type="matrix" values="0 0 0 0 0 0 0 0 0 0 0 0 0 0 0 0 0 0 1 0"/>
<feBlend mode="normal" in2="BackgroundImageFix" result="effect1_dropShadow_1151_1103"/>
<feBlend mode="normal" in="SourceGraphic" in2="effect1_dropShadow_1151_1103" result="shape"/>
</filter>
<filter id="filter12_d_1151_1103" x="527" y="237" width="68" height="45" filterUnits="userSpaceOnUse" color-interpolation-filters="sRGB">
<feFlood flood-opacity="0" result="BackgroundImageFix"/>
<feColorMatrix in="SourceAlpha" type="matrix" values="0 0 0 0 0 0 0 0 0 0 0 0 0 0 0 0 0 0 127 0" result="hardAlpha"/>
<feOffset dy="4"/>
<feGaussianBlur stdDeviation="7.5"/>
<feComposite in2="hardAlpha" operator="out"/>
<feColorMatrix type="matrix" values="0 0 0 0 0 0 0 0 0 0 0 0 0 0 0 0 0 0 1 0"/>
<feBlend mode="normal" in2="BackgroundImageFix" result="effect1_dropShadow_1151_1103"/>
<feBlend mode="normal" in="SourceGraphic" in2="effect1_dropShadow_1151_1103" result="shape"/>
</filter>
<filter id="filter13_d_1151_1103" x="457" y="212" width="66" height="52" filterUnits="userSpaceOnUse" color-interpolation-filters="sRGB">
<feFlood flood-opacity="0" result="BackgroundImageFix"/>
<feColorMatrix in="SourceAlpha" type="matrix" values="0 0 0 0 0 0 0 0 0 0 0 0 0 0 0 0 0 0 127 0" result="hardAlpha"/>
<feOffset dy="4"/>
<feGaussianBlur stdDeviation="7.5"/>
<feComposite in2="hardAlpha" operator="out"/>
<feColorMatrix type="matrix" values="0 0 0 0 0 0 0 0 0 0 0 0 0 0 0 0 0 0 1 0"/>
<feBlend mode="normal" in2="BackgroundImageFix" result="effect1_dropShadow_1151_1103"/>
<feBlend mode="normal" in="SourceGraphic" in2="effect1_dropShadow_1151_1103" result="shape"/>
</filter>
<filter id="filter14_d_1151_1103" x="457" y="255" width="66" height="52" filterUnits="userSpaceOnUse" color-interpolation-filters="sRGB">
<feFlood flood-opacity="0" result="BackgroundImageFix"/>
<feColorMatrix in="SourceAlpha" type="matrix" values="0 0 0 0 0 0 0 0 0 0 0 0 0 0 0 0 0 0 127 0" result="hardAlpha"/>
<feOffset dy="4"/>
<feGaussianBlur stdDeviation="7.5"/>
<feComposite in2="hardAlpha" operator="out"/>
<feColorMatrix type="matrix" values="0 0 0 0 0 0 0 0 0 0 0 0 0 0 0 0 0 0 1 0"/>
<feBlend mode="normal" in2="BackgroundImageFix" result="effect1_dropShadow_1151_1103"/>
<feBlend mode="normal" in="SourceGraphic" in2="effect1_dropShadow_1151_1103" result="shape"/>
</filter>
<filter id="filter15_d_1151_1103" x="514" y="274" width="67" height="51" filterUnits="userSpaceOnUse" color-interpolation-filters="sRGB">
<feFlood flood-opacity="0" result="BackgroundImageFix"/>
<feColorMatrix in="SourceAlpha" type="matrix" values="0 0 0 0 0 0 0 0 0 0 0 0 0 0 0 0 0 0 127 0" result="hardAlpha"/>
<feOffset dy="4"/>
<feGaussianBlur stdDeviation="7.5"/>
<feComposite in2="hardAlpha" operator="out"/>
<feColorMatrix type="matrix" values="0 0 0 0 0 0 0 0 0 0 0 0 0 0 0 0 0 0 1 0"/>
<feBlend mode="normal" in2="BackgroundImageFix" result="effect1_dropShadow_1151_1103"/>
<feBlend mode="normal" in="SourceGraphic" in2="effect1_dropShadow_1151_1103" result="shape"/>
</filter>
<clipPath id="clip0_1151_1103">
<rect width="800" height="800" fill="white"/>
</clipPath>
</defs>
</svg>
