<svg width="512" height="512" viewBox="0 0 512 512" fill="none" xmlns="http://www.w3.org/2000/svg">
<g clip-path="url(#clip0_1133_1110)">
<path d="M444 49.8999C431.3 38.1999 379.9 0.899889 265.3 0.399889C265.3 0.399889 130.2 -7.70011 64.3998 52.6999C27.7998 89.2999 14.8998 143 13.4998 209.5C12.0998 276 10.3998 400.6 130.5 434.4H130.6L130.5 486C130.5 486 129.7 506.9 143.5 511.1C160.1 516.3 169.9 500.4 185.8 483.3C194.5 473.9 206.5 460.1 215.6 449.6C297.8 456.5 360.9 440.7 368.1 438.4C384.7 433 478.6 421 493.8 296.4C509.6 167.8 486.2 86.5999 444 49.8999ZM457.9 287C445 391 368.9 397.6 354.9 402.1C348.9 404 293.4 417.8 223.7 413.3C223.7 413.3 171.7 476 155.5 492.3C150.2 497.6 144.4 497.1 144.5 486.6C144.5 479.7 144.9 400.9 144.9 400.9C144.8 400.9 144.8 400.9 144.9 400.9C43.0998 372.7 49.0998 266.6 50.1998 211.1C51.2998 155.6 61.7998 110.1 92.7998 79.4999C148.5 28.9999 263.2 36.4999 263.2 36.4999C360.1 36.8999 406.5 66.0999 417.3 75.8999C453 106.5 471.2 179.7 457.9 287ZM318.9 206.2C319.3 214.8 306.4 215.4 306 206.8C304.9 184.8 294.6 174.1 273.4 172.9C264.8 172.4 265.6 159.5 274.1 160C302 161.5 317.5 177.5 318.9 206.2ZM339.2 217.5C340.2 175.1 313.7 141.9 263.4 138.2C254.9 137.6 255.8 124.7 264.3 125.3C322.3 129.5 353.2 169.4 352.1 217.8C352 226.4 339 226 339.2 217.5ZM386.2 230.9C386.3 239.5 373.3 239.6 373.3 231C372.7 149.5 318.4 105.1 252.5 104.6C244 104.5 244 91.6999 252.5 91.6999C326.2 92.1999 385.5 143.1 386.2 230.9ZM374.9 329V329.2C364.1 348.2 343.9 369.2 323.1 362.5L322.9 362.2C301.8 356.3 252.1 330.7 220.7 305.7C204.5 292.9 189.7 277.8 178.3 263.3C168 250.4 157.6 235.1 147.5 216.7C126.2 178.2 121.5 161 121.5 161C114.8 140.2 135.7 120 154.8 109.2H155C164.2 104.4 173 106 178.9 113.1C178.9 113.1 191.3 127.9 196.6 135.2C201.6 142 208.3 152.9 211.8 159C217.9 169.9 214.1 181 208.1 185.6L196.1 195.2C190 200.1 190.8 209.2 190.8 209.2C190.8 209.2 208.6 276.5 275.1 293.5C275.1 293.5 284.2 294.3 289.1 288.2L298.7 276.2C303.3 270.2 314.4 266.4 325.3 272.5C340 280.8 358.7 293.7 371.1 305.4C378.1 311.1 379.7 319.8 374.9 329Z" fill="#F5F5DC"/>
</g>
<defs>
<clipPath id="clip0_1133_1110">
<rect width="512" height="512" fill="white"/>
</clipPath>
</defs>
</svg>
