<svg width="800" height="800" viewBox="0 0 800 800" fill="none" xmlns="http://www.w3.org/2000/svg">
<g filter="url(#filter0_d_1144_1125)">
<path d="M306.721 549.811L243.421 672.461C242.31 674.61 240.125 675.843 237.861 675.843C236.897 675.843 235.92 675.616 234.999 675.146C231.935 673.565 230.732 669.794 232.314 666.724L307.417 521.204C308.747 518.646 311.616 517.304 314.449 518C317.25 518.678 319.221 521.193 319.221 524.073V602.441C319.221 605.896 316.426 608.691 312.971 608.691C309.516 608.691 306.721 605.896 306.721 602.441V549.811ZM618.294 604.151L635.23 657.185C636.286 660.475 634.467 663.99 631.184 665.04C630.549 665.248 629.907 665.339 629.28 665.339C626.631 665.339 624.177 663.648 623.329 660.993L606.616 608.66C603.432 609.528 600.526 610.116 598.396 610.468C593.959 616.626 581.215 631.983 563.691 633.49C558.912 637.818 546.277 645.679 520.002 642.023C517.127 642.675 510.494 643.964 502.931 643.964C495.021 643.964 486.097 642.554 479.396 637.525C474.492 633.846 471.465 628.568 470.304 622.191L383.876 596.509C383.455 596.38 383.046 596.21 382.655 595.996C382.366 595.838 379.874 594.354 376.837 591.765L297.856 697.449C293.101 703.801 283.22 696.874 287.654 690.226L363.05 577.669C363.729 576.673 364.542 576.051 365.347 575.418C363.849 571.11 363.066 566.145 363.685 560.45C364.375 554.096 367.665 548.518 373.2 544.325C386.841 533.998 411.121 533.986 420.765 535.585C431.86 537.434 463.666 547.329 476.395 551.356C480.794 542.656 491.676 525.479 514.1 512.294C527.356 504.499 541.527 496.209 555.31 492.665L575.471 480.305C573.939 477.931 572.376 475.581 570.832 473.249C562.287 460.364 554.219 448.194 551.587 434.528C550.94 431.14 553.156 427.863 556.55 427.21C559.907 426.551 563.209 428.779 563.867 432.173C566.016 443.373 573.414 454.53 581.25 466.34C584.015 470.515 586.822 474.745 589.465 479.073C591.26 482.015 590.337 485.86 587.396 487.66L579.311 492.615C583.48 493.944 587.536 496.04 591.412 499.233C604.367 509.916 625.707 535.466 631.739 561.638C652.709 546.675 687.976 517.216 686.712 497.523C684.082 456.275 633.697 361.463 606.03 337.568C584.771 319.21 552.64 321.754 542.447 323.124C541.25 344.926 538.311 364.676 531.874 380C515.124 419.625 476.749 461.374 418.374 461.374H414.874C352.749 459.499 320.874 412.875 319.499 410.874C319.124 410.124 318.749 409.374 318.624 408.499C318.157 406.219 313.586 382.505 308.332 354.309C274.455 357.004 246.286 374.739 220.3 444.896C198.797 502.959 171.576 576.989 163.495 598.985L161.132 605.424C160.205 607.95 157.812 609.519 155.267 609.519C154.554 609.519 153.827 609.396 153.112 609.134C149.871 607.944 148.211 604.355 149.401 601.114L151.764 594.675C159.845 572.678 187.066 498.624 208.581 440.549C232.746 375.295 261.331 346.226 306.049 341.999C299.222 305.02 292.084 264.699 291.622 255.621C291.622 254.246 291.499 252.621 291.372 250.621C289.372 226.996 284.372 164.246 340.122 102.121C341.997 99.9963 345.122 99.3714 347.622 100.746C347.872 100.746 371.747 112.871 407.747 112.871C430.622 112.871 448.872 111.37 463.622 110.121C482.997 108.621 495.747 107.496 504.497 111.121C520.997 117.746 539.122 145.621 540.372 203.621C540.622 215.121 541.122 227.121 541.622 239.496C542.595 263.5 543.516 287.81 542.962 310.435C556.755 308.813 590.305 307.47 614.195 328.104C644.047 353.879 696.349 452.244 699.186 496.725C701.18 527.86 647.577 566.138 633.329 575.745C633.262 581.644 632.29 587.454 629.905 592.984C627.772 597.931 623.314 601.506 618.294 604.151ZM462 317.001C460.375 304.876 454.25 264.501 444 255.876C442.875 255.003 441 254.501 439.875 254.501C439 254.501 353.625 255.751 322.875 257.626C321 257.751 319.375 258.626 318.25 260.126C317.125 261.501 316.75 263.376 317.125 265.251L329.875 322.751C330.626 325.501 333.125 327.626 336.001 327.626H336.251L456.001 324.126C457.751 324.001 459.501 323.251 460.626 321.876C461.751 320.501 462.25 318.751 462 317.001ZM583.455 508.876C569.691 497.505 552.162 504.403 520.436 523.073C500.812 534.61 491.249 549.791 487.571 556.969C494.065 562.216 505.17 573.606 505.201 590.505C505.22 600.844 502.241 609.084 496.345 614.986C492.146 619.195 487.241 621.338 483.287 622.438C484.054 624.476 485.157 626.22 486.884 627.516C494.159 633.003 508.549 631.569 515.804 630.128C535.077 599.974 521.672 576.651 521.076 575.655C519.312 572.701 520.252 568.861 523.194 567.086C526.154 565.304 529.956 566.214 531.751 569.144C532.476 570.336 547.97 596.526 530.114 630.395C546.817 631.026 553.891 625.541 555.555 623.966C566.256 600.756 557.906 582.693 557.537 581.93C556.054 578.83 557.336 575.094 560.43 573.586C563.536 572.073 567.241 573.343 568.761 576.419C569.184 577.269 577.577 594.924 570.85 618.578C580.244 614.069 587.136 604.814 588.947 602.165C593.126 587.386 585.087 570.295 585.002 570.12C583.507 567.014 584.807 563.278 587.914 561.776C591.039 560.299 594.756 561.569 596.251 564.664C596.612 565.413 603.641 580.398 602.436 596.788C604.487 596.246 606.546 595.625 608.481 594.891C608.572 594.858 608.634 594.784 608.727 594.754L608.846 594.74C613.459 592.949 617.304 590.656 618.431 588.046C629.601 562.131 600.679 523.079 583.455 508.876ZM331 269.625L341 315L448.625 311.75C445.75 292.875 441 273.125 437.25 267C423.25 267.25 361.875 268.25 331 269.625Z" fill="#FFDAB9"/>
</g>
<g filter="url(#filter1_d_1144_1125)">
<path d="M261.288 726.172C261.288 724.381 260.605 722.591 259.239 721.226L191.061 653.049C188.329 650.317 183.901 650.317 181.169 653.049C178.439 655.778 178.439 660.211 181.169 662.94L249.346 731.117C252.078 733.849 256.507 733.849 259.239 731.117C260.605 729.753 261.288 727.962 261.288 726.172Z" fill="#FFDAB9"/>
</g>
<g filter="url(#filter2_d_1144_1125)">
<path d="M217.473 729.195C217.941 728.219 218.161 727.191 218.161 726.177C218.161 723.57 216.697 721.067 214.187 719.864L115.019 672.347C111.535 670.678 107.358 672.149 105.689 675.632C104.019 679.116 105.49 683.293 108.974 684.963L208.142 732.48C211.628 734.149 215.805 732.678 217.473 729.195Z" fill="#FFDAB9"/>
</g>
<g filter="url(#filter3_d_1144_1125)">
<path d="M297.805 721.226C295.074 723.955 295.074 728.389 297.805 731.117C300.536 733.849 304.965 733.849 307.697 731.117L375.875 662.94C377.241 661.575 377.924 659.785 377.924 657.994C377.924 656.204 377.241 654.413 375.875 653.049C373.143 650.317 368.714 650.317 365.982 653.049L297.805 721.226Z" fill="#FFDAB9"/>
</g>
<g filter="url(#filter4_d_1144_1125)">
<path d="M342.856 719.864C339.372 721.534 337.9 725.711 339.572 729.195C341.24 732.678 345.417 734.149 348.901 732.48L448.069 684.963C450.578 683.762 452.044 681.259 452.044 678.65C452.044 677.636 451.823 676.608 451.354 675.632C449.686 672.149 445.509 670.678 442.025 672.347L342.856 719.864Z" fill="#FFDAB9"/>
</g>
<defs>
<filter id="filter0_d_1144_1125" x="134.016" y="89.0156" width="580.224" height="629.944" filterUnits="userSpaceOnUse" color-interpolation-filters="sRGB">
<feFlood flood-opacity="0" result="BackgroundImageFix"/>
<feColorMatrix in="SourceAlpha" type="matrix" values="0 0 0 0 0 0 0 0 0 0 0 0 0 0 0 0 0 0 127 0" result="hardAlpha"/>
<feOffset dy="4"/>
<feGaussianBlur stdDeviation="7.5"/>
<feComposite in2="hardAlpha" operator="out"/>
<feColorMatrix type="matrix" values="0 0 0 0 0 0 0 0 0 0 0 0 0 0 0 0 0 0 1 0"/>
<feBlend mode="normal" in2="BackgroundImageFix" result="effect1_dropShadow_1144_1125"/>
<feBlend mode="normal" in="SourceGraphic" in2="effect1_dropShadow_1144_1125" result="shape"/>
</filter>
<filter id="filter1_d_1144_1125" x="164.121" y="640" width="112.167" height="112.166" filterUnits="userSpaceOnUse" color-interpolation-filters="sRGB">
<feFlood flood-opacity="0" result="BackgroundImageFix"/>
<feColorMatrix in="SourceAlpha" type="matrix" values="0 0 0 0 0 0 0 0 0 0 0 0 0 0 0 0 0 0 127 0" result="hardAlpha"/>
<feOffset dy="4"/>
<feGaussianBlur stdDeviation="7.5"/>
<feComposite in2="hardAlpha" operator="out"/>
<feColorMatrix type="matrix" values="0 0 0 0 0 0 0 0 0 0 0 0 0 0 0 0 0 0 1 0"/>
<feBlend mode="normal" in2="BackgroundImageFix" result="effect1_dropShadow_1144_1125"/>
<feBlend mode="normal" in="SourceGraphic" in2="effect1_dropShadow_1144_1125" result="shape"/>
</filter>
<filter id="filter2_d_1144_1125" x="90" y="660.659" width="143.161" height="91.5093" filterUnits="userSpaceOnUse" color-interpolation-filters="sRGB">
<feFlood flood-opacity="0" result="BackgroundImageFix"/>
<feColorMatrix in="SourceAlpha" type="matrix" values="0 0 0 0 0 0 0 0 0 0 0 0 0 0 0 0 0 0 127 0" result="hardAlpha"/>
<feOffset dy="4"/>
<feGaussianBlur stdDeviation="7.5"/>
<feComposite in2="hardAlpha" operator="out"/>
<feColorMatrix type="matrix" values="0 0 0 0 0 0 0 0 0 0 0 0 0 0 0 0 0 0 1 0"/>
<feBlend mode="normal" in2="BackgroundImageFix" result="effect1_dropShadow_1144_1125"/>
<feBlend mode="normal" in="SourceGraphic" in2="effect1_dropShadow_1144_1125" result="shape"/>
</filter>
<filter id="filter3_d_1144_1125" x="280.757" y="640" width="112.167" height="112.166" filterUnits="userSpaceOnUse" color-interpolation-filters="sRGB">
<feFlood flood-opacity="0" result="BackgroundImageFix"/>
<feColorMatrix in="SourceAlpha" type="matrix" values="0 0 0 0 0 0 0 0 0 0 0 0 0 0 0 0 0 0 127 0" result="hardAlpha"/>
<feOffset dy="4"/>
<feGaussianBlur stdDeviation="7.5"/>
<feComposite in2="hardAlpha" operator="out"/>
<feColorMatrix type="matrix" values="0 0 0 0 0 0 0 0 0 0 0 0 0 0 0 0 0 0 1 0"/>
<feBlend mode="normal" in2="BackgroundImageFix" result="effect1_dropShadow_1144_1125"/>
<feBlend mode="normal" in="SourceGraphic" in2="effect1_dropShadow_1144_1125" result="shape"/>
</filter>
<filter id="filter4_d_1144_1125" x="323.882" y="660.659" width="143.162" height="91.5093" filterUnits="userSpaceOnUse" color-interpolation-filters="sRGB">
<feFlood flood-opacity="0" result="BackgroundImageFix"/>
<feColorMatrix in="SourceAlpha" type="matrix" values="0 0 0 0 0 0 0 0 0 0 0 0 0 0 0 0 0 0 127 0" result="hardAlpha"/>
<feOffset dy="4"/>
<feGaussianBlur stdDeviation="7.5"/>
<feComposite in2="hardAlpha" operator="out"/>
<feColorMatrix type="matrix" values="0 0 0 0 0 0 0 0 0 0 0 0 0 0 0 0 0 0 1 0"/>
<feBlend mode="normal" in2="BackgroundImageFix" result="effect1_dropShadow_1144_1125"/>
<feBlend mode="normal" in="SourceGraphic" in2="effect1_dropShadow_1144_1125" result="shape"/>
</filter>
</defs>
</svg>
